%TF.GenerationSoftware,KiCad,Pcbnew,10.0.0*%
%TF.CreationDate,2026-05-06T15:59:16-07:00*%
%TF.ProjectId,ChargeController3.0,43686172-6765-4436-9f6e-74726f6c6c65,rev?*%
%TF.SameCoordinates,Original*%
%TF.FileFunction,Profile,NP*%
%FSLAX46Y46*%
G04 Gerber Fmt 4.6, Leading zero omitted, Abs format (unit mm)*
G04 Created by KiCad (PCBNEW 10.0.0) date 2026-05-06 15:59:16*
%MOMM*%
%LPD*%
G01*
G04 APERTURE LIST*
%TA.AperFunction,Profile*%
%ADD10C,0.050000*%
%TD*%
G04 APERTURE END LIST*
D10*
X104000000Y-61950000D02*
G75*
G02*
X106000000Y-59950000I2000000J0D01*
G01*
X104000000Y-94820000D02*
X104000000Y-61950000D01*
X104000000Y-117540000D02*
X104000000Y-148120000D01*
X104000000Y-117540000D02*
G75*
G02*
X105200000Y-116340000I1200000J0D01*
G01*
X105200000Y-96020000D02*
G75*
G02*
X104000000Y-94820000I0J1200000D01*
G01*
X105730000Y-96020000D02*
X105200000Y-96020000D01*
X105730000Y-96020000D02*
G75*
G02*
X106930000Y-97220000I0J-1200000D01*
G01*
X105730000Y-116340000D02*
X105200000Y-116340000D01*
X106000000Y-59950000D02*
X141309619Y-59922326D01*
X106000000Y-150120000D02*
G75*
G02*
X104000000Y-148120000I0J2000000D01*
G01*
X106000000Y-150120000D02*
X140310000Y-150120000D01*
X106930000Y-115140000D02*
G75*
G02*
X105730000Y-116340000I-1200000J0D01*
G01*
X106930000Y-115140000D02*
X106930000Y-97220000D01*
X140810000Y-149400000D02*
G75*
G02*
X142010000Y-148200000I1200000J0D01*
G01*
X140810000Y-149620000D02*
G75*
G02*
X140310000Y-150120000I-500000J0D01*
G01*
X140810000Y-149620000D02*
X140810000Y-149400000D01*
X141309619Y-59922325D02*
G75*
G02*
X141809975Y-60422325I381J-499975D01*
G01*
X141809990Y-60422325D02*
X141809990Y-60641954D01*
X142010000Y-148200000D02*
X159880000Y-148200000D01*
X143009990Y-61841954D02*
G75*
G02*
X141810046Y-60641954I10J1199954D01*
G01*
X143009990Y-61841954D02*
X160879990Y-61841954D01*
X159880000Y-148200000D02*
G75*
G02*
X161080000Y-149400000I0J-1200000D01*
G01*
X161080000Y-149400000D02*
X161080000Y-149620000D01*
X161580000Y-150120000D02*
G75*
G02*
X161080000Y-149620000I0J500000D01*
G01*
X161580000Y-150120000D02*
X197885000Y-150120000D01*
X162079991Y-60422346D02*
X162079990Y-60642000D01*
X162079990Y-60422346D02*
G75*
G02*
X162580382Y-59922390I499910J46D01*
G01*
X162079990Y-60641954D02*
G75*
G02*
X160879990Y-61841890I-1199890J-46D01*
G01*
X162580382Y-59922346D02*
X197885000Y-59950000D01*
X196955000Y-97220000D02*
X196955000Y-115140000D01*
X196955000Y-97220000D02*
G75*
G02*
X198155000Y-96020000I1200000J0D01*
G01*
X197885000Y-59950000D02*
G75*
G02*
X199885000Y-61950000I0J-2000000D01*
G01*
X198155000Y-116340000D02*
G75*
G02*
X196955000Y-115140000I0J1200000D01*
G01*
X198155000Y-116340000D02*
X198685000Y-116340000D01*
X198685000Y-96020000D02*
X198155000Y-96020000D01*
X198685000Y-116340000D02*
G75*
G02*
X199885000Y-117540000I0J-1200000D01*
G01*
X199885000Y-61950000D02*
X199885000Y-94820000D01*
X199885000Y-94820000D02*
G75*
G02*
X198685000Y-96020000I-1200000J0D01*
G01*
X199885000Y-117540000D02*
X199885000Y-148120000D01*
X199885000Y-148120000D02*
G75*
G02*
X197885000Y-150120000I-2000000J0D01*
G01*
M02*
