%TF.GenerationSoftware,KiCad,Pcbnew,10.0.0*%
%TF.CreationDate,2026-05-06T15:59:16-07:00*%
%TF.ProjectId,ChargeController3.0,43686172-6765-4436-9f6e-74726f6c6c65,rev?*%
%TF.SameCoordinates,Original*%
%TF.FileFunction,Copper,L1,Top*%
%TF.FilePolarity,Positive*%
%FSLAX46Y46*%
G04 Gerber Fmt 4.6, Leading zero omitted, Abs format (unit mm)*
G04 Created by KiCad (PCBNEW 10.0.0) date 2026-05-06 15:59:16*
%MOMM*%
%LPD*%
G01*
G04 APERTURE LIST*
G04 Aperture macros list*
%AMRoundRect*
0 Rectangle with rounded corners*
0 $1 Rounding radius*
0 $2 $3 $4 $5 $6 $7 $8 $9 X,Y pos of 4 corners*
0 Add a 4 corners polygon primitive as box body*
4,1,4,$2,$3,$4,$5,$6,$7,$8,$9,$2,$3,0*
0 Add four circle primitives for the rounded corners*
1,1,$1+$1,$2,$3*
1,1,$1+$1,$4,$5*
1,1,$1+$1,$6,$7*
1,1,$1+$1,$8,$9*
0 Add four rect primitives between the rounded corners*
20,1,$1+$1,$2,$3,$4,$5,0*
20,1,$1+$1,$4,$5,$6,$7,0*
20,1,$1+$1,$6,$7,$8,$9,0*
20,1,$1+$1,$8,$9,$2,$3,0*%
G04 Aperture macros list end*
%TA.AperFunction,SMDPad,CuDef*%
%ADD10RoundRect,0.250000X-0.312500X-0.625000X0.312500X-0.625000X0.312500X0.625000X-0.312500X0.625000X0*%
%TD*%
%TA.AperFunction,SMDPad,CuDef*%
%ADD11RoundRect,0.250000X-0.625000X0.312500X-0.625000X-0.312500X0.625000X-0.312500X0.625000X0.312500X0*%
%TD*%
%TA.AperFunction,SMDPad,CuDef*%
%ADD12RoundRect,0.218750X0.218750X0.256250X-0.218750X0.256250X-0.218750X-0.256250X0.218750X-0.256250X0*%
%TD*%
%TA.AperFunction,SMDPad,CuDef*%
%ADD13RoundRect,0.140000X0.170000X-0.140000X0.170000X0.140000X-0.170000X0.140000X-0.170000X-0.140000X0*%
%TD*%
%TA.AperFunction,SMDPad,CuDef*%
%ADD14RoundRect,0.200000X-0.275000X0.200000X-0.275000X-0.200000X0.275000X-0.200000X0.275000X0.200000X0*%
%TD*%
%TA.AperFunction,SMDPad,CuDef*%
%ADD15RoundRect,0.135000X-0.185000X0.135000X-0.185000X-0.135000X0.185000X-0.135000X0.185000X0.135000X0*%
%TD*%
%TA.AperFunction,SMDPad,CuDef*%
%ADD16R,2.280000X2.120000*%
%TD*%
%TA.AperFunction,SMDPad,CuDef*%
%ADD17R,2.794000X0.558800*%
%TD*%
%TA.AperFunction,SMDPad,CuDef*%
%ADD18R,0.711200X0.406400*%
%TD*%
%TA.AperFunction,SMDPad,CuDef*%
%ADD19RoundRect,0.140000X-0.170000X0.140000X-0.170000X-0.140000X0.170000X-0.140000X0.170000X0.140000X0*%
%TD*%
%TA.AperFunction,ComponentPad*%
%ADD20C,5.500000*%
%TD*%
%TA.AperFunction,SMDPad,CuDef*%
%ADD21RoundRect,0.140000X0.140000X0.170000X-0.140000X0.170000X-0.140000X-0.170000X0.140000X-0.170000X0*%
%TD*%
%TA.AperFunction,SMDPad,CuDef*%
%ADD22R,0.990000X0.420000*%
%TD*%
%TA.AperFunction,SMDPad,CuDef*%
%ADD23R,0.760000X0.420000*%
%TD*%
%TA.AperFunction,SMDPad,CuDef*%
%ADD24R,1.725000X2.235000*%
%TD*%
%TA.AperFunction,SMDPad,CuDef*%
%ADD25R,0.650000X0.500000*%
%TD*%
%TA.AperFunction,SMDPad,CuDef*%
%ADD26R,0.550000X0.500000*%
%TD*%
%TA.AperFunction,SMDPad,CuDef*%
%ADD27R,4.120000X4.600000*%
%TD*%
%TA.AperFunction,SMDPad,CuDef*%
%ADD28R,1.460500X0.558800*%
%TD*%
%TA.AperFunction,SMDPad,CuDef*%
%ADD29RoundRect,0.135000X0.135000X0.185000X-0.135000X0.185000X-0.135000X-0.185000X0.135000X-0.185000X0*%
%TD*%
%TA.AperFunction,SMDPad,CuDef*%
%ADD30RoundRect,0.135000X0.185000X-0.135000X0.185000X0.135000X-0.185000X0.135000X-0.185000X-0.135000X0*%
%TD*%
%TA.AperFunction,SMDPad,CuDef*%
%ADD31RoundRect,0.250000X0.625000X-0.312500X0.625000X0.312500X-0.625000X0.312500X-0.625000X-0.312500X0*%
%TD*%
%TA.AperFunction,SMDPad,CuDef*%
%ADD32RoundRect,0.200000X0.200000X0.275000X-0.200000X0.275000X-0.200000X-0.275000X0.200000X-0.275000X0*%
%TD*%
%TA.AperFunction,ComponentPad*%
%ADD33O,3.620000X1.810000*%
%TD*%
%TA.AperFunction,SMDPad,CuDef*%
%ADD34RoundRect,0.225000X-0.250000X0.225000X-0.250000X-0.225000X0.250000X-0.225000X0.250000X0.225000X0*%
%TD*%
%TA.AperFunction,SMDPad,CuDef*%
%ADD35R,0.558800X2.794000*%
%TD*%
%TA.AperFunction,SMDPad,CuDef*%
%ADD36RoundRect,0.200000X-0.200000X-0.275000X0.200000X-0.275000X0.200000X0.275000X-0.200000X0.275000X0*%
%TD*%
%TA.AperFunction,SMDPad,CuDef*%
%ADD37RoundRect,0.100000X-0.130000X-0.100000X0.130000X-0.100000X0.130000X0.100000X-0.130000X0.100000X0*%
%TD*%
%TA.AperFunction,SMDPad,CuDef*%
%ADD38RoundRect,0.152500X-0.437500X-0.152500X0.437500X-0.152500X0.437500X0.152500X-0.437500X0.152500X0*%
%TD*%
%TA.AperFunction,SMDPad,CuDef*%
%ADD39RoundRect,0.100000X0.100000X-0.130000X0.100000X0.130000X-0.100000X0.130000X-0.100000X-0.130000X0*%
%TD*%
%TA.AperFunction,ComponentPad*%
%ADD40R,1.700000X1.700000*%
%TD*%
%TA.AperFunction,ComponentPad*%
%ADD41C,1.700000*%
%TD*%
%TA.AperFunction,SMDPad,CuDef*%
%ADD42R,2.870200X12.446000*%
%TD*%
%TA.AperFunction,SMDPad,CuDef*%
%ADD43RoundRect,0.225000X-0.225000X-0.250000X0.225000X-0.250000X0.225000X0.250000X-0.225000X0.250000X0*%
%TD*%
%TA.AperFunction,SMDPad,CuDef*%
%ADD44RoundRect,0.140000X-0.140000X-0.170000X0.140000X-0.170000X0.140000X0.170000X-0.140000X0.170000X0*%
%TD*%
%TA.AperFunction,SMDPad,CuDef*%
%ADD45RoundRect,0.100000X0.130000X0.100000X-0.130000X0.100000X-0.130000X-0.100000X0.130000X-0.100000X0*%
%TD*%
%TA.AperFunction,SMDPad,CuDef*%
%ADD46RoundRect,0.050000X-0.075000X0.250000X-0.075000X-0.250000X0.075000X-0.250000X0.075000X0.250000X0*%
%TD*%
%TA.AperFunction,SMDPad,CuDef*%
%ADD47RoundRect,0.050000X-0.250000X0.075000X-0.250000X-0.075000X0.250000X-0.075000X0.250000X0.075000X0*%
%TD*%
%TA.AperFunction,SMDPad,CuDef*%
%ADD48RoundRect,0.054000X-2.246000X1.746000X-2.246000X-1.746000X2.246000X-1.746000X2.246000X1.746000X0*%
%TD*%
%TA.AperFunction,ComponentPad*%
%ADD49C,0.300000*%
%TD*%
%TA.AperFunction,SMDPad,CuDef*%
%ADD50R,2.560396X2.499995*%
%TD*%
%TA.AperFunction,SMDPad,CuDef*%
%ADD51RoundRect,0.250000X-0.450000X0.262500X-0.450000X-0.262500X0.450000X-0.262500X0.450000X0.262500X0*%
%TD*%
%TA.AperFunction,SMDPad,CuDef*%
%ADD52R,2.499995X2.560396*%
%TD*%
%TA.AperFunction,SMDPad,CuDef*%
%ADD53RoundRect,0.100000X-0.100000X0.130000X-0.100000X-0.130000X0.100000X-0.130000X0.100000X0.130000X0*%
%TD*%
%TA.AperFunction,ComponentPad*%
%ADD54C,1.270000*%
%TD*%
%TA.AperFunction,SMDPad,CuDef*%
%ADD55RoundRect,0.200000X0.275000X-0.200000X0.275000X0.200000X-0.275000X0.200000X-0.275000X-0.200000X0*%
%TD*%
%TA.AperFunction,ViaPad*%
%ADD56C,0.600000*%
%TD*%
%TA.AperFunction,Conductor*%
%ADD57C,0.800000*%
%TD*%
%TA.AperFunction,Conductor*%
%ADD58C,0.400000*%
%TD*%
%TA.AperFunction,Conductor*%
%ADD59C,0.200000*%
%TD*%
%TA.AperFunction,Conductor*%
%ADD60C,0.500000*%
%TD*%
%TA.AperFunction,Conductor*%
%ADD61C,0.300000*%
%TD*%
G04 APERTURE END LIST*
D10*
%TO.P,RR_BATT_SNS1,1*%
%TO.N,OUT*%
X118427500Y-98525000D03*
%TO.P,RR_BATT_SNS1,2*%
%TO.N,Net-(Q6-D_1)*%
X121352500Y-98525000D03*
%TD*%
D11*
%TO.P,R6,1*%
%TO.N,EN*%
X138400000Y-139137500D03*
%TO.P,R6,2*%
%TO.N,DIV*%
X138400000Y-142062500D03*
%TD*%
D12*
%TO.P,D2,1,K_1*%
%TO.N,STAT_1*%
X184187500Y-88600000D03*
%TO.P,D2,2,A_2*%
%TO.N,Net-(D2-A)*%
X182612500Y-88600000D03*
%TD*%
D13*
%TO.P,C14,1*%
%TO.N,GND*%
X142030000Y-93590000D03*
%TO.P,C14,2*%
%TO.N,SRP*%
X142030000Y-92630000D03*
%TD*%
D14*
%TO.P,R4,1*%
%TO.N,IN*%
X161000000Y-89375000D03*
%TO.P,R4,2*%
%TO.N,Net-(C6-Pad1)*%
X161000000Y-91025000D03*
%TD*%
D15*
%TO.P,R9,1*%
%TO.N,OUT*%
X152200000Y-130890000D03*
%TO.P,R9,2*%
%TO.N,Net-(U2-G)*%
X152200000Y-131910000D03*
%TD*%
D16*
%TO.P,D4,A*%
%TO.N,DRV_SUP*%
X144455000Y-103325000D03*
%TO.P,D4,C*%
%TO.N,BTST_2*%
X140125000Y-103325000D03*
%TD*%
D17*
%TO.P,C5,1*%
%TO.N,Net-(Q5-D_1)*%
X173290000Y-105645400D03*
%TO.P,C5,2*%
%TO.N,GND*%
X173290000Y-109404600D03*
%TD*%
D18*
%TO.P,U10,1*%
%TO.N,Net-(U10-Pad1)*%
X157000000Y-139200000D03*
%TO.P,U10,2*%
%TO.N,BATT+_PIN*%
X159387600Y-139200000D03*
%TD*%
%TO.P,U9,1*%
%TO.N,Net-(SW1-Pad1)*%
X154406200Y-141800000D03*
%TO.P,U9,2*%
%TO.N,SOL_PIN*%
X156793800Y-141800000D03*
%TD*%
D19*
%TO.P,C16,1*%
%TO.N,GND*%
X142030000Y-90380000D03*
%TO.P,C16,2*%
%TO.N,SRN*%
X142030000Y-91340000D03*
%TD*%
D20*
%TO.P,H2,1,1_1*%
%TO.N,Net-(C9-Pad1)*%
X194810000Y-65030000D03*
%TD*%
D16*
%TO.P,D5,A*%
%TO.N,DRV_SUP*%
X151015000Y-103325000D03*
%TO.P,D5,C*%
%TO.N,BTST_1*%
X155345000Y-103325000D03*
%TD*%
D21*
%TO.P,C19,1*%
%TO.N,SW1*%
X160080000Y-107600000D03*
%TO.P,C19,2*%
%TO.N,BTST_1*%
X159120000Y-107600000D03*
%TD*%
D14*
%TO.P,R25,1*%
%TO.N,TS*%
X135000000Y-87750000D03*
%TO.P,R25,2*%
%TO.N,DRV_SUP*%
X135000000Y-89400000D03*
%TD*%
D22*
%TO.P,U7,1,S_1*%
%TO.N,SOL_PIN*%
X178777701Y-129564979D03*
%TO.P,U7,2,S_2*%
X178777701Y-128904979D03*
%TO.P,U7,3,S_3*%
X178777701Y-128244979D03*
%TO.P,U7,4,G_4*%
%TO.N,Net-(U7-G)*%
X178777701Y-127584979D03*
D23*
%TO.P,U7,5,D_5*%
%TO.N,Net-(R18-Pad1)*%
X175797701Y-127584979D03*
%TO.P,U7,6,D_6*%
X175797701Y-128244979D03*
%TO.P,U7,7,D_7*%
X175797701Y-128904979D03*
%TO.P,U7,8,D_8*%
X175797701Y-129564979D03*
D24*
%TO.P,U7,PAD*%
X176787701Y-128574979D03*
%TD*%
D25*
%TO.P,Q8,1,S_1_1*%
%TO.N,GND*%
X130580000Y-112135000D03*
%TO.P,Q8,2,S_2_2*%
X130580000Y-113405000D03*
%TO.P,Q8,3,S_3_3*%
X130580000Y-114675000D03*
%TO.P,Q8,4,G_4*%
%TO.N,LODRV_2*%
X130580000Y-115945000D03*
D26*
%TO.P,Q8,5,D_1_5*%
%TO.N,SW2*%
X136130000Y-115945000D03*
%TO.P,Q8,6,D_2_6*%
X136130000Y-114675000D03*
%TO.P,Q8,7,D_3_7*%
X136130000Y-113405000D03*
%TO.P,Q8,8,D_4_8*%
X136130000Y-112135000D03*
D27*
%TO.P,Q8,9,D_5_9*%
X133795000Y-114040000D03*
%TD*%
D28*
%TO.P,U5,1,1_1*%
%TO.N,Net-(U5-Pad1)*%
X177151700Y-138590000D03*
%TO.P,U5,2,2_2*%
X177151700Y-139860000D03*
%TO.P,U5,3,3_3*%
X177151700Y-141130000D03*
%TO.P,U5,4,4_4*%
%TO.N,DIV*%
X177151700Y-142400000D03*
%TO.P,U5,5,5_5*%
%TO.N,BATT-_PIN*%
X182600000Y-142400000D03*
%TO.P,U5,6,6_6*%
X182600000Y-141130000D03*
%TO.P,U5,7,7_7*%
X182600000Y-139860000D03*
%TO.P,U5,8,8_8*%
X182600000Y-138590000D03*
%TD*%
D29*
%TO.P,R23,1*%
%TO.N,Net-(U7-G)*%
X172850000Y-127915000D03*
%TO.P,R23,2*%
%TO.N,Net-(Q13-Pad3)*%
X171830000Y-127915000D03*
%TD*%
D28*
%TO.P,U6,1,1_1*%
%TO.N,Net-(U5-Pad1)*%
X177151700Y-144695000D03*
%TO.P,U6,2,2_2*%
X177151700Y-145965000D03*
%TO.P,U6,3,3_3*%
X177151700Y-147235000D03*
%TO.P,U6,4,4_4*%
%TO.N,DIV*%
X177151700Y-148505000D03*
%TO.P,U6,5,5_5*%
%TO.N,GND*%
X182600000Y-148505000D03*
%TO.P,U6,6,6_6*%
X182600000Y-147235000D03*
%TO.P,U6,7,7_7*%
X182600000Y-145965000D03*
%TO.P,U6,8,8_8*%
X182600000Y-144695000D03*
%TD*%
D30*
%TO.P,R8,1*%
%TO.N,BATT+_PIN*%
X168800000Y-135310000D03*
%TO.P,R8,2*%
%TO.N,Net-(U2-G)*%
X168800000Y-134290000D03*
%TD*%
D14*
%TO.P,R11,1*%
%TO.N,IN*%
X155600000Y-89350000D03*
%TO.P,R11,2*%
%TO.N,ACP*%
X155600000Y-91000000D03*
%TD*%
%TO.P,R_ICHG1,1*%
%TO.N,GND*%
X145030000Y-84785000D03*
%TO.P,R_ICHG1,2*%
%TO.N,Net-(U1-ICHG)*%
X145030000Y-86435000D03*
%TD*%
D31*
%TO.P,R_AC_SNS1,1*%
%TO.N,Net-(Q5-D_1)*%
X173890000Y-103787500D03*
%TO.P,R_AC_SNS1,2*%
%TO.N,IN*%
X173890000Y-100862500D03*
%TD*%
D32*
%TO.P,R17,1*%
%TO.N,SDA*%
X179825000Y-89900000D03*
%TO.P,R17,2*%
%TO.N,3.3V*%
X178175000Y-89900000D03*
%TD*%
%TO.P,R_FSW_SYNC1,1*%
%TO.N,GND*%
X156225000Y-84200000D03*
%TO.P,R_FSW_SYNC1,2*%
%TO.N,Net-(U1-FSW_SYNC)*%
X154575000Y-84200000D03*
%TD*%
D12*
%TO.P,D3,1,K_1*%
%TO.N,STAT_2*%
X184187500Y-84600000D03*
%TO.P,D3,2,A_2*%
%TO.N,Net-(D3-A)*%
X182612500Y-84600000D03*
%TD*%
D15*
%TO.P,R10,1*%
%TO.N,Net-(R10-Pad1)*%
X160600000Y-130890000D03*
%TO.P,R10,2*%
%TO.N,Net-(U2-G)*%
X160600000Y-131910000D03*
%TD*%
D32*
%TO.P,R21,1*%
%TO.N,Net-(D2-A)*%
X179825000Y-86900000D03*
%TO.P,R21,2*%
%TO.N,3.3V*%
X178175000Y-86900000D03*
%TD*%
D33*
%TO.P,SW1,1*%
%TO.N,Net-(SW1-Pad1)*%
X132000000Y-137600000D03*
%TO.P,SW1,2*%
%TO.N,EN*%
X132000000Y-142300000D03*
%TO.P,SW1,3*%
%TO.N,GND*%
X132000000Y-147000000D03*
%TD*%
D15*
%TO.P,R_ILIM_HIZ1,1*%
%TO.N,GND*%
X143780000Y-81850000D03*
%TO.P,R_ILIM_HIZ1,2*%
%TO.N,Net-(U1-ILIM_HIZ)*%
X143780000Y-82870000D03*
%TD*%
D34*
%TO.P,C22,1*%
%TO.N,DRV_SUP*%
X145830000Y-98625000D03*
%TO.P,C22,2*%
%TO.N,GND*%
X145830000Y-100175000D03*
%TD*%
D35*
%TO.P,C8,1*%
%TO.N,Net-(Q6-D_1)*%
X128010400Y-100725000D03*
%TO.P,C8,2*%
%TO.N,GND*%
X131769600Y-100725000D03*
%TD*%
D13*
%TO.P,C15,1*%
%TO.N,SRP*%
X139530000Y-92340000D03*
%TO.P,C15,2*%
%TO.N,SRN*%
X139530000Y-91380000D03*
%TD*%
D36*
%TO.P,R_AC3,1*%
%TO.N,/BQ25756E/ACOV*%
X157865000Y-85125000D03*
%TO.P,R_AC3,2*%
%TO.N,GND*%
X159515000Y-85125000D03*
%TD*%
D37*
%TO.P,R3,1*%
%TO.N,Net-(C10-Pad1)*%
X113600000Y-145800000D03*
%TO.P,R3,2*%
%TO.N,GND*%
X114240000Y-145800000D03*
%TD*%
D34*
%TO.P,C3,1*%
%TO.N,DRV_SUP*%
X148580000Y-98625000D03*
%TO.P,C3,2*%
%TO.N,GND*%
X148580000Y-100175000D03*
%TD*%
D15*
%TO.P,R24,1*%
%TO.N,GND*%
X135280000Y-85100000D03*
%TO.P,R24,2*%
%TO.N,TS*%
X135280000Y-86120000D03*
%TD*%
D32*
%TO.P,R22,1*%
%TO.N,Net-(D3-A)*%
X179825000Y-79900000D03*
%TO.P,R22,2*%
%TO.N,3.3V*%
X178175000Y-79900000D03*
%TD*%
D13*
%TO.P,C27,1*%
%TO.N,GND*%
X152530000Y-95110000D03*
%TO.P,C27,2*%
%TO.N,ACN*%
X152530000Y-94150000D03*
%TD*%
D38*
%TO.P,Q13,1*%
%TO.N,DIV*%
X169000000Y-128200000D03*
%TO.P,Q13,2*%
%TO.N,GND*%
X169000000Y-130030000D03*
%TO.P,Q13,3*%
%TO.N,Net-(Q13-Pad3)*%
X171050000Y-129115000D03*
%TD*%
D19*
%TO.P,C4,1*%
%TO.N,IN*%
X158600000Y-89320000D03*
%TO.P,C4,2*%
%TO.N,GND*%
X158600000Y-90280000D03*
%TD*%
D38*
%TO.P,Q12,1*%
%TO.N,DIV*%
X142800000Y-140600000D03*
%TO.P,Q12,2*%
%TO.N,GND*%
X142800000Y-142430000D03*
%TO.P,Q12,3*%
%TO.N,Net-(Q12-Pad3)*%
X144850000Y-141515000D03*
%TD*%
D21*
%TO.P,C9,1*%
%TO.N,Net-(C9-Pad1)*%
X189800000Y-63000000D03*
%TO.P,C9,2*%
%TO.N,GND*%
X188840000Y-63000000D03*
%TD*%
D22*
%TO.P,U4,1,S_1*%
%TO.N,Net-(R10-Pad1)*%
X162000000Y-129400000D03*
%TO.P,U4,2,S_2*%
X162000000Y-130060000D03*
%TO.P,U4,3,S_3*%
X162000000Y-130720000D03*
%TO.P,U4,4,G_4*%
%TO.N,Net-(U2-G)*%
X162000000Y-131380000D03*
D23*
%TO.P,U4,5,D_5*%
%TO.N,SYS_PIN*%
X164980000Y-131380000D03*
%TO.P,U4,6,D_6*%
X164980000Y-130720000D03*
%TO.P,U4,7,D_7*%
X164980000Y-130060000D03*
%TO.P,U4,8,D_8*%
X164980000Y-129400000D03*
D24*
%TO.P,U4,PAD*%
X163990000Y-130390000D03*
%TD*%
D39*
%TO.P,R_AC1,1*%
%TO.N,IN*%
X158690000Y-87325000D03*
%TO.P,R_AC1,2*%
%TO.N,/BQ25756E/ACUV*%
X158690000Y-86685000D03*
%TD*%
D20*
%TO.P,H3,1,1_1*%
%TO.N,Net-(C10-Pad1)*%
X109080000Y-145040000D03*
%TD*%
D40*
%TO.P,J4,1,Pin_1_1*%
%TO.N,3.3V*%
X183200000Y-98200000D03*
D41*
%TO.P,J4,2,Pin_2_2*%
%TO.N,GND*%
X183200000Y-95660000D03*
%TD*%
D18*
%TO.P,U11,1*%
%TO.N,Net-(SW1-Pad1)*%
X152000000Y-139200000D03*
%TO.P,U11,2*%
%TO.N,Net-(U10-Pad1)*%
X154387600Y-139200000D03*
%TD*%
D30*
%TO.P,R15,1*%
%TO.N,SOL_PIN*%
X180247701Y-127710000D03*
%TO.P,R15,2*%
%TO.N,Net-(U7-G)*%
X180247701Y-126690000D03*
%TD*%
D20*
%TO.P,H4,1,1_1*%
%TO.N,Net-(C1-Pad1)*%
X194810000Y-142500000D03*
%TD*%
D36*
%TO.P,R14,1*%
%TO.N,OUT*%
X137780000Y-89610000D03*
%TO.P,R14,2*%
%TO.N,SRN*%
X139430000Y-89610000D03*
%TD*%
D40*
%TO.P,J1,1,Pin_1_1*%
%TO.N,unconnected-(J1-Pin_1-Pad1)*%
X189730000Y-73920000D03*
D41*
%TO.P,J1,2,Pin_2_2*%
%TO.N,unconnected-(J1-Pin_2-Pad2)*%
X187190000Y-73920000D03*
%TO.P,J1,3,Pin_3_3*%
%TO.N,unconnected-(J1-Pin_3-Pad3)*%
X189730000Y-76460000D03*
%TO.P,J1,4,Pin_4_4*%
%TO.N,unconnected-(J1-Pin_4-Pad4)*%
X187190000Y-76460000D03*
%TO.P,J1,5,Pin_5_5*%
%TO.N,unconnected-(J1-Pin_5-Pad5)*%
X189730000Y-79000000D03*
%TO.P,J1,6,Pin_6_6*%
%TO.N,unconnected-(J1-Pin_6-Pad6)*%
X187190000Y-79000000D03*
%TO.P,J1,7,Pin_7_7*%
%TO.N,unconnected-(J1-Pin_7-Pad7)*%
X189730000Y-81540000D03*
%TO.P,J1,8,Pin_8_8*%
%TO.N,unconnected-(J1-Pin_8-Pad8)*%
X187190000Y-81540000D03*
%TO.P,J1,9,Pin_9_9*%
%TO.N,STAT_2*%
X189730000Y-84080000D03*
%TO.P,J1,10,Pin_10_10*%
%TO.N,PG*%
X187190000Y-84080000D03*
%TO.P,J1,11,Pin_11_11*%
%TO.N,unconnected-(J1-Pin_11-Pad11)*%
X189730000Y-86620000D03*
%TO.P,J1,12,Pin_12_12*%
%TO.N,INT*%
X187190000Y-86620000D03*
%TO.P,J1,13,Pin_13_13*%
%TO.N,unconnected-(J1-Pin_13-Pad13)*%
X189730000Y-89160000D03*
%TO.P,J1,14,Pin_14_14*%
%TO.N,STAT_1*%
X187190000Y-89160000D03*
%TO.P,J1,15,Pin_15_15*%
%TO.N,unconnected-(J1-Pin_15-Pad15)*%
X189730000Y-91700000D03*
%TO.P,J1,16,Pin_16_16*%
%TO.N,SDA*%
X187190000Y-91700000D03*
%TO.P,J1,17,Pin_17_17*%
%TO.N,unconnected-(J1-Pin_17-Pad17)*%
X189730000Y-94240000D03*
%TO.P,J1,18,Pin_18_18*%
%TO.N,SCL*%
X187190000Y-94240000D03*
%TO.P,J1,19,Pin_19_19*%
%TO.N,unconnected-(J1-Pin_19-Pad19)*%
X189730000Y-96780000D03*
%TO.P,J1,20,Pin_20_20*%
%TO.N,unconnected-(J1-Pin_20-Pad20)*%
X187190000Y-96780000D03*
%TO.P,J1,21,Pin_21_21*%
%TO.N,unconnected-(J1-Pin_21-Pad21)*%
X189730000Y-99320000D03*
%TO.P,J1,22,Pin_22_22*%
%TO.N,RS-485 SYS1 B*%
X187190000Y-99320000D03*
%TO.P,J1,23,Pin_23_23*%
%TO.N,unconnected-(J1-Pin_23-Pad23)*%
X189730000Y-101860000D03*
%TO.P,J1,24,Pin_24_24*%
%TO.N,RS-485 SYS1 B*%
X187190000Y-101860000D03*
%TO.P,J1,25,Pin_25_25*%
%TO.N,5V_PERM*%
X189730000Y-104400000D03*
%TO.P,J1,26,Pin_26_26*%
X187190000Y-104400000D03*
%TO.P,J1,27,Pin_27_27*%
%TO.N,unconnected-(J1-Pin_27-Pad27)*%
X189730000Y-106940000D03*
%TO.P,J1,28,Pin_28_28*%
%TO.N,unconnected-(J1-Pin_28-Pad28)*%
X187190000Y-106940000D03*
%TO.P,J1,29,Pin_29_29*%
%TO.N,unconnected-(J1-Pin_29-Pad29)*%
X189730000Y-109480000D03*
%TO.P,J1,30,Pin_30_30*%
%TO.N,unconnected-(J1-Pin_30-Pad30)*%
X187190000Y-109480000D03*
%TO.P,J1,31,Pin_31_31*%
%TO.N,unconnected-(J1-Pin_31-Pad31)*%
X189730000Y-112020000D03*
%TO.P,J1,32,Pin_32_32*%
%TO.N,unconnected-(J1-Pin_32-Pad32)*%
X187190000Y-112020000D03*
%TO.P,J1,33,Pin_33_33*%
%TO.N,GND*%
X189730000Y-114560000D03*
%TO.P,J1,34,Pin_34_34*%
X187190000Y-114560000D03*
%TO.P,J1,35,Pin_35_35*%
%TO.N,unconnected-(J1-Pin_35-Pad35)*%
X189730000Y-117100000D03*
%TO.P,J1,36,Pin_36_36*%
%TO.N,unconnected-(J1-Pin_36-Pad36)*%
X187190000Y-117100000D03*
%TO.P,J1,37,Pin_37_37*%
%TO.N,unconnected-(J1-Pin_37-Pad37)*%
X189730000Y-119640000D03*
%TO.P,J1,38,Pin_38_38*%
%TO.N,unconnected-(J1-Pin_38-Pad38)*%
X187190000Y-119640000D03*
%TO.P,J1,39,Pin_39_39*%
%TO.N,RS SYS2 Rx*%
X189730000Y-122180000D03*
%TO.P,J1,40,Pin_40_40*%
%TO.N,RS SYS2 Tx*%
X187190000Y-122180000D03*
%TO.P,J1,41,Pin_41_41*%
%TO.N,unconnected-(J1-Pin_41-Pad41)*%
X189730000Y-124720000D03*
%TO.P,J1,42,Pin_42_42*%
%TO.N,UART_RX*%
X187190000Y-124720000D03*
%TO.P,J1,43,Pin_43_43*%
%TO.N,unconnected-(J1-Pin_43-Pad43)*%
X189730000Y-127260000D03*
%TO.P,J1,44,Pin_44_44*%
%TO.N,UART_TX*%
X187190000Y-127260000D03*
%TO.P,J1,45,Pin_45_45*%
%TO.N,unconnected-(J1-Pin_45-Pad45)*%
X189730000Y-129800000D03*
%TO.P,J1,46,Pin_46_46*%
%TO.N,unconnected-(J1-Pin_46-Pad46)*%
X187190000Y-129800000D03*
%TO.P,J1,47,Pin_47_47*%
%TO.N,unconnected-(J1-Pin_47-Pad47)*%
X189730000Y-132340000D03*
%TO.P,J1,48,Pin_48_48*%
%TO.N,unconnected-(J1-Pin_48-Pad48)*%
X187190000Y-132340000D03*
%TO.P,J1,49,Pin_49_49*%
%TO.N,unconnected-(J1-Pin_49-Pad49)*%
X189730000Y-134880000D03*
%TO.P,J1,50,Pin_50_50*%
%TO.N,unconnected-(J1-Pin_50-Pad50)*%
X187190000Y-134880000D03*
%TO.P,J1,51,Pin_51_51*%
%TO.N,unconnected-(J1-Pin_51-Pad51)*%
X189730000Y-137420000D03*
%TO.P,J1,52,Pin_52_52*%
%TO.N,unconnected-(J1-Pin_52-Pad52)*%
X187190000Y-137420000D03*
%TD*%
D19*
%TO.P,C26,1*%
%TO.N,ACP*%
X155530000Y-92320000D03*
%TO.P,C26,2*%
%TO.N,ACN*%
X155530000Y-93280000D03*
%TD*%
D25*
%TO.P,Q6,1,S_1_1*%
%TO.N,SW2*%
X133690000Y-108335000D03*
%TO.P,Q6,2,S_2_2*%
X133690000Y-107065000D03*
%TO.P,Q6,3,S_3_3*%
X133690000Y-105795000D03*
%TO.P,Q6,4,G_4*%
%TO.N,HIDRV_2*%
X133690000Y-104525000D03*
D26*
%TO.P,Q6,5,D_1_5*%
%TO.N,Net-(Q6-D_1)*%
X128140000Y-104525000D03*
%TO.P,Q6,6,D_2_6*%
X128140000Y-105795000D03*
%TO.P,Q6,7,D_3_7*%
X128140000Y-107065000D03*
%TO.P,Q6,8,D_4_8*%
X128140000Y-108335000D03*
D27*
%TO.P,Q6,9,D_5_9*%
X130475000Y-106430000D03*
%TD*%
D42*
%TO.P,L1,1*%
%TO.N,SW1*%
X155045400Y-114800000D03*
%TO.P,L1,2*%
%TO.N,SW2*%
X139754600Y-114800000D03*
%TD*%
D43*
%TO.P,C6,1*%
%TO.N,Net-(C6-Pad1)*%
X160915000Y-92925000D03*
%TO.P,C6,2*%
%TO.N,GND*%
X162465000Y-92925000D03*
%TD*%
D36*
%TO.P,R12,1*%
%TO.N,Net-(Q6-D_1)*%
X137705000Y-94360000D03*
%TO.P,R12,2*%
%TO.N,SRP*%
X139355000Y-94360000D03*
%TD*%
D25*
%TO.P,Q7,1,S_1_1*%
%TO.N,GND*%
X164080000Y-116005000D03*
%TO.P,Q7,2,S_2_2*%
X164080000Y-114735000D03*
%TO.P,Q7,3,S_3_3*%
X164080000Y-113465000D03*
%TO.P,Q7,4,G_4*%
%TO.N,LODRV_1*%
X164080000Y-112195000D03*
D26*
%TO.P,Q7,5,D_1_5*%
%TO.N,SW1*%
X158530000Y-112195000D03*
%TO.P,Q7,6,D_2_6*%
X158530000Y-113465000D03*
%TO.P,Q7,7,D_3_7*%
X158530000Y-114735000D03*
%TO.P,Q7,8,D_4_8*%
X158530000Y-116005000D03*
D27*
%TO.P,Q7,9,D_5_9*%
X160865000Y-114100000D03*
%TD*%
D32*
%TO.P,R20,1*%
%TO.N,INT*%
X179825000Y-83900000D03*
%TO.P,R20,2*%
%TO.N,3.3V*%
X178175000Y-83900000D03*
%TD*%
D22*
%TO.P,U2,1,S_1*%
%TO.N,BATT+_PIN*%
X166784000Y-136764979D03*
%TO.P,U2,2,S_2*%
X166784000Y-136104979D03*
%TO.P,U2,3,S_3*%
X166784000Y-135444979D03*
%TO.P,U2,4,G_4*%
%TO.N,Net-(U2-G)*%
X166784000Y-134784979D03*
D23*
%TO.P,U2,5,D_5*%
%TO.N,OUT*%
X163804000Y-134784979D03*
%TO.P,U2,6,D_6*%
X163804000Y-135444979D03*
%TO.P,U2,7,D_7*%
X163804000Y-136104979D03*
%TO.P,U2,8,D_8*%
X163804000Y-136764979D03*
D24*
%TO.P,U2,PAD*%
X164794000Y-135774979D03*
%TD*%
D12*
%TO.P,D1,1,K_1*%
%TO.N,PG*%
X184187500Y-81100000D03*
%TO.P,D1,2,A_2*%
%TO.N,Net-(D1-A)*%
X182612500Y-81100000D03*
%TD*%
D44*
%TO.P,C20,1*%
%TO.N,SW2*%
X136210000Y-106325000D03*
%TO.P,C20,2*%
%TO.N,BTST_2*%
X137170000Y-106325000D03*
%TD*%
D40*
%TO.P,J20,1,Pin_1_1*%
%TO.N,SYS_PIN*%
X160250000Y-145500000D03*
D41*
%TO.P,J20,2,Pin_2_2*%
%TO.N,SOL_PIN*%
X157710000Y-145500000D03*
%TO.P,J20,3,Pin_3_3*%
%TO.N,GND*%
X155170000Y-145500000D03*
%TO.P,J20,4,Pin_4_4*%
X152630000Y-145500000D03*
%TO.P,J20,5,Pin_5_5*%
%TO.N,EN*%
X150090000Y-145500000D03*
%TO.P,J20,6,Pin_6_6*%
%TO.N,UART_RX*%
X147550000Y-145500000D03*
%TO.P,J20,7,Pin_7_7*%
%TO.N,UART_TX*%
X145010000Y-145500000D03*
%TO.P,J20,8,Pin_8_8*%
%TO.N,unconnected-(J20-Pin_8-Pad8)*%
X142470000Y-145500000D03*
%TD*%
D21*
%TO.P,C1,1*%
%TO.N,Net-(C1-Pad1)*%
X189460000Y-144000000D03*
%TO.P,C1,2*%
%TO.N,GND*%
X188500000Y-144000000D03*
%TD*%
D32*
%TO.P,R19,1*%
%TO.N,Net-(D1-A)*%
X179825000Y-76400000D03*
%TO.P,R19,2*%
%TO.N,3.3V*%
X178175000Y-76400000D03*
%TD*%
D22*
%TO.P,U3,1,S_1*%
%TO.N,OUT*%
X154200000Y-129420000D03*
%TO.P,U3,2,S_2*%
X154200000Y-130080000D03*
%TO.P,U3,3,S_3*%
X154200000Y-130740000D03*
%TO.P,U3,4,G_4*%
%TO.N,Net-(U2-G)*%
X154200000Y-131400000D03*
D23*
%TO.P,U3,5,D_5*%
%TO.N,Net-(R10-Pad1)*%
X157180000Y-131400000D03*
%TO.P,U3,6,D_6*%
X157180000Y-130740000D03*
%TO.P,U3,7,D_7*%
X157180000Y-130080000D03*
%TO.P,U3,8,D_8*%
X157180000Y-129420000D03*
D24*
%TO.P,U3,PAD*%
X156190000Y-130410000D03*
%TD*%
D37*
%TO.P,R5,1*%
%TO.N,Net-(C11-Pad1)*%
X113400000Y-65800000D03*
%TO.P,R5,2*%
%TO.N,GND*%
X114040000Y-65800000D03*
%TD*%
D44*
%TO.P,C10,1*%
%TO.N,Net-(C10-Pad1)*%
X113520000Y-142200000D03*
%TO.P,C10,2*%
%TO.N,GND*%
X114480000Y-142200000D03*
%TD*%
D45*
%TO.P,R2,1*%
%TO.N,Net-(C9-Pad1)*%
X189640000Y-66400000D03*
%TO.P,R2,2*%
%TO.N,GND*%
X189000000Y-66400000D03*
%TD*%
D20*
%TO.P,H8,1,1_1*%
%TO.N,Net-(C11-Pad1)*%
X109080000Y-65030000D03*
%TD*%
D46*
%TO.P,U1,1,SCL_1*%
%TO.N,SCL*%
X149580000Y-89910000D03*
%TO.P,U1,2,SDA_2*%
%TO.N,SDA*%
X149080000Y-89910000D03*
%TO.P,U1,3,~{INT}_3*%
%TO.N,INT*%
X148580000Y-89910000D03*
%TO.P,U1,4,STAT1_4*%
%TO.N,STAT_1*%
X148080000Y-89910000D03*
%TO.P,U1,5,STAT2_5*%
%TO.N,STAT_2*%
X147580000Y-89910000D03*
%TO.P,U1,6,~{PG}_6*%
%TO.N,PG*%
X147080000Y-89910000D03*
%TO.P,U1,7,~{CE}_7*%
%TO.N,GND*%
X146580000Y-89910000D03*
%TO.P,U1,8,TS_8*%
%TO.N,TS*%
X146080000Y-89910000D03*
%TO.P,U1,9,ICHG_9*%
%TO.N,Net-(U1-ICHG)*%
X145580000Y-89910000D03*
%TO.P,U1,10,ILIM_HIZ_10*%
%TO.N,Net-(U1-ILIM_HIZ)*%
X145080000Y-89910000D03*
D47*
%TO.P,U1,11,FBG_11*%
%TO.N,/BQ25756E/FBG*%
X144430000Y-90560000D03*
%TO.P,U1,12,FB_12*%
%TO.N,/BQ25756E/FB*%
X144430000Y-91060000D03*
%TO.P,U1,13,SRN_13*%
%TO.N,SRN*%
X144430000Y-91560000D03*
%TO.P,U1,14,SRP_14*%
%TO.N,SRP*%
X144430000Y-92060000D03*
%TO.P,U1,15,NC_15*%
%TO.N,unconnected-(U1-NC-Pad15)*%
X144430000Y-92560000D03*
%TO.P,U1,16,NC_16*%
%TO.N,unconnected-(U1-NC-Pad16)*%
X144430000Y-93060000D03*
%TO.P,U1,17,PGND_17*%
%TO.N,GND*%
X144430000Y-93560000D03*
%TO.P,U1,18,SW2_18*%
%TO.N,SW2*%
X144430000Y-94060000D03*
D46*
%TO.P,U1,19,HIDRV2_19*%
%TO.N,HIDRV_2*%
X145080000Y-94710000D03*
%TO.P,U1,20,BTST2_20*%
%TO.N,BTST_2*%
X145580000Y-94710000D03*
%TO.P,U1,21,LODRV2_21*%
%TO.N,LODRV_2*%
X146080000Y-94710000D03*
%TO.P,U1,22,PGND_22*%
%TO.N,GND*%
X146580000Y-94710000D03*
%TO.P,U1,23,DRV_SUP_23*%
%TO.N,DRV_SUP*%
X147080000Y-94710000D03*
%TO.P,U1,24,REGN_24*%
X147580000Y-94710000D03*
%TO.P,U1,25,LODRV1_25*%
%TO.N,LODRV_1*%
X148080000Y-94710000D03*
%TO.P,U1,26,BTST1_26*%
%TO.N,BTST_1*%
X148580000Y-94710000D03*
%TO.P,U1,27,HIDRV1_27*%
%TO.N,HIDRV_1*%
X149080000Y-94710000D03*
%TO.P,U1,28,SW1_28*%
%TO.N,SW1*%
X149580000Y-94710000D03*
D47*
%TO.P,U1,29,ACN_29*%
%TO.N,ACN*%
X150230000Y-94060000D03*
%TO.P,U1,30,ACP_30*%
%TO.N,ACP*%
X150230000Y-93560000D03*
%TO.P,U1,31,NC_31*%
%TO.N,unconnected-(U1-NC-Pad31)*%
X150230000Y-93060000D03*
%TO.P,U1,32,VAC_32*%
%TO.N,IN*%
X150230000Y-92560000D03*
%TO.P,U1,33,VAC_33*%
X150230000Y-92060000D03*
%TO.P,U1,34,ACUV_34*%
%TO.N,/BQ25756E/ACUV*%
X150230000Y-91560000D03*
%TO.P,U1,35,ACOV_35*%
%TO.N,/BQ25756E/ACOV*%
X150230000Y-91060000D03*
%TO.P,U1,36,FSW_SYNC_36*%
%TO.N,Net-(U1-FSW_SYNC)*%
X150230000Y-90560000D03*
D48*
%TO.P,U1,37,PGND_37*%
%TO.N,GND*%
X147330000Y-92310000D03*
D49*
%TO.P,U1,38*%
X149380000Y-91695000D03*
%TO.P,U1,39*%
X149380000Y-92925000D03*
%TO.P,U1,40*%
X148490000Y-90760000D03*
%TO.P,U1,41*%
X148490000Y-91695000D03*
%TO.P,U1,42*%
X148490000Y-92925000D03*
%TO.P,U1,43*%
X148490000Y-93860000D03*
%TO.P,U1,44*%
X147330000Y-90760000D03*
%TO.P,U1,45*%
X147330000Y-91695000D03*
%TO.P,U1,46*%
X147330000Y-92925000D03*
%TO.P,U1,47*%
X147330000Y-93860000D03*
%TO.P,U1,48*%
X146170000Y-90760000D03*
%TO.P,U1,49*%
X146170000Y-91695000D03*
%TO.P,U1,50*%
X146170000Y-92925000D03*
%TO.P,U1,51*%
X146170000Y-93860000D03*
%TO.P,U1,52*%
X145280000Y-91695000D03*
%TO.P,U1,53*%
X145280000Y-92925000D03*
%TD*%
D17*
%TO.P,C21,1*%
%TO.N,Net-(Q6-D_1)*%
X124890000Y-103325000D03*
%TO.P,C21,2*%
%TO.N,GND*%
X124890000Y-107084200D03*
%TD*%
%TO.P,C12,1*%
%TO.N,Net-(Q5-D_1)*%
X177090000Y-105645400D03*
%TO.P,C12,2*%
%TO.N,GND*%
X177090000Y-109404600D03*
%TD*%
D50*
%TO.P,C17,1*%
%TO.N,IN*%
X169362194Y-99925000D03*
%TO.P,C17,2*%
%TO.N,GND*%
X164017806Y-99925000D03*
%TD*%
D30*
%TO.P,R_FB1,1*%
%TO.N,BATT+_PIN*%
X138530000Y-86120000D03*
%TO.P,R_FB1,2*%
%TO.N,/BQ25756E/FB*%
X138530000Y-85100000D03*
%TD*%
D32*
%TO.P,R30,1*%
%TO.N,Net-(Q5-D_1)*%
X159355000Y-92360000D03*
%TO.P,R30,2*%
%TO.N,ACN*%
X157705000Y-92360000D03*
%TD*%
D34*
%TO.P,C7,1*%
%TO.N,IN*%
X164200000Y-89425000D03*
%TO.P,C7,2*%
%TO.N,GND*%
X164200000Y-90975000D03*
%TD*%
D40*
%TO.P,J12,1,Pin_1_1*%
%TO.N,unconnected-(J12-Pin_1-Pad1)*%
X194810000Y-73920000D03*
D41*
%TO.P,J12,2,Pin_2_2*%
%TO.N,unconnected-(J12-Pin_2-Pad2)*%
X192270000Y-73920000D03*
%TO.P,J12,3,Pin_3_3*%
%TO.N,unconnected-(J12-Pin_3-Pad3)*%
X194810000Y-76460000D03*
%TO.P,J12,4,Pin_4_4*%
%TO.N,unconnected-(J12-Pin_4-Pad4)*%
X192270000Y-76460000D03*
%TO.P,J12,5,Pin_5_5*%
%TO.N,unconnected-(J12-Pin_5-Pad5)*%
X194810000Y-79000000D03*
%TO.P,J12,6,Pin_6_6*%
%TO.N,unconnected-(J12-Pin_6-Pad6)*%
X192270000Y-79000000D03*
%TO.P,J12,7,Pin_7_7*%
%TO.N,unconnected-(J12-Pin_7-Pad7)*%
X194810000Y-81540000D03*
%TO.P,J12,8,Pin_8_8*%
%TO.N,unconnected-(J12-Pin_8-Pad8)*%
X192270000Y-81540000D03*
%TO.P,J12,9,Pin_9_9*%
%TO.N,unconnected-(J12-Pin_9-Pad9)*%
X194810000Y-84080000D03*
%TO.P,J12,10,Pin_10_10*%
%TO.N,unconnected-(J12-Pin_10-Pad10)*%
X192270000Y-84080000D03*
%TO.P,J12,11,Pin_11_11*%
%TO.N,unconnected-(J12-Pin_11-Pad11)*%
X194810000Y-86620000D03*
%TO.P,J12,12,Pin_12_12*%
%TO.N,unconnected-(J12-Pin_12-Pad12)*%
X192270000Y-86620000D03*
%TO.P,J12,13,Pin_13_13*%
%TO.N,unconnected-(J12-Pin_13-Pad13)*%
X194810000Y-89160000D03*
%TO.P,J12,14,Pin_14_14*%
%TO.N,unconnected-(J12-Pin_14-Pad14)*%
X192270000Y-89160000D03*
%TO.P,J12,15,Pin_15_15*%
%TO.N,unconnected-(J12-Pin_15-Pad15)*%
X194810000Y-91700000D03*
%TO.P,J12,16,Pin_16_16*%
%TO.N,unconnected-(J12-Pin_16-Pad16)*%
X192270000Y-91700000D03*
%TO.P,J12,17,Pin_17_17*%
%TO.N,unconnected-(J12-Pin_17-Pad17)*%
X194810000Y-94240000D03*
%TO.P,J12,18,Pin_18_18*%
%TO.N,unconnected-(J12-Pin_18-Pad18)*%
X192270000Y-94240000D03*
%TO.P,J12,19,Pin_19_19*%
%TO.N,unconnected-(J12-Pin_19-Pad19)*%
X194810000Y-96780000D03*
%TO.P,J12,20,Pin_20_20*%
%TO.N,unconnected-(J12-Pin_20-Pad20)*%
X192270000Y-96780000D03*
%TO.P,J12,21,Pin_21_21*%
%TO.N,unconnected-(J12-Pin_21-Pad21)*%
X194810000Y-99320000D03*
%TO.P,J12,22,Pin_22_22*%
%TO.N,unconnected-(J12-Pin_22-Pad22)*%
X192270000Y-99320000D03*
%TO.P,J12,23,Pin_23_23*%
%TO.N,12V*%
X194810000Y-101860000D03*
%TO.P,J12,24,Pin_24_24*%
X192270000Y-101860000D03*
%TO.P,J12,25,Pin_25_25*%
%TO.N,5V_PERM*%
X194810000Y-104400000D03*
%TO.P,J12,26,Pin_26_26*%
X192270000Y-104400000D03*
%TO.P,J12,27,Pin_27_27*%
%TO.N,3.3V*%
X194810000Y-106940000D03*
%TO.P,J12,28,Pin_28_28*%
X192270000Y-106940000D03*
%TO.P,J12,29,Pin_29_29*%
%TO.N,GND*%
X194810000Y-109480000D03*
%TO.P,J12,30,Pin_30_30*%
X192270000Y-109480000D03*
%TO.P,J12,31,Pin_31_31*%
X194810000Y-112020000D03*
%TO.P,J12,32,Pin_32_32*%
X192270000Y-112020000D03*
%TO.P,J12,33,Pin_33_33*%
%TO.N,unconnected-(J12-Pin_33-Pad33)*%
X194810000Y-114560000D03*
%TO.P,J12,34,Pin_34_34*%
%TO.N,unconnected-(J12-Pin_34-Pad34)*%
X192270000Y-114560000D03*
%TO.P,J12,35,Pin_35_35*%
%TO.N,unconnected-(J12-Pin_35-Pad35)*%
X194810000Y-117100000D03*
%TO.P,J12,36,Pin_36_36*%
%TO.N,unconnected-(J12-Pin_36-Pad36)*%
X192270000Y-117100000D03*
%TO.P,J12,37,Pin_37_37*%
%TO.N,unconnected-(J12-Pin_37-Pad37)*%
X194810000Y-119640000D03*
%TO.P,J12,38,Pin_38_38*%
%TO.N,unconnected-(J12-Pin_38-Pad38)*%
X192270000Y-119640000D03*
%TO.P,J12,39,Pin_39_39*%
%TO.N,unconnected-(J12-Pin_39-Pad39)*%
X194810000Y-122180000D03*
%TO.P,J12,40,Pin_40_40*%
%TO.N,unconnected-(J12-Pin_40-Pad40)*%
X192270000Y-122180000D03*
%TO.P,J12,41,Pin_41_41*%
%TO.N,unconnected-(J12-Pin_41-Pad41)*%
X194810000Y-124720000D03*
%TO.P,J12,42,Pin_42_42*%
%TO.N,unconnected-(J12-Pin_42-Pad42)*%
X192270000Y-124720000D03*
%TO.P,J12,43,Pin_43_43*%
%TO.N,SOL_PIN*%
X194810000Y-127260000D03*
%TO.P,J12,44,Pin_44_44*%
X192270000Y-127260000D03*
%TO.P,J12,45,Pin_45_45*%
%TO.N,BATT+_PIN*%
X194810000Y-129800000D03*
%TO.P,J12,46,Pin_46_46*%
%TO.N,SYS_PIN*%
X192270000Y-129800000D03*
%TO.P,J12,47,Pin_47_47*%
%TO.N,BATT-_PIN*%
X194810000Y-132340000D03*
%TO.P,J12,48,Pin_48_48*%
%TO.N,SYS_PIN*%
X192270000Y-132340000D03*
%TO.P,J12,49,Pin_49_49*%
%TO.N,RBF_A*%
X194810000Y-134880000D03*
%TO.P,J12,50,Pin_50_50*%
%TO.N,RBF_B*%
X192270000Y-134880000D03*
%TO.P,J12,51,Pin_51_51*%
%TO.N,DS_A*%
X194810000Y-137420000D03*
%TO.P,J12,52,Pin_52_52*%
%TO.N,DS_B*%
X192270000Y-137420000D03*
%TD*%
D32*
%TO.P,R16,1*%
%TO.N,SCL*%
X179575000Y-92900000D03*
%TO.P,R16,2*%
%TO.N,3.3V*%
X177925000Y-92900000D03*
%TD*%
D11*
%TO.P,R7,1*%
%TO.N,DIV*%
X138200000Y-145075000D03*
%TO.P,R7,2*%
%TO.N,GND*%
X138200000Y-148000000D03*
%TD*%
D25*
%TO.P,Q5,1,S_1_1*%
%TO.N,SW1*%
X164490000Y-104525000D03*
%TO.P,Q5,2,S_2_2*%
X164490000Y-105795000D03*
%TO.P,Q5,3,S_3_3*%
X164490000Y-107065000D03*
%TO.P,Q5,4,G_4*%
%TO.N,HIDRV_1*%
X164490000Y-108335000D03*
D26*
%TO.P,Q5,5,D_1_5*%
%TO.N,Net-(Q5-D_1)*%
X170040000Y-108335000D03*
%TO.P,Q5,6,D_2_6*%
X170040000Y-107065000D03*
%TO.P,Q5,7,D_3_7*%
X170040000Y-105795000D03*
%TO.P,Q5,8,D_4_8*%
X170040000Y-104525000D03*
D27*
%TO.P,Q5,9,D_5_9*%
X167705000Y-106430000D03*
%TD*%
D15*
%TO.P,R18,1*%
%TO.N,Net-(R18-Pad1)*%
X174400000Y-124200000D03*
%TO.P,R18,2*%
%TO.N,Net-(U7-G)*%
X174400000Y-125220000D03*
%TD*%
D51*
%TO.P,R13,1*%
%TO.N,Net-(U2-G)*%
X147200000Y-140487500D03*
%TO.P,R13,2*%
%TO.N,Net-(Q12-Pad3)*%
X147200000Y-142312500D03*
%TD*%
D45*
%TO.P,R1,1*%
%TO.N,Net-(C1-Pad1)*%
X191640000Y-146250000D03*
%TO.P,R1,2*%
%TO.N,GND*%
X191000000Y-146250000D03*
%TD*%
D52*
%TO.P,C24,1*%
%TO.N,Net-(Q6-D_1)*%
X120290000Y-103052806D03*
%TO.P,C24,2*%
%TO.N,GND*%
X120290000Y-108397194D03*
%TD*%
D53*
%TO.P,C23,1*%
%TO.N,IN*%
X153400000Y-90135000D03*
%TO.P,C23,2*%
%TO.N,GND*%
X153400000Y-90775000D03*
%TD*%
D52*
%TO.P,C13,1*%
%TO.N,Net-(Q5-D_1)*%
X170290000Y-112252806D03*
%TO.P,C13,2*%
%TO.N,GND*%
X170290000Y-117597194D03*
%TD*%
D54*
%TO.P,RT1,1*%
%TO.N,TS*%
X123160000Y-81525000D03*
%TO.P,RT1,2*%
%TO.N,GND*%
X120620000Y-81525000D03*
%TD*%
D50*
%TO.P,C18,1*%
%TO.N,OUT*%
X120200106Y-113200000D03*
%TO.P,C18,2*%
%TO.N,GND*%
X125544494Y-113200000D03*
%TD*%
D22*
%TO.P,U8,1,S_1*%
%TO.N,Net-(R18-Pad1)*%
X177270000Y-122610000D03*
%TO.P,U8,2,S_2*%
X177270000Y-123270000D03*
%TO.P,U8,3,S_3*%
X177270000Y-123930000D03*
%TO.P,U8,4,G_4*%
%TO.N,Net-(U7-G)*%
X177270000Y-124590000D03*
D23*
%TO.P,U8,5,D_5*%
%TO.N,IN*%
X180250000Y-124590000D03*
%TO.P,U8,6,D_6*%
X180250000Y-123930000D03*
%TO.P,U8,7,D_7*%
X180250000Y-123270000D03*
%TO.P,U8,8,D_8*%
X180250000Y-122610000D03*
D24*
%TO.P,U8,PAD*%
X179260000Y-123600000D03*
%TD*%
D32*
%TO.P,R_AC2,1*%
%TO.N,/BQ25756E/ACUV*%
X156115000Y-86525000D03*
%TO.P,R_AC2,2*%
%TO.N,/BQ25756E/ACOV*%
X154465000Y-86525000D03*
%TD*%
D21*
%TO.P,C25,1*%
%TO.N,GND*%
X153480000Y-93000000D03*
%TO.P,C25,2*%
%TO.N,ACP*%
X152520000Y-93000000D03*
%TD*%
D55*
%TO.P,R_FBG1,1*%
%TO.N,/BQ25756E/FB*%
X141780000Y-86435000D03*
%TO.P,R_FBG1,2*%
%TO.N,/BQ25756E/FBG*%
X141780000Y-84785000D03*
%TD*%
D44*
%TO.P,C11,1*%
%TO.N,Net-(C11-Pad1)*%
X113375000Y-62000000D03*
%TO.P,C11,2*%
%TO.N,GND*%
X114335000Y-62000000D03*
%TD*%
D56*
%TO.N,DIV*%
X148600000Y-137600000D03*
X166800000Y-131000000D03*
X139980761Y-143019239D03*
X147400000Y-138400000D03*
X141000000Y-142000000D03*
X173200000Y-142600000D03*
X161600000Y-136600000D03*
X175400000Y-142400000D03*
X165000000Y-138600000D03*
%TO.N,STAT_1*%
X183800000Y-87220000D03*
X183000000Y-86020000D03*
%TO.N,GND*%
X143400000Y-93000000D03*
X184400000Y-147600000D03*
X142000000Y-89400000D03*
X147200000Y-99600000D03*
X133200000Y-101000000D03*
X115600000Y-143000000D03*
X142400000Y-81600000D03*
X115400000Y-62200000D03*
X190400000Y-147400000D03*
X164000000Y-92600000D03*
X176400000Y-110600000D03*
X127000000Y-148000000D03*
X168200000Y-131200000D03*
X115000000Y-65400000D03*
X135800000Y-83200000D03*
X126600000Y-116600000D03*
X173800000Y-110600000D03*
X171400000Y-120000000D03*
X153600000Y-94000000D03*
X124400000Y-108200000D03*
X157400000Y-83800000D03*
X164400000Y-96800000D03*
X158200000Y-143000000D03*
X146480000Y-87600000D03*
X139800000Y-148200000D03*
X187200000Y-144200000D03*
X182800000Y-93600000D03*
X157400000Y-90800000D03*
X153400000Y-96000000D03*
X141400000Y-94400000D03*
X166400000Y-114800000D03*
X153800000Y-91455000D03*
X188000000Y-63400000D03*
X128400000Y-113000000D03*
X141600000Y-142800000D03*
X160400000Y-85200000D03*
X163200000Y-93800000D03*
X146480000Y-95800000D03*
X188000000Y-66600000D03*
X145000000Y-83400000D03*
X115400000Y-145200000D03*
X118890000Y-81725000D03*
X123000000Y-109600000D03*
%TO.N,Net-(U2-G)*%
X151400000Y-134400000D03*
X152800000Y-133000000D03*
X149800000Y-136800000D03*
X148000000Y-139000000D03*
%TO.N,DRV_SUP*%
X134650000Y-94860000D03*
X134600000Y-91800000D03*
X144744289Y-97394289D03*
X141500000Y-96200000D03*
%TO.N,SOL_PIN*%
X172600000Y-135400000D03*
X180400000Y-131000000D03*
%TO.N,TS*%
X141800000Y-88000000D03*
X145800000Y-88800000D03*
%TO.N,Net-(U7-G)*%
X176600000Y-125800000D03*
X175050000Y-125800000D03*
%TO.N,LODRV_2*%
X137200000Y-113800000D03*
X137200000Y-115800000D03*
%TO.N,SW2*%
X136519265Y-104119265D03*
X136370735Y-102570735D03*
%TO.N,3.3V*%
X176800000Y-89900000D03*
X176200000Y-92050000D03*
X176400000Y-80700000D03*
X177050000Y-84900000D03*
%TO.N,STAT_2*%
X182000000Y-83200000D03*
X183600000Y-83200000D03*
%TO.N,SYS_PIN*%
X174800000Y-135600000D03*
X177400000Y-133000000D03*
%TO.N,UART_RX*%
X148650000Y-128250000D03*
X180900000Y-121050000D03*
X179007402Y-120782076D03*
X145400000Y-136850000D03*
X145450000Y-144150000D03*
X146850000Y-130200000D03*
%TO.N,UART_TX*%
X178850000Y-120100000D03*
X144250000Y-144150000D03*
X144300000Y-136850000D03*
X145550000Y-130300000D03*
X180950000Y-120150000D03*
X147650000Y-128150000D03*
%TO.N,LODRV_1*%
X162000000Y-110600000D03*
X160000000Y-109800000D03*
%TO.N,HIDRV_1*%
X162200000Y-107400000D03*
X163461397Y-108861397D03*
%TD*%
%TO.N,OUT*%
D57*
X162800000Y-134800000D02*
X153200000Y-134800000D01*
D58*
X154117298Y-130699972D02*
X154117298Y-130049986D01*
D59*
X123152500Y-93800000D02*
X133590000Y-93800000D01*
D58*
X152200000Y-130890000D02*
X152390028Y-130699972D01*
D57*
X117790804Y-113600000D02*
X117790804Y-116190804D01*
X118427500Y-98525000D02*
X117790804Y-99161696D01*
X147800000Y-129400000D02*
X154117298Y-129400000D01*
X119800106Y-113600000D02*
X120200106Y-113200000D01*
X153200000Y-134800000D02*
X147800000Y-129400000D01*
D58*
X163631500Y-134800000D02*
X163631500Y-134784979D01*
D60*
X162815021Y-134784979D02*
X163804000Y-134784979D01*
D59*
X118427500Y-98525000D02*
X123152500Y-93800000D01*
D58*
X154117298Y-129400000D02*
X154117298Y-130049986D01*
D57*
X117790804Y-99161696D02*
X117790804Y-113000000D01*
D58*
X152390028Y-130699972D02*
X154117298Y-130699972D01*
D57*
X117790804Y-113600000D02*
X119800106Y-113600000D01*
X117790804Y-116190804D02*
X131000000Y-129400000D01*
X117790804Y-113000000D02*
X117790804Y-113600000D01*
D59*
X133590000Y-93800000D02*
X137780000Y-89610000D01*
D60*
X162800000Y-134800000D02*
X162815021Y-134784979D01*
D57*
X131000000Y-129400000D02*
X147800000Y-129400000D01*
%TO.N,Net-(Q6-D_1)*%
X128140000Y-104525000D02*
X126870200Y-103255200D01*
X127940600Y-102184800D02*
X127940600Y-100725000D01*
X126870200Y-103255200D02*
X124890000Y-103255200D01*
D59*
X137705000Y-94360000D02*
X132778400Y-94360000D01*
X132778400Y-94360000D02*
X128010400Y-99128000D01*
D57*
X120290000Y-102710920D02*
X121425112Y-101575808D01*
X121425112Y-101575808D02*
X123210608Y-101575808D01*
X120290000Y-103052806D02*
X120290000Y-102710920D01*
X126870200Y-103255200D02*
X127940600Y-102184800D01*
D59*
X128010400Y-99128000D02*
X128010400Y-100725000D01*
D57*
X123210608Y-101575808D02*
X124890000Y-103255200D01*
X120290000Y-99587500D02*
X120290000Y-103052806D01*
X121352500Y-98525000D02*
X120290000Y-99587500D01*
%TO.N,EN*%
D59*
X139625000Y-141744239D02*
X141530761Y-143650000D01*
X141530761Y-143650000D02*
X148240000Y-143650000D01*
X135162500Y-139137500D02*
X132000000Y-142300000D01*
D61*
X139625000Y-141744239D02*
X139625000Y-140362500D01*
D59*
X148240000Y-143650000D02*
X150090000Y-145500000D01*
X138400000Y-139137500D02*
X135162500Y-139137500D01*
D61*
X139625000Y-140362500D02*
X138400000Y-139137500D01*
%TO.N,DIV*%
D59*
X166800000Y-130400000D02*
X169000000Y-128200000D01*
X166800000Y-131000000D02*
X166800000Y-130400000D01*
X145200000Y-140600000D02*
X147400000Y-138400000D01*
X141800000Y-141600000D02*
X142800000Y-140600000D01*
X174705000Y-148505000D02*
X177151700Y-148505000D01*
X175400000Y-142400000D02*
X177151700Y-142400000D01*
X138400000Y-142062500D02*
X139024022Y-142062500D01*
X138400000Y-142062500D02*
X138400000Y-144875000D01*
X160600000Y-137600000D02*
X161600000Y-136600000D01*
X173200000Y-147000000D02*
X174705000Y-148505000D01*
X173200000Y-142600000D02*
X173200000Y-147000000D01*
X148600000Y-137600000D02*
X160600000Y-137600000D01*
X142800000Y-140600000D02*
X145200000Y-140600000D01*
X139024022Y-142062500D02*
X139980761Y-143019239D01*
X161600000Y-136600000D02*
X163600000Y-138600000D01*
X141000000Y-142000000D02*
X141400000Y-141600000D01*
X141400000Y-141600000D02*
X141800000Y-141600000D01*
X163600000Y-138600000D02*
X165000000Y-138600000D01*
X138400000Y-144875000D02*
X138200000Y-145075000D01*
%TO.N,STAT_1*%
X153890296Y-82000000D02*
X179112648Y-82000000D01*
X181845343Y-85047529D02*
X182817814Y-86020000D01*
X186630000Y-88600000D02*
X187190000Y-89160000D01*
X181845343Y-84732695D02*
X181845343Y-85047529D01*
X183800000Y-87220000D02*
X183800000Y-88212500D01*
X184187500Y-88600000D02*
X186630000Y-88600000D01*
X182817814Y-86020000D02*
X183000000Y-86020000D01*
X148080000Y-87810296D02*
X153890296Y-82000000D01*
X179112648Y-82000000D02*
X181845343Y-84732695D01*
X148080000Y-89910000D02*
X148080000Y-87810296D01*
X183800000Y-88212500D02*
X184187500Y-88600000D01*
%TO.N,Net-(D2-A)*%
X180912500Y-86900000D02*
X182612500Y-88600000D01*
X179825000Y-86900000D02*
X180912500Y-86900000D01*
%TO.N,GND*%
X142030000Y-90380000D02*
X142030000Y-89430000D01*
D57*
X155170000Y-145500000D02*
X157670000Y-143000000D01*
D59*
X162465000Y-92925000D02*
X162465000Y-93065000D01*
D60*
X173290000Y-109404600D02*
X173290000Y-110090000D01*
X122875808Y-109724192D02*
X123000000Y-109600000D01*
D59*
X169000000Y-130030000D02*
X169000000Y-130400000D01*
X144430000Y-93560000D02*
X143960000Y-93560000D01*
D60*
X170290000Y-118890000D02*
X171400000Y-120000000D01*
D59*
X142800000Y-142430000D02*
X141970000Y-142430000D01*
D57*
X164080000Y-113465000D02*
X164080000Y-114735000D01*
D60*
X163613058Y-96800000D02*
X164400000Y-96800000D01*
X177090000Y-109404600D02*
X177090000Y-109910000D01*
D59*
X114600000Y-65800000D02*
X115000000Y-65400000D01*
X146580000Y-94710000D02*
X146580000Y-95700000D01*
D57*
X127021492Y-116178508D02*
X126600000Y-116600000D01*
D59*
X153480000Y-93000000D02*
X153480000Y-93880000D01*
X142030000Y-89430000D02*
X142000000Y-89400000D01*
X189000000Y-66400000D02*
X188200000Y-66400000D01*
D57*
X125544494Y-113200000D02*
X125886380Y-113200000D01*
D59*
X192270000Y-112020000D02*
X194810000Y-112020000D01*
X187400000Y-144000000D02*
X187200000Y-144200000D01*
D60*
X182600000Y-147235000D02*
X182600000Y-145965000D01*
D57*
X152630000Y-145500000D02*
X155170000Y-145500000D01*
D60*
X121487244Y-109724192D02*
X122875808Y-109724192D01*
D59*
X153400000Y-91055000D02*
X153800000Y-91455000D01*
X114335000Y-62000000D02*
X115200000Y-62000000D01*
D57*
X130580000Y-113405000D02*
X128805000Y-113405000D01*
D59*
X183200000Y-95660000D02*
X183200000Y-94000000D01*
D57*
X157670000Y-143000000D02*
X158200000Y-143000000D01*
D59*
X153400000Y-90775000D02*
X153400000Y-91055000D01*
X188840000Y-63000000D02*
X188400000Y-63000000D01*
X183200000Y-94000000D02*
X182800000Y-93600000D01*
X192270000Y-112020000D02*
X189730000Y-114560000D01*
X142030000Y-93770000D02*
X141400000Y-94400000D01*
X145030000Y-84785000D02*
X145030000Y-83430000D01*
X152530000Y-95130000D02*
X153400000Y-96000000D01*
X146580000Y-89910000D02*
X146580000Y-87700000D01*
D57*
X127021492Y-114335112D02*
X127021492Y-116178508D01*
D59*
X120620000Y-81525000D02*
X119090000Y-81525000D01*
X135280000Y-85100000D02*
X135280000Y-83720000D01*
X147775000Y-100175000D02*
X147200000Y-99600000D01*
D57*
X130580000Y-112135000D02*
X130580000Y-113405000D01*
D60*
X124890000Y-107710000D02*
X124400000Y-108200000D01*
D59*
X194810000Y-112020000D02*
X194810000Y-109480000D01*
X142650000Y-81850000D02*
X142400000Y-81600000D01*
D60*
X120290000Y-108397194D02*
X120290000Y-108526948D01*
X177090000Y-109910000D02*
X176400000Y-110600000D01*
X132925000Y-100725000D02*
X133200000Y-101000000D01*
D59*
X146580000Y-87700000D02*
X146480000Y-87600000D01*
X159515000Y-85125000D02*
X160325000Y-85125000D01*
X188200000Y-66400000D02*
X188000000Y-66600000D01*
X135280000Y-83720000D02*
X135800000Y-83200000D01*
X143780000Y-81850000D02*
X142650000Y-81850000D01*
X148580000Y-100175000D02*
X147775000Y-100175000D01*
D58*
X132000000Y-147000000D02*
X128000000Y-147000000D01*
D59*
X162465000Y-93065000D02*
X163200000Y-93800000D01*
X142030000Y-93590000D02*
X142030000Y-93770000D01*
X191000000Y-146800000D02*
X190400000Y-147400000D01*
D60*
X170290000Y-117597194D02*
X170290000Y-118890000D01*
D59*
X119090000Y-81525000D02*
X118890000Y-81725000D01*
X114800000Y-145800000D02*
X115400000Y-145200000D01*
X169000000Y-130400000D02*
X168200000Y-131200000D01*
D58*
X128000000Y-147000000D02*
X127000000Y-148000000D01*
D60*
X182600000Y-148505000D02*
X182600000Y-147235000D01*
D59*
X160325000Y-85125000D02*
X160400000Y-85200000D01*
X189730000Y-114560000D02*
X187190000Y-114560000D01*
X114040000Y-65800000D02*
X114600000Y-65800000D01*
X192270000Y-109480000D02*
X192270000Y-112020000D01*
D60*
X184035000Y-147235000D02*
X184400000Y-147600000D01*
D57*
X130580000Y-113405000D02*
X130580000Y-114675000D01*
D59*
X143780000Y-81850000D02*
X143780000Y-81620000D01*
X152530000Y-95110000D02*
X152530000Y-95130000D01*
X146625000Y-100175000D02*
X147200000Y-99600000D01*
X114800000Y-142200000D02*
X115600000Y-143000000D01*
D60*
X173290000Y-110090000D02*
X173800000Y-110600000D01*
D59*
X191000000Y-146250000D02*
X191000000Y-146800000D01*
X157920000Y-90280000D02*
X157400000Y-90800000D01*
X145030000Y-83430000D02*
X145000000Y-83400000D01*
X114480000Y-142200000D02*
X114800000Y-142200000D01*
X143960000Y-93560000D02*
X143400000Y-93000000D01*
D57*
X128805000Y-113405000D02*
X128400000Y-113000000D01*
D60*
X182600000Y-144695000D02*
X182600000Y-145965000D01*
D59*
X138200000Y-148000000D02*
X139600000Y-148000000D01*
X145830000Y-100175000D02*
X146625000Y-100175000D01*
D57*
X164080000Y-116005000D02*
X164080000Y-114735000D01*
X125886380Y-113200000D02*
X127021492Y-114335112D01*
D60*
X182600000Y-147235000D02*
X184035000Y-147235000D01*
D59*
X157000000Y-84200000D02*
X157400000Y-83800000D01*
X164200000Y-90975000D02*
X164200000Y-92400000D01*
D60*
X163888052Y-99925000D02*
X162690808Y-98727756D01*
D59*
X115200000Y-62000000D02*
X115400000Y-62200000D01*
X114240000Y-145800000D02*
X114800000Y-145800000D01*
D60*
X124890000Y-107084200D02*
X124890000Y-107710000D01*
D59*
X188400000Y-63000000D02*
X188000000Y-63400000D01*
D60*
X162690808Y-98727756D02*
X162690808Y-97722250D01*
D57*
X166335000Y-114735000D02*
X166400000Y-114800000D01*
D59*
X156225000Y-84200000D02*
X157000000Y-84200000D01*
X139600000Y-148000000D02*
X139800000Y-148200000D01*
D60*
X164017806Y-99925000D02*
X163888052Y-99925000D01*
D59*
X192270000Y-109480000D02*
X194810000Y-109480000D01*
D60*
X120290000Y-108526948D02*
X121487244Y-109724192D01*
D57*
X164080000Y-114735000D02*
X166335000Y-114735000D01*
D59*
X188500000Y-144000000D02*
X187400000Y-144000000D01*
D60*
X162690808Y-97722250D02*
X163613058Y-96800000D01*
D59*
X143780000Y-81620000D02*
X143800000Y-81600000D01*
X153480000Y-93880000D02*
X153600000Y-94000000D01*
X158600000Y-90280000D02*
X157920000Y-90280000D01*
X146580000Y-95700000D02*
X146480000Y-95800000D01*
X141970000Y-142430000D02*
X141600000Y-142800000D01*
X164200000Y-92400000D02*
X164000000Y-92600000D01*
D60*
X131769600Y-100725000D02*
X132925000Y-100725000D01*
%TO.N,SRP*%
D59*
X144430000Y-92060000D02*
X142600000Y-92060000D01*
X139355000Y-94360000D02*
X139355000Y-92515000D01*
X142600000Y-92060000D02*
X142030000Y-92630000D01*
X142030000Y-92630000D02*
X139820000Y-92630000D01*
X139355000Y-92515000D02*
X139530000Y-92340000D01*
X139820000Y-92630000D02*
X139530000Y-92340000D01*
%TO.N,IN*%
D60*
X161000000Y-89375000D02*
X158655000Y-89375000D01*
D57*
X171600000Y-100000000D02*
X169437194Y-100000000D01*
D60*
X171000000Y-97972500D02*
X173890000Y-100862500D01*
X155600000Y-89350000D02*
X153050000Y-89350000D01*
D57*
X179847701Y-122625021D02*
X179847701Y-104847701D01*
X169437194Y-100000000D02*
X169362194Y-99925000D01*
D60*
X153050000Y-89350000D02*
X152000000Y-90400000D01*
D57*
X172462500Y-100862500D02*
X171600000Y-100000000D01*
D60*
X164200000Y-89425000D02*
X161050000Y-89425000D01*
X164200000Y-89425000D02*
X171000000Y-96225000D01*
X150688492Y-92135000D02*
X150230000Y-92135000D01*
X152000000Y-91800000D02*
X151665000Y-92135000D01*
X158600000Y-89320000D02*
X155630000Y-89320000D01*
X150655000Y-92135000D02*
X150305000Y-92485000D01*
X171000000Y-96225000D02*
X171000000Y-97972500D01*
D57*
X175862500Y-100862500D02*
X173890000Y-100862500D01*
D60*
X150688492Y-92135000D02*
X150655000Y-92135000D01*
D57*
X173827500Y-100925000D02*
X173890000Y-100862500D01*
X173890000Y-100862500D02*
X172462500Y-100862500D01*
D59*
X158690000Y-87325000D02*
X158690000Y-89230000D01*
D60*
X151665000Y-92135000D02*
X150688492Y-92135000D01*
X152000000Y-90400000D02*
X152000000Y-91800000D01*
X158655000Y-89375000D02*
X158600000Y-89320000D01*
D59*
X153400000Y-90135000D02*
X153400000Y-89700000D01*
D60*
X161050000Y-89425000D02*
X161000000Y-89375000D01*
D59*
X158690000Y-89230000D02*
X158600000Y-89320000D01*
D57*
X179847701Y-104847701D02*
X175862500Y-100862500D01*
D59*
X153400000Y-89700000D02*
X153050000Y-89350000D01*
D60*
X155630000Y-89320000D02*
X155600000Y-89350000D01*
%TO.N,Net-(C6-Pad1)*%
D59*
X160915000Y-92925000D02*
X160915000Y-91110000D01*
X160915000Y-91110000D02*
X161000000Y-91025000D01*
%TO.N,Net-(U2-G)*%
D61*
X168290000Y-134800000D02*
X168800000Y-134290000D01*
X166784000Y-134784979D02*
X166784000Y-134457647D01*
D59*
X147200000Y-139800000D02*
X148000000Y-139000000D01*
X149800000Y-136800000D02*
X151400000Y-135200000D01*
X152800000Y-133000000D02*
X152800000Y-131910000D01*
D58*
X152800000Y-131910000D02*
X152200000Y-131910000D01*
D61*
X167082702Y-134800000D02*
X168290000Y-134800000D01*
D59*
X159800000Y-132600000D02*
X154247256Y-132600000D01*
D61*
X166784000Y-134457647D02*
X164517353Y-132191000D01*
X162301000Y-132191000D02*
X162000000Y-131890000D01*
X164517353Y-132191000D02*
X162301000Y-132191000D01*
X160600000Y-131910000D02*
X161239958Y-131910000D01*
D58*
X153557256Y-131910000D02*
X152800000Y-131910000D01*
D59*
X147200000Y-140487500D02*
X147200000Y-139800000D01*
D58*
X154117298Y-131349958D02*
X153557256Y-131910000D01*
D59*
X160600000Y-131910000D02*
X160490000Y-131910000D01*
X160490000Y-131910000D02*
X159800000Y-132600000D01*
X154247256Y-132600000D02*
X153557256Y-131910000D01*
D61*
X161239958Y-131910000D02*
X161800000Y-131349958D01*
D59*
X151400000Y-135200000D02*
X151400000Y-134400000D01*
D61*
X162000000Y-131890000D02*
X162000000Y-131380000D01*
%TO.N,DRV_SUP*%
D59*
X151015000Y-103325000D02*
X151015000Y-101060000D01*
X144455000Y-100000000D02*
X145830000Y-98625000D01*
X147080000Y-97375000D02*
X145830000Y-98625000D01*
X144763578Y-97375000D02*
X144744289Y-97394289D01*
X135990000Y-96200000D02*
X134650000Y-94860000D01*
X147080000Y-97375000D02*
X144763578Y-97375000D01*
X134600000Y-91800000D02*
X135000000Y-91400000D01*
X147080000Y-94710000D02*
X147080000Y-97375000D01*
X151015000Y-101060000D02*
X148580000Y-98625000D01*
X144455000Y-103325000D02*
X144455000Y-100000000D01*
X135000000Y-91400000D02*
X135000000Y-89400000D01*
X148580000Y-98625000D02*
X147330000Y-97375000D01*
X147330000Y-97375000D02*
X147080000Y-97375000D01*
X141500000Y-96200000D02*
X135990000Y-96200000D01*
X147080000Y-94710000D02*
X147580000Y-94710000D01*
%TO.N,BTST_2*%
X145580000Y-94710000D02*
X145580000Y-95031360D01*
X140125000Y-103370000D02*
X137170000Y-106325000D01*
X140125000Y-100486360D02*
X140125000Y-103325000D01*
X140125000Y-103325000D02*
X140125000Y-103370000D01*
X145580000Y-95031360D02*
X140125000Y-100486360D01*
%TO.N,Net-(Q5-D_1)*%
D60*
X170290000Y-112252806D02*
X170290000Y-108585000D01*
D57*
X173890000Y-103787500D02*
X175301900Y-103787500D01*
X175301900Y-103787500D02*
X177090000Y-105575600D01*
D59*
X159355000Y-98579810D02*
X163975190Y-103200000D01*
D57*
X173890000Y-103787500D02*
X173152500Y-104525000D01*
D59*
X173302500Y-103200000D02*
X173890000Y-103787500D01*
D60*
X170290000Y-108585000D02*
X170040000Y-108335000D01*
D59*
X159355000Y-92360000D02*
X159355000Y-98579810D01*
X163975190Y-103200000D02*
X173302500Y-103200000D01*
X173890000Y-103787500D02*
X173401300Y-104276200D01*
D57*
X173152500Y-104525000D02*
X170040000Y-104525000D01*
X173290000Y-104387500D02*
X173290000Y-105575600D01*
X173890000Y-103787500D02*
X173290000Y-104387500D01*
%TO.N,Net-(U10-Pad1)*%
D59*
X154387600Y-139200000D02*
X157000000Y-139200000D01*
%TO.N,BATT+_PIN*%
X179978334Y-74800000D02*
X147891076Y-74800000D01*
X166349958Y-139200000D02*
X159387600Y-139200000D01*
D58*
X168660014Y-135449986D02*
X167082702Y-135449986D01*
D59*
X184925000Y-81249314D02*
X184925000Y-79746666D01*
D60*
X167800000Y-136749958D02*
X168800000Y-136749958D01*
D59*
X194810000Y-129800000D02*
X195960000Y-128650000D01*
X147891076Y-74800000D02*
X137910000Y-84781076D01*
D58*
X193560000Y-132857767D02*
X192787767Y-133630000D01*
D59*
X168800000Y-136749958D02*
X166349958Y-139200000D01*
D58*
X193560000Y-131050000D02*
X193560000Y-132857767D01*
D59*
X186365686Y-82690000D02*
X184925000Y-81249314D01*
X195046346Y-82690000D02*
X186365686Y-82690000D01*
D58*
X194810000Y-129800000D02*
X193560000Y-131050000D01*
D60*
X168800000Y-136749958D02*
X169949958Y-136749958D01*
X172499916Y-134200000D02*
X169949958Y-136749958D01*
D58*
X168800000Y-135310000D02*
X168660014Y-135449986D01*
D60*
X167082702Y-136749958D02*
X167800000Y-136749958D01*
X167082702Y-136099972D02*
X167082702Y-136749958D01*
X185000000Y-134200000D02*
X172499916Y-134200000D01*
D59*
X137910000Y-84781076D02*
X137910000Y-85500000D01*
X137910000Y-85500000D02*
X138530000Y-86120000D01*
X184925000Y-79746666D02*
X179978334Y-74800000D01*
D58*
X192787767Y-133630000D02*
X185570000Y-133630000D01*
D59*
X195960000Y-128650000D02*
X195960000Y-83603654D01*
D58*
X185570000Y-133630000D02*
X185000000Y-134200000D01*
D60*
X167082702Y-135449986D02*
X167082702Y-136099972D01*
D59*
X195960000Y-83603654D02*
X195046346Y-82690000D01*
%TO.N,Net-(SW1-Pad1)*%
X151800000Y-141800000D02*
X149200000Y-139200000D01*
X154406200Y-141800000D02*
X151800000Y-141800000D01*
X152000000Y-139200000D02*
X149200000Y-139200000D01*
X149200000Y-139200000D02*
X147600000Y-137600000D01*
X147600000Y-137600000D02*
X132000000Y-137600000D01*
%TO.N,SOL_PIN*%
D60*
X184800000Y-128600000D02*
X182000000Y-128600000D01*
D58*
X191010000Y-128520000D02*
X184880000Y-128520000D01*
D60*
X181137701Y-128600000D02*
X181057701Y-128520000D01*
D58*
X180247701Y-127710000D02*
X179707715Y-128249986D01*
D60*
X182000000Y-128600000D02*
X180400000Y-130200000D01*
D59*
X156793800Y-141800000D02*
X161000000Y-141800000D01*
D58*
X181057701Y-128520000D02*
X180247701Y-127710000D01*
D60*
X182000000Y-128600000D02*
X181137701Y-128600000D01*
D58*
X179707715Y-128249986D02*
X179082702Y-128249986D01*
D57*
X194810000Y-127260000D02*
X192270000Y-127260000D01*
D60*
X166000000Y-142000000D02*
X161200000Y-142000000D01*
X161200000Y-142010000D02*
X157710000Y-145500000D01*
X180400000Y-130200000D02*
X180400000Y-131000000D01*
D58*
X179082702Y-129549958D02*
X179082702Y-128899972D01*
D60*
X161200000Y-142000000D02*
X161200000Y-142010000D01*
D59*
X161000000Y-141800000D02*
X161200000Y-142000000D01*
D58*
X179082702Y-128249986D02*
X179082702Y-128899972D01*
X184880000Y-128520000D02*
X184800000Y-128600000D01*
X192270000Y-127260000D02*
X191010000Y-128520000D01*
D60*
X172600000Y-135400000D02*
X166000000Y-142000000D01*
%TO.N,SRN*%
D59*
X142030000Y-91340000D02*
X141740000Y-91340000D01*
X141740000Y-91340000D02*
X141700000Y-91380000D01*
X142250000Y-91560000D02*
X142030000Y-91340000D01*
X144430000Y-91560000D02*
X142250000Y-91560000D01*
X141700000Y-91380000D02*
X139530000Y-91380000D01*
X139430000Y-89610000D02*
X139430000Y-91280000D01*
X139430000Y-91280000D02*
X139530000Y-91380000D01*
%TO.N,Net-(C9-Pad1)*%
X194810000Y-65030000D02*
X192780000Y-63000000D01*
X193440000Y-66400000D02*
X194810000Y-65030000D01*
X189640000Y-66400000D02*
X193440000Y-66400000D01*
X192780000Y-63000000D02*
X189800000Y-63000000D01*
%TO.N,BTST_1*%
X159120000Y-107600000D02*
X159120000Y-107100000D01*
X148580000Y-95180000D02*
X155345000Y-101945000D01*
X148580000Y-94710000D02*
X148580000Y-95180000D01*
X159120000Y-107100000D02*
X155345000Y-103325000D01*
X155345000Y-101945000D02*
X155345000Y-103325000D01*
X148600000Y-94730000D02*
X148580000Y-94710000D01*
%TO.N,SW1*%
D57*
X160865000Y-114100000D02*
X160865000Y-110185000D01*
D59*
X150358529Y-94710000D02*
X160173529Y-104525000D01*
D57*
X164490000Y-107065000D02*
X164490000Y-105795000D01*
X161625000Y-109425000D02*
X161925000Y-109125000D01*
X160865000Y-114100000D02*
X155745400Y-114100000D01*
D61*
X160400000Y-107600000D02*
X160080000Y-107600000D01*
D59*
X160173529Y-104525000D02*
X164490000Y-104525000D01*
D61*
X161925000Y-109125000D02*
X160400000Y-107600000D01*
D59*
X149580000Y-94710000D02*
X150358529Y-94710000D01*
D57*
X161925000Y-109125000D02*
X163985000Y-107065000D01*
X160865000Y-110185000D02*
X161625000Y-109425000D01*
X164490000Y-105795000D02*
X164490000Y-104525000D01*
X155745400Y-114100000D02*
X155045400Y-114800000D01*
X163985000Y-107065000D02*
X164490000Y-107065000D01*
%TO.N,TS*%
D59*
X141800000Y-88000000D02*
X141550000Y-87750000D01*
X146080000Y-89080000D02*
X145800000Y-88800000D01*
X123160000Y-81525000D02*
X127755000Y-86120000D01*
X135000000Y-87750000D02*
X135000000Y-86400000D01*
X141550000Y-87750000D02*
X135000000Y-87750000D01*
X146080000Y-89910000D02*
X146080000Y-89080000D01*
X127755000Y-86120000D02*
X135280000Y-86120000D01*
X135000000Y-86400000D02*
X135280000Y-86120000D01*
%TO.N,Net-(U7-G)*%
X176600000Y-125800000D02*
X176600000Y-124939978D01*
X172850000Y-127915000D02*
X172850000Y-126770000D01*
D58*
X179992702Y-126690000D02*
X180247701Y-126690000D01*
D59*
X174470000Y-125220000D02*
X175050000Y-125800000D01*
X177282702Y-125800000D02*
X176600000Y-125800000D01*
X179082702Y-127600000D02*
X177282702Y-125800000D01*
X176600000Y-124939978D02*
X176964999Y-124574979D01*
X172850000Y-126770000D02*
X174400000Y-125220000D01*
X174400000Y-125220000D02*
X174470000Y-125220000D01*
D58*
X179082702Y-127600000D02*
X179992702Y-126690000D01*
%TO.N,Net-(R18-Pad1)*%
D60*
X176964999Y-123275007D02*
X176964999Y-122625021D01*
X176964999Y-123924993D02*
X176964999Y-123275007D01*
X174400000Y-124200000D02*
X175800000Y-124200000D01*
X175800000Y-127200000D02*
X176200000Y-127600000D01*
X176724993Y-123275007D02*
X176964999Y-123275007D01*
X175800000Y-124200000D02*
X175800000Y-127200000D01*
X175800000Y-124200000D02*
X176724993Y-123275007D01*
%TO.N,LODRV_2*%
D59*
X137200000Y-109096500D02*
X137200000Y-113800000D01*
X141565000Y-99866471D02*
X141565000Y-104731500D01*
X146080000Y-95351471D02*
X141565000Y-99866471D01*
X141565000Y-104731500D02*
X137200000Y-109096500D01*
X132235000Y-117600000D02*
X130580000Y-115945000D01*
X137200000Y-115800000D02*
X137200000Y-116600000D01*
X146080000Y-94710000D02*
X146080000Y-95351471D01*
X136200000Y-117600000D02*
X132235000Y-117600000D01*
X137200000Y-116600000D02*
X136200000Y-117600000D01*
%TO.N,SW2*%
D57*
X133690000Y-107065000D02*
X133690000Y-108335000D01*
X139754600Y-114800000D02*
X134555000Y-114800000D01*
X133795000Y-114040000D02*
X133795000Y-108440000D01*
D59*
X136370735Y-102119265D02*
X136370735Y-102570735D01*
X144430000Y-94060000D02*
X136370735Y-102119265D01*
D57*
X134555000Y-114800000D02*
X133795000Y-114040000D01*
D59*
X136210000Y-104428530D02*
X136210000Y-106325000D01*
X135880000Y-111885000D02*
X136130000Y-112135000D01*
D57*
X133690000Y-105795000D02*
X133690000Y-107065000D01*
X133795000Y-108440000D02*
X133690000Y-108335000D01*
D61*
X134430000Y-106325000D02*
X133690000Y-107065000D01*
D59*
X136519265Y-104119265D02*
X136210000Y-104428530D01*
D61*
X136210000Y-106325000D02*
X134430000Y-106325000D01*
%TO.N,Net-(U5-Pad1)*%
D60*
X177151700Y-144695000D02*
X177151700Y-145965000D01*
X177151700Y-138590000D02*
X177151700Y-139860000D01*
X175070000Y-141130000D02*
X177151700Y-141130000D01*
X175695000Y-144695000D02*
X174400000Y-143400000D01*
X174400000Y-143400000D02*
X174400000Y-141800000D01*
X177151700Y-144695000D02*
X175695000Y-144695000D01*
X177151700Y-147235000D02*
X177151700Y-145965000D01*
X177151700Y-141130000D02*
X177151700Y-139860000D01*
X174400000Y-141800000D02*
X175070000Y-141130000D01*
%TO.N,BATT-_PIN*%
X194810000Y-132340000D02*
X196110000Y-133640000D01*
X182600000Y-141130000D02*
X182600000Y-142400000D01*
X195348478Y-138720000D02*
X182730000Y-138720000D01*
X196110000Y-137958478D02*
X195348478Y-138720000D01*
X182730000Y-138720000D02*
X182600000Y-138590000D01*
X182600000Y-139860000D02*
X182600000Y-141130000D01*
X196110000Y-133640000D02*
X196110000Y-137958478D01*
X182600000Y-138590000D02*
X182600000Y-139860000D01*
%TO.N,Net-(Q13-Pad3)*%
D59*
X171050000Y-129115000D02*
X171050000Y-128695000D01*
X171050000Y-128695000D02*
X171830000Y-127915000D01*
%TO.N,ACP*%
X152520000Y-93000000D02*
X153200000Y-92320000D01*
X151960000Y-93560000D02*
X150230000Y-93560000D01*
X153200000Y-92320000D02*
X155530000Y-92320000D01*
X155530000Y-91070000D02*
X155600000Y-91000000D01*
X152520000Y-93000000D02*
X151960000Y-93560000D01*
X155530000Y-92320000D02*
X155530000Y-91070000D01*
%TO.N,Net-(U1-ICHG)*%
X145580000Y-89580000D02*
X144800000Y-88800000D01*
X144800000Y-88800000D02*
X145030000Y-88570000D01*
X145030000Y-88570000D02*
X145030000Y-86435000D01*
X145580000Y-89910000D02*
X145580000Y-89580000D01*
%TO.N,SDA*%
X172725000Y-82800000D02*
X154221666Y-82800000D01*
X179825000Y-89900000D02*
X172725000Y-82800000D01*
X154221666Y-82800000D02*
X149080000Y-87941666D01*
X185390000Y-89900000D02*
X187190000Y-91700000D01*
X149080000Y-87941666D02*
X149080000Y-89910000D01*
X179825000Y-89900000D02*
X185390000Y-89900000D01*
%TO.N,3.3V*%
D61*
X177925000Y-92900000D02*
X177550000Y-92900000D01*
D59*
X186790000Y-105790000D02*
X191120000Y-105790000D01*
D61*
X180900000Y-98200000D02*
X176575000Y-93875000D01*
X177050000Y-84900000D02*
X177050000Y-85775000D01*
D59*
X183200000Y-98200000D02*
X183200000Y-102200000D01*
D61*
X176575000Y-93875000D02*
X176300000Y-93600000D01*
X176800000Y-89900000D02*
X178175000Y-89900000D01*
D59*
X183200000Y-102200000D02*
X186790000Y-105790000D01*
D61*
X176300000Y-92150000D02*
X176200000Y-92050000D01*
X176300000Y-93600000D02*
X176300000Y-92150000D01*
X176850000Y-80700000D02*
X176850000Y-77725000D01*
X177375000Y-80700000D02*
X178175000Y-79900000D01*
X177050000Y-84900000D02*
X177175000Y-84900000D01*
D59*
X191120000Y-105790000D02*
X192270000Y-106940000D01*
D61*
X177550000Y-92900000D02*
X176575000Y-93875000D01*
X177175000Y-84900000D02*
X178175000Y-83900000D01*
X177050000Y-85775000D02*
X178175000Y-86900000D01*
X176400000Y-80700000D02*
X176850000Y-80700000D01*
D59*
X194810000Y-106940000D02*
X192270000Y-106940000D01*
D61*
X183200000Y-98200000D02*
X180900000Y-98200000D01*
X176850000Y-80700000D02*
X177375000Y-80700000D01*
X176850000Y-77725000D02*
X178175000Y-76400000D01*
%TO.N,Net-(U1-FSW_SYNC)*%
D59*
X150230000Y-90560000D02*
X150230000Y-89404315D01*
X154575000Y-85059315D02*
X154575000Y-84200000D01*
X150230000Y-89404315D02*
X154575000Y-85059315D01*
%TO.N,STAT_2*%
X188580000Y-85230000D02*
X189730000Y-84080000D01*
X180400000Y-81600000D02*
X182000000Y-83200000D01*
X184817500Y-85230000D02*
X188580000Y-85230000D01*
X153724611Y-81600000D02*
X180400000Y-81600000D01*
X147580000Y-89910000D02*
X147580000Y-87744611D01*
X184187500Y-84600000D02*
X184817500Y-85230000D01*
X147580000Y-87744611D02*
X153724611Y-81600000D01*
X183600000Y-83200000D02*
X183600000Y-84012500D01*
X183600000Y-84012500D02*
X184187500Y-84600000D01*
%TO.N,Net-(D3-A)*%
X182612500Y-82687500D02*
X179825000Y-79900000D01*
X182612500Y-84600000D02*
X182612500Y-82687500D01*
%TO.N,Net-(R10-Pad1)*%
D60*
X157000000Y-129400000D02*
X161800000Y-129400000D01*
X161800000Y-129400000D02*
X161800000Y-130049986D01*
X160790028Y-130699972D02*
X160600000Y-130890000D01*
X161800000Y-130049986D02*
X161800000Y-130699972D01*
X161800000Y-130699972D02*
X160790028Y-130699972D01*
%TO.N,Net-(U1-ILIM_HIZ)*%
D59*
X144200000Y-83290000D02*
X143780000Y-82870000D01*
X144200000Y-89030000D02*
X144200000Y-83290000D01*
X145080000Y-89910000D02*
X144200000Y-89030000D01*
%TO.N,/BQ25756E/ACOV*%
X153675000Y-86525000D02*
X154465000Y-86525000D01*
X150230000Y-91060000D02*
X150740000Y-91060000D01*
X151000000Y-90800000D02*
X151000000Y-89200000D01*
X150740000Y-91060000D02*
X151000000Y-90800000D01*
X151000000Y-89200000D02*
X153675000Y-86525000D01*
X154465000Y-86525000D02*
X155865000Y-85125000D01*
X155865000Y-85125000D02*
X157865000Y-85125000D01*
%TO.N,Net-(C10-Pad1)*%
X109080000Y-145040000D02*
X109840000Y-145800000D01*
X111920000Y-142200000D02*
X113520000Y-142200000D01*
X109080000Y-145040000D02*
X111920000Y-142200000D01*
X109840000Y-145800000D02*
X113600000Y-145800000D01*
%TO.N,ACN*%
X156450000Y-92360000D02*
X155530000Y-93280000D01*
X153001933Y-94621933D02*
X152530000Y-94150000D01*
X154188067Y-94621933D02*
X153001933Y-94621933D01*
X152440000Y-94060000D02*
X152530000Y-94150000D01*
X150230000Y-94060000D02*
X152440000Y-94060000D01*
X155530000Y-93280000D02*
X154188067Y-94621933D01*
X157705000Y-92360000D02*
X156450000Y-92360000D01*
%TO.N,Net-(Q12-Pad3)*%
X145647500Y-142312500D02*
X144850000Y-141515000D01*
X147200000Y-142312500D02*
X145647500Y-142312500D01*
%TO.N,SYS_PIN*%
D60*
X177800000Y-132000000D02*
X177800000Y-132600000D01*
X160250000Y-145500000D02*
X160000000Y-145250000D01*
D58*
X185750000Y-131050000D02*
X184800000Y-132000000D01*
D60*
X165332744Y-132000000D02*
X177800000Y-132000000D01*
X192270000Y-129800000D02*
X192270000Y-132340000D01*
X177800000Y-132000000D02*
X184800000Y-132000000D01*
X164900000Y-145500000D02*
X160250000Y-145500000D01*
X164682702Y-131349958D02*
X165332744Y-132000000D01*
X174800000Y-135600000D02*
X164900000Y-145500000D01*
D58*
X192270000Y-129800000D02*
X191600000Y-129800000D01*
X192270000Y-129800000D02*
X191020000Y-131050000D01*
D60*
X177800000Y-132600000D02*
X177400000Y-133000000D01*
D58*
X191020000Y-131050000D02*
X185750000Y-131050000D01*
%TO.N,/BQ25756E/ACUV*%
D59*
X151375000Y-91560000D02*
X151400000Y-91585000D01*
X158690000Y-86685000D02*
X156275000Y-86685000D01*
X156275000Y-86685000D02*
X156115000Y-86525000D01*
X153200000Y-88000000D02*
X154640000Y-88000000D01*
X154640000Y-88000000D02*
X156115000Y-86525000D01*
X150230000Y-91560000D02*
X151375000Y-91560000D01*
X151400000Y-89800000D02*
X153200000Y-88000000D01*
X151400000Y-91585000D02*
X151400000Y-89800000D01*
%TO.N,Net-(C1-Pad1)*%
X194810000Y-142500000D02*
X191640000Y-145670000D01*
X193310000Y-144000000D02*
X189460000Y-144000000D01*
X191640000Y-145670000D02*
X191640000Y-146250000D01*
X194810000Y-142500000D02*
X193310000Y-144000000D01*
%TO.N,PG*%
X180237648Y-75625000D02*
X184187500Y-79574852D01*
X147080000Y-84211076D02*
X155666076Y-75625000D01*
X184210000Y-81100000D02*
X187190000Y-84080000D01*
X184187500Y-79574852D02*
X184187500Y-81100000D01*
X147080000Y-89910000D02*
X147080000Y-84211076D01*
X155666076Y-75625000D02*
X180237648Y-75625000D01*
X184187500Y-81100000D02*
X184210000Y-81100000D01*
%TO.N,INT*%
X178325000Y-82400000D02*
X179825000Y-83900000D01*
X148580000Y-87875981D02*
X154055981Y-82400000D01*
X154055981Y-82400000D02*
X178325000Y-82400000D01*
X148580000Y-89910000D02*
X148580000Y-87875981D01*
X182545000Y-86620000D02*
X187190000Y-86620000D01*
X179825000Y-83900000D02*
X182545000Y-86620000D01*
%TO.N,SCL*%
X185850000Y-92900000D02*
X187190000Y-94240000D01*
X179575000Y-92575000D02*
X179575000Y-92900000D01*
X168400000Y-83200000D02*
X177000000Y-91800000D01*
X177000000Y-91800000D02*
X178800000Y-91800000D01*
X149580000Y-88007352D02*
X154387352Y-83200000D01*
X178800000Y-91800000D02*
X179575000Y-92575000D01*
X179575000Y-92900000D02*
X185850000Y-92900000D01*
X154387352Y-83200000D02*
X168400000Y-83200000D01*
X149580000Y-89910000D02*
X149580000Y-88007352D01*
%TO.N,RS-485 SYS1 B*%
X187190000Y-101860000D02*
X187190000Y-99320000D01*
%TO.N,5V_PERM*%
X187190000Y-104400000D02*
X189730000Y-104400000D01*
X189730000Y-104400000D02*
X192270000Y-104400000D01*
X192270000Y-104400000D02*
X194810000Y-104400000D01*
%TO.N,UART_RX*%
X146774264Y-144150000D02*
X145450000Y-144150000D01*
X145350000Y-131650000D02*
X146800000Y-130200000D01*
X148750000Y-128250000D02*
X149600000Y-127400000D01*
X149600000Y-127400000D02*
X167500000Y-127400000D01*
X147550000Y-145500000D02*
X147550000Y-144925736D01*
X180900000Y-121050000D02*
X184570000Y-124720000D01*
X184570000Y-124720000D02*
X187190000Y-124720000D01*
X174117924Y-120782076D02*
X179007402Y-120782076D01*
X145400000Y-136850000D02*
X145400000Y-131700000D01*
X146800000Y-130200000D02*
X146850000Y-130200000D01*
X167500000Y-127400000D02*
X174117924Y-120782076D01*
X147550000Y-144925736D02*
X146774264Y-144150000D01*
X148650000Y-128250000D02*
X148750000Y-128250000D01*
X145400000Y-131700000D02*
X145350000Y-131650000D01*
%TO.N,UART_TX*%
X188240000Y-126210000D02*
X187190000Y-127260000D01*
X187190000Y-127260000D02*
X187050000Y-127400000D01*
X187454925Y-123500000D02*
X188240000Y-124285075D01*
X184300000Y-123500000D02*
X187454925Y-123500000D01*
X145010000Y-144910000D02*
X144250000Y-144150000D01*
X145010000Y-145500000D02*
X145010000Y-144910000D01*
X149000000Y-126800000D02*
X167500000Y-126800000D01*
X144300000Y-131550000D02*
X145550000Y-130300000D01*
X145000000Y-145490000D02*
X145010000Y-145500000D01*
X188240000Y-124285075D02*
X188240000Y-126210000D01*
X180950000Y-120150000D02*
X184300000Y-123500000D01*
X147650000Y-128150000D02*
X149000000Y-126800000D01*
X174050000Y-120250000D02*
X178700000Y-120250000D01*
X178700000Y-120250000D02*
X178850000Y-120100000D01*
X167500000Y-126800000D02*
X174050000Y-120250000D01*
X144300000Y-136850000D02*
X144300000Y-131550000D01*
%TO.N,HIDRV_2*%
X135265000Y-104525000D02*
X133690000Y-104525000D01*
X145080000Y-94710000D02*
X135265000Y-104525000D01*
%TO.N,LODRV_1*%
X148080000Y-95245686D02*
X148080000Y-94710000D01*
X159020000Y-109800000D02*
X153905000Y-104685000D01*
X162485000Y-110600000D02*
X162000000Y-110600000D01*
X164080000Y-112195000D02*
X162485000Y-110600000D01*
X153905000Y-104685000D02*
X153905000Y-101070686D01*
X160000000Y-109800000D02*
X159020000Y-109800000D01*
X153905000Y-101070686D02*
X148080000Y-95245686D01*
%TO.N,Net-(D1-A)*%
X182612500Y-81100000D02*
X182612500Y-79187500D01*
X182612500Y-79187500D02*
X179825000Y-76400000D01*
%TO.N,Net-(C11-Pad1)*%
X109850000Y-65800000D02*
X109080000Y-65030000D01*
X113400000Y-65800000D02*
X109850000Y-65800000D01*
X112110000Y-62000000D02*
X113375000Y-62000000D01*
X109080000Y-65030000D02*
X112110000Y-62000000D01*
%TO.N,/BQ25756E/FBG*%
X143400000Y-89530000D02*
X143400000Y-86405000D01*
X143400000Y-86405000D02*
X141780000Y-84785000D01*
X144430000Y-90560000D02*
X143400000Y-89530000D01*
%TO.N,/BQ25756E/FB*%
X142745000Y-87400000D02*
X141780000Y-86435000D01*
X144108640Y-91060000D02*
X142800000Y-89751360D01*
X142800000Y-89751360D02*
X142800000Y-87400000D01*
X144430000Y-91060000D02*
X144108640Y-91060000D01*
X142800000Y-87400000D02*
X142745000Y-87400000D01*
X141780000Y-86435000D02*
X139865000Y-86435000D01*
X139865000Y-86435000D02*
X138530000Y-85100000D01*
%TO.N,HIDRV_1*%
X149080000Y-95031360D02*
X155848640Y-101800000D01*
X163461397Y-108861397D02*
X163963603Y-108861397D01*
X155848640Y-101800000D02*
X156600000Y-101800000D01*
X149080000Y-94710000D02*
X149080000Y-95031360D01*
X156600000Y-101800000D02*
X162200000Y-107400000D01*
X163963603Y-108861397D02*
X164490000Y-108335000D01*
%TO.N,12V*%
X192270000Y-101860000D02*
X194810000Y-101860000D01*
%TD*%
M02*
