%TF.GenerationSoftware,KiCad,Pcbnew,10.0.0*%
%TF.CreationDate,2026-05-06T15:59:16-07:00*%
%TF.ProjectId,ChargeController3.0,43686172-6765-4436-9f6e-74726f6c6c65,rev?*%
%TF.SameCoordinates,Original*%
%TF.FileFunction,Paste,Top*%
%TF.FilePolarity,Positive*%
%FSLAX46Y46*%
G04 Gerber Fmt 4.6, Leading zero omitted, Abs format (unit mm)*
G04 Created by KiCad (PCBNEW 10.0.0) date 2026-05-06 15:59:16*
%MOMM*%
%LPD*%
G01*
G04 APERTURE LIST*
G04 Aperture macros list*
%AMRoundRect*
0 Rectangle with rounded corners*
0 $1 Rounding radius*
0 $2 $3 $4 $5 $6 $7 $8 $9 X,Y pos of 4 corners*
0 Add a 4 corners polygon primitive as box body*
4,1,4,$2,$3,$4,$5,$6,$7,$8,$9,$2,$3,0*
0 Add four circle primitives for the rounded corners*
1,1,$1+$1,$2,$3*
1,1,$1+$1,$4,$5*
1,1,$1+$1,$6,$7*
1,1,$1+$1,$8,$9*
0 Add four rect primitives between the rounded corners*
20,1,$1+$1,$2,$3,$4,$5,0*
20,1,$1+$1,$4,$5,$6,$7,0*
20,1,$1+$1,$6,$7,$8,$9,0*
20,1,$1+$1,$8,$9,$2,$3,0*%
G04 Aperture macros list end*
%ADD10C,0.010000*%
%ADD11RoundRect,0.250000X-0.312500X-0.625000X0.312500X-0.625000X0.312500X0.625000X-0.312500X0.625000X0*%
%ADD12RoundRect,0.250000X-0.625000X0.312500X-0.625000X-0.312500X0.625000X-0.312500X0.625000X0.312500X0*%
%ADD13RoundRect,0.218750X0.218750X0.256250X-0.218750X0.256250X-0.218750X-0.256250X0.218750X-0.256250X0*%
%ADD14RoundRect,0.140000X0.170000X-0.140000X0.170000X0.140000X-0.170000X0.140000X-0.170000X-0.140000X0*%
%ADD15RoundRect,0.200000X-0.275000X0.200000X-0.275000X-0.200000X0.275000X-0.200000X0.275000X0.200000X0*%
%ADD16RoundRect,0.135000X-0.185000X0.135000X-0.185000X-0.135000X0.185000X-0.135000X0.185000X0.135000X0*%
%ADD17R,2.280000X2.120000*%
%ADD18R,2.794000X0.558800*%
%ADD19R,0.711200X0.406400*%
%ADD20RoundRect,0.140000X-0.170000X0.140000X-0.170000X-0.140000X0.170000X-0.140000X0.170000X0.140000X0*%
%ADD21RoundRect,0.140000X0.140000X0.170000X-0.140000X0.170000X-0.140000X-0.170000X0.140000X-0.170000X0*%
%ADD22R,0.990000X0.420000*%
%ADD23R,0.760000X0.420000*%
%ADD24R,1.725000X2.235000*%
%ADD25R,0.650000X0.500000*%
%ADD26R,0.550000X0.500000*%
%ADD27R,4.120000X4.600000*%
%ADD28R,1.460500X0.558800*%
%ADD29RoundRect,0.135000X0.135000X0.185000X-0.135000X0.185000X-0.135000X-0.185000X0.135000X-0.185000X0*%
%ADD30RoundRect,0.135000X0.185000X-0.135000X0.185000X0.135000X-0.185000X0.135000X-0.185000X-0.135000X0*%
%ADD31RoundRect,0.250000X0.625000X-0.312500X0.625000X0.312500X-0.625000X0.312500X-0.625000X-0.312500X0*%
%ADD32RoundRect,0.200000X0.200000X0.275000X-0.200000X0.275000X-0.200000X-0.275000X0.200000X-0.275000X0*%
%ADD33RoundRect,0.225000X-0.250000X0.225000X-0.250000X-0.225000X0.250000X-0.225000X0.250000X0.225000X0*%
%ADD34R,0.558800X2.794000*%
%ADD35RoundRect,0.200000X-0.200000X-0.275000X0.200000X-0.275000X0.200000X0.275000X-0.200000X0.275000X0*%
%ADD36RoundRect,0.079500X-0.079500X-0.100500X0.079500X-0.100500X0.079500X0.100500X-0.079500X0.100500X0*%
%ADD37RoundRect,0.152500X-0.437500X-0.152500X0.437500X-0.152500X0.437500X0.152500X-0.437500X0.152500X0*%
%ADD38RoundRect,0.079500X0.100500X-0.079500X0.100500X0.079500X-0.100500X0.079500X-0.100500X-0.079500X0*%
%ADD39R,2.870200X12.446000*%
%ADD40RoundRect,0.225000X-0.225000X-0.250000X0.225000X-0.250000X0.225000X0.250000X-0.225000X0.250000X0*%
%ADD41RoundRect,0.140000X-0.140000X-0.170000X0.140000X-0.170000X0.140000X0.170000X-0.140000X0.170000X0*%
%ADD42RoundRect,0.079500X0.079500X0.100500X-0.079500X0.100500X-0.079500X-0.100500X0.079500X-0.100500X0*%
%ADD43RoundRect,0.050000X-0.075000X0.250000X-0.075000X-0.250000X0.075000X-0.250000X0.075000X0.250000X0*%
%ADD44RoundRect,0.050000X-0.250000X0.075000X-0.250000X-0.075000X0.250000X-0.075000X0.250000X0.075000X0*%
%ADD45R,2.560396X2.499995*%
%ADD46RoundRect,0.250000X-0.450000X0.262500X-0.450000X-0.262500X0.450000X-0.262500X0.450000X0.262500X0*%
%ADD47R,2.499995X2.560396*%
%ADD48RoundRect,0.079500X-0.100500X0.079500X-0.100500X-0.079500X0.100500X-0.079500X0.100500X0.079500X0*%
%ADD49RoundRect,0.200000X0.275000X-0.200000X0.275000X0.200000X-0.275000X0.200000X-0.275000X-0.200000X0*%
G04 APERTURE END LIST*
D10*
%TO.C,U1*%
X146028000Y-90566000D02*
X146030000Y-90566000D01*
X146033000Y-90567000D01*
X146035000Y-90567000D01*
X146038000Y-90568000D01*
X146040000Y-90569000D01*
X146043000Y-90570000D01*
X146045000Y-90572000D01*
X146047000Y-90573000D01*
X146049000Y-90575000D01*
X146051000Y-90576000D01*
X146053000Y-90578000D01*
X146055000Y-90580000D01*
X146057000Y-90582000D01*
X146059000Y-90584000D01*
X146060000Y-90586000D01*
X146062000Y-90588000D01*
X146063000Y-90590000D01*
X146065000Y-90592000D01*
X146066000Y-90595000D01*
X146067000Y-90597000D01*
X146068000Y-90600000D01*
X146068000Y-90602000D01*
X146069000Y-90605000D01*
X146069000Y-90607000D01*
X146070000Y-90610000D01*
X146070000Y-90612000D01*
X146070000Y-90615000D01*
X146070000Y-91545000D01*
X146070000Y-91548000D01*
X146070000Y-91550000D01*
X146069000Y-91553000D01*
X146069000Y-91555000D01*
X146068000Y-91558000D01*
X146068000Y-91560000D01*
X146067000Y-91563000D01*
X146066000Y-91565000D01*
X146065000Y-91568000D01*
X146063000Y-91570000D01*
X146062000Y-91572000D01*
X146060000Y-91574000D01*
X146059000Y-91576000D01*
X146057000Y-91578000D01*
X146055000Y-91580000D01*
X146053000Y-91582000D01*
X146051000Y-91584000D01*
X146049000Y-91585000D01*
X146047000Y-91587000D01*
X146045000Y-91588000D01*
X146043000Y-91590000D01*
X146040000Y-91591000D01*
X146038000Y-91592000D01*
X146035000Y-91593000D01*
X146033000Y-91593000D01*
X146030000Y-91594000D01*
X146028000Y-91594000D01*
X146025000Y-91595000D01*
X146023000Y-91595000D01*
X146020000Y-91595000D01*
X145160000Y-91595000D01*
X145157000Y-91595000D01*
X145155000Y-91595000D01*
X145152000Y-91594000D01*
X145150000Y-91594000D01*
X145147000Y-91593000D01*
X145145000Y-91593000D01*
X145142000Y-91592000D01*
X145140000Y-91591000D01*
X145137000Y-91590000D01*
X145135000Y-91588000D01*
X145133000Y-91587000D01*
X145131000Y-91585000D01*
X145129000Y-91584000D01*
X145127000Y-91582000D01*
X145125000Y-91580000D01*
X145123000Y-91578000D01*
X145121000Y-91576000D01*
X145120000Y-91574000D01*
X145118000Y-91572000D01*
X145117000Y-91570000D01*
X145115000Y-91568000D01*
X145114000Y-91565000D01*
X145113000Y-91563000D01*
X145112000Y-91560000D01*
X145112000Y-91558000D01*
X145111000Y-91555000D01*
X145111000Y-91553000D01*
X145110000Y-91550000D01*
X145110000Y-91548000D01*
X145110000Y-91545000D01*
X145110000Y-90615000D01*
X145110000Y-90612000D01*
X145110000Y-90610000D01*
X145111000Y-90607000D01*
X145111000Y-90605000D01*
X145112000Y-90602000D01*
X145112000Y-90600000D01*
X145113000Y-90597000D01*
X145114000Y-90595000D01*
X145115000Y-90592000D01*
X145117000Y-90590000D01*
X145118000Y-90588000D01*
X145120000Y-90586000D01*
X145121000Y-90584000D01*
X145123000Y-90582000D01*
X145125000Y-90580000D01*
X145127000Y-90578000D01*
X145129000Y-90576000D01*
X145131000Y-90575000D01*
X145133000Y-90573000D01*
X145135000Y-90572000D01*
X145137000Y-90570000D01*
X145140000Y-90569000D01*
X145142000Y-90568000D01*
X145145000Y-90567000D01*
X145147000Y-90567000D01*
X145150000Y-90566000D01*
X145152000Y-90566000D01*
X145155000Y-90565000D01*
X145157000Y-90565000D01*
X145160000Y-90565000D01*
X146020000Y-90565000D01*
X146023000Y-90565000D01*
X146025000Y-90565000D01*
X146028000Y-90566000D01*
G36*
X146028000Y-90566000D02*
G01*
X146030000Y-90566000D01*
X146033000Y-90567000D01*
X146035000Y-90567000D01*
X146038000Y-90568000D01*
X146040000Y-90569000D01*
X146043000Y-90570000D01*
X146045000Y-90572000D01*
X146047000Y-90573000D01*
X146049000Y-90575000D01*
X146051000Y-90576000D01*
X146053000Y-90578000D01*
X146055000Y-90580000D01*
X146057000Y-90582000D01*
X146059000Y-90584000D01*
X146060000Y-90586000D01*
X146062000Y-90588000D01*
X146063000Y-90590000D01*
X146065000Y-90592000D01*
X146066000Y-90595000D01*
X146067000Y-90597000D01*
X146068000Y-90600000D01*
X146068000Y-90602000D01*
X146069000Y-90605000D01*
X146069000Y-90607000D01*
X146070000Y-90610000D01*
X146070000Y-90612000D01*
X146070000Y-90615000D01*
X146070000Y-91545000D01*
X146070000Y-91548000D01*
X146070000Y-91550000D01*
X146069000Y-91553000D01*
X146069000Y-91555000D01*
X146068000Y-91558000D01*
X146068000Y-91560000D01*
X146067000Y-91563000D01*
X146066000Y-91565000D01*
X146065000Y-91568000D01*
X146063000Y-91570000D01*
X146062000Y-91572000D01*
X146060000Y-91574000D01*
X146059000Y-91576000D01*
X146057000Y-91578000D01*
X146055000Y-91580000D01*
X146053000Y-91582000D01*
X146051000Y-91584000D01*
X146049000Y-91585000D01*
X146047000Y-91587000D01*
X146045000Y-91588000D01*
X146043000Y-91590000D01*
X146040000Y-91591000D01*
X146038000Y-91592000D01*
X146035000Y-91593000D01*
X146033000Y-91593000D01*
X146030000Y-91594000D01*
X146028000Y-91594000D01*
X146025000Y-91595000D01*
X146023000Y-91595000D01*
X146020000Y-91595000D01*
X145160000Y-91595000D01*
X145157000Y-91595000D01*
X145155000Y-91595000D01*
X145152000Y-91594000D01*
X145150000Y-91594000D01*
X145147000Y-91593000D01*
X145145000Y-91593000D01*
X145142000Y-91592000D01*
X145140000Y-91591000D01*
X145137000Y-91590000D01*
X145135000Y-91588000D01*
X145133000Y-91587000D01*
X145131000Y-91585000D01*
X145129000Y-91584000D01*
X145127000Y-91582000D01*
X145125000Y-91580000D01*
X145123000Y-91578000D01*
X145121000Y-91576000D01*
X145120000Y-91574000D01*
X145118000Y-91572000D01*
X145117000Y-91570000D01*
X145115000Y-91568000D01*
X145114000Y-91565000D01*
X145113000Y-91563000D01*
X145112000Y-91560000D01*
X145112000Y-91558000D01*
X145111000Y-91555000D01*
X145111000Y-91553000D01*
X145110000Y-91550000D01*
X145110000Y-91548000D01*
X145110000Y-91545000D01*
X145110000Y-90615000D01*
X145110000Y-90612000D01*
X145110000Y-90610000D01*
X145111000Y-90607000D01*
X145111000Y-90605000D01*
X145112000Y-90602000D01*
X145112000Y-90600000D01*
X145113000Y-90597000D01*
X145114000Y-90595000D01*
X145115000Y-90592000D01*
X145117000Y-90590000D01*
X145118000Y-90588000D01*
X145120000Y-90586000D01*
X145121000Y-90584000D01*
X145123000Y-90582000D01*
X145125000Y-90580000D01*
X145127000Y-90578000D01*
X145129000Y-90576000D01*
X145131000Y-90575000D01*
X145133000Y-90573000D01*
X145135000Y-90572000D01*
X145137000Y-90570000D01*
X145140000Y-90569000D01*
X145142000Y-90568000D01*
X145145000Y-90567000D01*
X145147000Y-90567000D01*
X145150000Y-90566000D01*
X145152000Y-90566000D01*
X145155000Y-90565000D01*
X145157000Y-90565000D01*
X145160000Y-90565000D01*
X146020000Y-90565000D01*
X146023000Y-90565000D01*
X146025000Y-90565000D01*
X146028000Y-90566000D01*
G37*
X146028000Y-91796000D02*
X146030000Y-91796000D01*
X146033000Y-91797000D01*
X146035000Y-91797000D01*
X146038000Y-91798000D01*
X146040000Y-91799000D01*
X146043000Y-91800000D01*
X146045000Y-91802000D01*
X146047000Y-91803000D01*
X146049000Y-91805000D01*
X146051000Y-91806000D01*
X146053000Y-91808000D01*
X146055000Y-91810000D01*
X146057000Y-91812000D01*
X146059000Y-91814000D01*
X146060000Y-91816000D01*
X146062000Y-91818000D01*
X146063000Y-91820000D01*
X146065000Y-91822000D01*
X146066000Y-91825000D01*
X146067000Y-91827000D01*
X146068000Y-91830000D01*
X146068000Y-91832000D01*
X146069000Y-91835000D01*
X146069000Y-91837000D01*
X146070000Y-91840000D01*
X146070000Y-91842000D01*
X146070000Y-91845000D01*
X146070000Y-92775000D01*
X146070000Y-92778000D01*
X146070000Y-92780000D01*
X146069000Y-92783000D01*
X146069000Y-92785000D01*
X146068000Y-92788000D01*
X146068000Y-92790000D01*
X146067000Y-92793000D01*
X146066000Y-92795000D01*
X146065000Y-92798000D01*
X146063000Y-92800000D01*
X146062000Y-92802000D01*
X146060000Y-92804000D01*
X146059000Y-92806000D01*
X146057000Y-92808000D01*
X146055000Y-92810000D01*
X146053000Y-92812000D01*
X146051000Y-92814000D01*
X146049000Y-92815000D01*
X146047000Y-92817000D01*
X146045000Y-92818000D01*
X146043000Y-92820000D01*
X146040000Y-92821000D01*
X146038000Y-92822000D01*
X146035000Y-92823000D01*
X146033000Y-92823000D01*
X146030000Y-92824000D01*
X146028000Y-92824000D01*
X146025000Y-92825000D01*
X146023000Y-92825000D01*
X146020000Y-92825000D01*
X145160000Y-92825000D01*
X145157000Y-92825000D01*
X145155000Y-92825000D01*
X145152000Y-92824000D01*
X145150000Y-92824000D01*
X145147000Y-92823000D01*
X145145000Y-92823000D01*
X145142000Y-92822000D01*
X145140000Y-92821000D01*
X145137000Y-92820000D01*
X145135000Y-92818000D01*
X145133000Y-92817000D01*
X145131000Y-92815000D01*
X145129000Y-92814000D01*
X145127000Y-92812000D01*
X145125000Y-92810000D01*
X145123000Y-92808000D01*
X145121000Y-92806000D01*
X145120000Y-92804000D01*
X145118000Y-92802000D01*
X145117000Y-92800000D01*
X145115000Y-92798000D01*
X145114000Y-92795000D01*
X145113000Y-92793000D01*
X145112000Y-92790000D01*
X145112000Y-92788000D01*
X145111000Y-92785000D01*
X145111000Y-92783000D01*
X145110000Y-92780000D01*
X145110000Y-92778000D01*
X145110000Y-92775000D01*
X145110000Y-91845000D01*
X145110000Y-91842000D01*
X145110000Y-91840000D01*
X145111000Y-91837000D01*
X145111000Y-91835000D01*
X145112000Y-91832000D01*
X145112000Y-91830000D01*
X145113000Y-91827000D01*
X145114000Y-91825000D01*
X145115000Y-91822000D01*
X145117000Y-91820000D01*
X145118000Y-91818000D01*
X145120000Y-91816000D01*
X145121000Y-91814000D01*
X145123000Y-91812000D01*
X145125000Y-91810000D01*
X145127000Y-91808000D01*
X145129000Y-91806000D01*
X145131000Y-91805000D01*
X145133000Y-91803000D01*
X145135000Y-91802000D01*
X145137000Y-91800000D01*
X145140000Y-91799000D01*
X145142000Y-91798000D01*
X145145000Y-91797000D01*
X145147000Y-91797000D01*
X145150000Y-91796000D01*
X145152000Y-91796000D01*
X145155000Y-91795000D01*
X145157000Y-91795000D01*
X145160000Y-91795000D01*
X146020000Y-91795000D01*
X146023000Y-91795000D01*
X146025000Y-91795000D01*
X146028000Y-91796000D01*
G36*
X146028000Y-91796000D02*
G01*
X146030000Y-91796000D01*
X146033000Y-91797000D01*
X146035000Y-91797000D01*
X146038000Y-91798000D01*
X146040000Y-91799000D01*
X146043000Y-91800000D01*
X146045000Y-91802000D01*
X146047000Y-91803000D01*
X146049000Y-91805000D01*
X146051000Y-91806000D01*
X146053000Y-91808000D01*
X146055000Y-91810000D01*
X146057000Y-91812000D01*
X146059000Y-91814000D01*
X146060000Y-91816000D01*
X146062000Y-91818000D01*
X146063000Y-91820000D01*
X146065000Y-91822000D01*
X146066000Y-91825000D01*
X146067000Y-91827000D01*
X146068000Y-91830000D01*
X146068000Y-91832000D01*
X146069000Y-91835000D01*
X146069000Y-91837000D01*
X146070000Y-91840000D01*
X146070000Y-91842000D01*
X146070000Y-91845000D01*
X146070000Y-92775000D01*
X146070000Y-92778000D01*
X146070000Y-92780000D01*
X146069000Y-92783000D01*
X146069000Y-92785000D01*
X146068000Y-92788000D01*
X146068000Y-92790000D01*
X146067000Y-92793000D01*
X146066000Y-92795000D01*
X146065000Y-92798000D01*
X146063000Y-92800000D01*
X146062000Y-92802000D01*
X146060000Y-92804000D01*
X146059000Y-92806000D01*
X146057000Y-92808000D01*
X146055000Y-92810000D01*
X146053000Y-92812000D01*
X146051000Y-92814000D01*
X146049000Y-92815000D01*
X146047000Y-92817000D01*
X146045000Y-92818000D01*
X146043000Y-92820000D01*
X146040000Y-92821000D01*
X146038000Y-92822000D01*
X146035000Y-92823000D01*
X146033000Y-92823000D01*
X146030000Y-92824000D01*
X146028000Y-92824000D01*
X146025000Y-92825000D01*
X146023000Y-92825000D01*
X146020000Y-92825000D01*
X145160000Y-92825000D01*
X145157000Y-92825000D01*
X145155000Y-92825000D01*
X145152000Y-92824000D01*
X145150000Y-92824000D01*
X145147000Y-92823000D01*
X145145000Y-92823000D01*
X145142000Y-92822000D01*
X145140000Y-92821000D01*
X145137000Y-92820000D01*
X145135000Y-92818000D01*
X145133000Y-92817000D01*
X145131000Y-92815000D01*
X145129000Y-92814000D01*
X145127000Y-92812000D01*
X145125000Y-92810000D01*
X145123000Y-92808000D01*
X145121000Y-92806000D01*
X145120000Y-92804000D01*
X145118000Y-92802000D01*
X145117000Y-92800000D01*
X145115000Y-92798000D01*
X145114000Y-92795000D01*
X145113000Y-92793000D01*
X145112000Y-92790000D01*
X145112000Y-92788000D01*
X145111000Y-92785000D01*
X145111000Y-92783000D01*
X145110000Y-92780000D01*
X145110000Y-92778000D01*
X145110000Y-92775000D01*
X145110000Y-91845000D01*
X145110000Y-91842000D01*
X145110000Y-91840000D01*
X145111000Y-91837000D01*
X145111000Y-91835000D01*
X145112000Y-91832000D01*
X145112000Y-91830000D01*
X145113000Y-91827000D01*
X145114000Y-91825000D01*
X145115000Y-91822000D01*
X145117000Y-91820000D01*
X145118000Y-91818000D01*
X145120000Y-91816000D01*
X145121000Y-91814000D01*
X145123000Y-91812000D01*
X145125000Y-91810000D01*
X145127000Y-91808000D01*
X145129000Y-91806000D01*
X145131000Y-91805000D01*
X145133000Y-91803000D01*
X145135000Y-91802000D01*
X145137000Y-91800000D01*
X145140000Y-91799000D01*
X145142000Y-91798000D01*
X145145000Y-91797000D01*
X145147000Y-91797000D01*
X145150000Y-91796000D01*
X145152000Y-91796000D01*
X145155000Y-91795000D01*
X145157000Y-91795000D01*
X145160000Y-91795000D01*
X146020000Y-91795000D01*
X146023000Y-91795000D01*
X146025000Y-91795000D01*
X146028000Y-91796000D01*
G37*
X146028000Y-93026000D02*
X146030000Y-93026000D01*
X146033000Y-93027000D01*
X146035000Y-93027000D01*
X146038000Y-93028000D01*
X146040000Y-93029000D01*
X146043000Y-93030000D01*
X146045000Y-93032000D01*
X146047000Y-93033000D01*
X146049000Y-93035000D01*
X146051000Y-93036000D01*
X146053000Y-93038000D01*
X146055000Y-93040000D01*
X146057000Y-93042000D01*
X146059000Y-93044000D01*
X146060000Y-93046000D01*
X146062000Y-93048000D01*
X146063000Y-93050000D01*
X146065000Y-93052000D01*
X146066000Y-93055000D01*
X146067000Y-93057000D01*
X146068000Y-93060000D01*
X146068000Y-93062000D01*
X146069000Y-93065000D01*
X146069000Y-93067000D01*
X146070000Y-93070000D01*
X146070000Y-93072000D01*
X146070000Y-93075000D01*
X146070000Y-94005000D01*
X146070000Y-94008000D01*
X146070000Y-94010000D01*
X146069000Y-94013000D01*
X146069000Y-94015000D01*
X146068000Y-94018000D01*
X146068000Y-94020000D01*
X146067000Y-94023000D01*
X146066000Y-94025000D01*
X146065000Y-94028000D01*
X146063000Y-94030000D01*
X146062000Y-94032000D01*
X146060000Y-94034000D01*
X146059000Y-94036000D01*
X146057000Y-94038000D01*
X146055000Y-94040000D01*
X146053000Y-94042000D01*
X146051000Y-94044000D01*
X146049000Y-94045000D01*
X146047000Y-94047000D01*
X146045000Y-94048000D01*
X146043000Y-94050000D01*
X146040000Y-94051000D01*
X146038000Y-94052000D01*
X146035000Y-94053000D01*
X146033000Y-94053000D01*
X146030000Y-94054000D01*
X146028000Y-94054000D01*
X146025000Y-94055000D01*
X146023000Y-94055000D01*
X146020000Y-94055000D01*
X145160000Y-94055000D01*
X145157000Y-94055000D01*
X145155000Y-94055000D01*
X145152000Y-94054000D01*
X145150000Y-94054000D01*
X145147000Y-94053000D01*
X145145000Y-94053000D01*
X145142000Y-94052000D01*
X145140000Y-94051000D01*
X145137000Y-94050000D01*
X145135000Y-94048000D01*
X145133000Y-94047000D01*
X145131000Y-94045000D01*
X145129000Y-94044000D01*
X145127000Y-94042000D01*
X145125000Y-94040000D01*
X145123000Y-94038000D01*
X145121000Y-94036000D01*
X145120000Y-94034000D01*
X145118000Y-94032000D01*
X145117000Y-94030000D01*
X145115000Y-94028000D01*
X145114000Y-94025000D01*
X145113000Y-94023000D01*
X145112000Y-94020000D01*
X145112000Y-94018000D01*
X145111000Y-94015000D01*
X145111000Y-94013000D01*
X145110000Y-94010000D01*
X145110000Y-94008000D01*
X145110000Y-94005000D01*
X145110000Y-93075000D01*
X145110000Y-93072000D01*
X145110000Y-93070000D01*
X145111000Y-93067000D01*
X145111000Y-93065000D01*
X145112000Y-93062000D01*
X145112000Y-93060000D01*
X145113000Y-93057000D01*
X145114000Y-93055000D01*
X145115000Y-93052000D01*
X145117000Y-93050000D01*
X145118000Y-93048000D01*
X145120000Y-93046000D01*
X145121000Y-93044000D01*
X145123000Y-93042000D01*
X145125000Y-93040000D01*
X145127000Y-93038000D01*
X145129000Y-93036000D01*
X145131000Y-93035000D01*
X145133000Y-93033000D01*
X145135000Y-93032000D01*
X145137000Y-93030000D01*
X145140000Y-93029000D01*
X145142000Y-93028000D01*
X145145000Y-93027000D01*
X145147000Y-93027000D01*
X145150000Y-93026000D01*
X145152000Y-93026000D01*
X145155000Y-93025000D01*
X145157000Y-93025000D01*
X145160000Y-93025000D01*
X146020000Y-93025000D01*
X146023000Y-93025000D01*
X146025000Y-93025000D01*
X146028000Y-93026000D01*
G36*
X146028000Y-93026000D02*
G01*
X146030000Y-93026000D01*
X146033000Y-93027000D01*
X146035000Y-93027000D01*
X146038000Y-93028000D01*
X146040000Y-93029000D01*
X146043000Y-93030000D01*
X146045000Y-93032000D01*
X146047000Y-93033000D01*
X146049000Y-93035000D01*
X146051000Y-93036000D01*
X146053000Y-93038000D01*
X146055000Y-93040000D01*
X146057000Y-93042000D01*
X146059000Y-93044000D01*
X146060000Y-93046000D01*
X146062000Y-93048000D01*
X146063000Y-93050000D01*
X146065000Y-93052000D01*
X146066000Y-93055000D01*
X146067000Y-93057000D01*
X146068000Y-93060000D01*
X146068000Y-93062000D01*
X146069000Y-93065000D01*
X146069000Y-93067000D01*
X146070000Y-93070000D01*
X146070000Y-93072000D01*
X146070000Y-93075000D01*
X146070000Y-94005000D01*
X146070000Y-94008000D01*
X146070000Y-94010000D01*
X146069000Y-94013000D01*
X146069000Y-94015000D01*
X146068000Y-94018000D01*
X146068000Y-94020000D01*
X146067000Y-94023000D01*
X146066000Y-94025000D01*
X146065000Y-94028000D01*
X146063000Y-94030000D01*
X146062000Y-94032000D01*
X146060000Y-94034000D01*
X146059000Y-94036000D01*
X146057000Y-94038000D01*
X146055000Y-94040000D01*
X146053000Y-94042000D01*
X146051000Y-94044000D01*
X146049000Y-94045000D01*
X146047000Y-94047000D01*
X146045000Y-94048000D01*
X146043000Y-94050000D01*
X146040000Y-94051000D01*
X146038000Y-94052000D01*
X146035000Y-94053000D01*
X146033000Y-94053000D01*
X146030000Y-94054000D01*
X146028000Y-94054000D01*
X146025000Y-94055000D01*
X146023000Y-94055000D01*
X146020000Y-94055000D01*
X145160000Y-94055000D01*
X145157000Y-94055000D01*
X145155000Y-94055000D01*
X145152000Y-94054000D01*
X145150000Y-94054000D01*
X145147000Y-94053000D01*
X145145000Y-94053000D01*
X145142000Y-94052000D01*
X145140000Y-94051000D01*
X145137000Y-94050000D01*
X145135000Y-94048000D01*
X145133000Y-94047000D01*
X145131000Y-94045000D01*
X145129000Y-94044000D01*
X145127000Y-94042000D01*
X145125000Y-94040000D01*
X145123000Y-94038000D01*
X145121000Y-94036000D01*
X145120000Y-94034000D01*
X145118000Y-94032000D01*
X145117000Y-94030000D01*
X145115000Y-94028000D01*
X145114000Y-94025000D01*
X145113000Y-94023000D01*
X145112000Y-94020000D01*
X145112000Y-94018000D01*
X145111000Y-94015000D01*
X145111000Y-94013000D01*
X145110000Y-94010000D01*
X145110000Y-94008000D01*
X145110000Y-94005000D01*
X145110000Y-93075000D01*
X145110000Y-93072000D01*
X145110000Y-93070000D01*
X145111000Y-93067000D01*
X145111000Y-93065000D01*
X145112000Y-93062000D01*
X145112000Y-93060000D01*
X145113000Y-93057000D01*
X145114000Y-93055000D01*
X145115000Y-93052000D01*
X145117000Y-93050000D01*
X145118000Y-93048000D01*
X145120000Y-93046000D01*
X145121000Y-93044000D01*
X145123000Y-93042000D01*
X145125000Y-93040000D01*
X145127000Y-93038000D01*
X145129000Y-93036000D01*
X145131000Y-93035000D01*
X145133000Y-93033000D01*
X145135000Y-93032000D01*
X145137000Y-93030000D01*
X145140000Y-93029000D01*
X145142000Y-93028000D01*
X145145000Y-93027000D01*
X145147000Y-93027000D01*
X145150000Y-93026000D01*
X145152000Y-93026000D01*
X145155000Y-93025000D01*
X145157000Y-93025000D01*
X145160000Y-93025000D01*
X146020000Y-93025000D01*
X146023000Y-93025000D01*
X146025000Y-93025000D01*
X146028000Y-93026000D01*
G37*
X147188000Y-90566000D02*
X147190000Y-90566000D01*
X147193000Y-90567000D01*
X147195000Y-90567000D01*
X147198000Y-90568000D01*
X147200000Y-90569000D01*
X147203000Y-90570000D01*
X147205000Y-90572000D01*
X147207000Y-90573000D01*
X147209000Y-90575000D01*
X147211000Y-90576000D01*
X147213000Y-90578000D01*
X147215000Y-90580000D01*
X147217000Y-90582000D01*
X147219000Y-90584000D01*
X147220000Y-90586000D01*
X147222000Y-90588000D01*
X147223000Y-90590000D01*
X147225000Y-90592000D01*
X147226000Y-90595000D01*
X147227000Y-90597000D01*
X147228000Y-90600000D01*
X147228000Y-90602000D01*
X147229000Y-90605000D01*
X147229000Y-90607000D01*
X147230000Y-90610000D01*
X147230000Y-90612000D01*
X147230000Y-90615000D01*
X147230000Y-91545000D01*
X147230000Y-91548000D01*
X147230000Y-91550000D01*
X147229000Y-91553000D01*
X147229000Y-91555000D01*
X147228000Y-91558000D01*
X147228000Y-91560000D01*
X147227000Y-91563000D01*
X147226000Y-91565000D01*
X147225000Y-91568000D01*
X147223000Y-91570000D01*
X147222000Y-91572000D01*
X147220000Y-91574000D01*
X147219000Y-91576000D01*
X147217000Y-91578000D01*
X147215000Y-91580000D01*
X147213000Y-91582000D01*
X147211000Y-91584000D01*
X147209000Y-91585000D01*
X147207000Y-91587000D01*
X147205000Y-91588000D01*
X147203000Y-91590000D01*
X147200000Y-91591000D01*
X147198000Y-91592000D01*
X147195000Y-91593000D01*
X147193000Y-91593000D01*
X147190000Y-91594000D01*
X147188000Y-91594000D01*
X147185000Y-91595000D01*
X147183000Y-91595000D01*
X147180000Y-91595000D01*
X146320000Y-91595000D01*
X146317000Y-91595000D01*
X146315000Y-91595000D01*
X146312000Y-91594000D01*
X146310000Y-91594000D01*
X146307000Y-91593000D01*
X146305000Y-91593000D01*
X146302000Y-91592000D01*
X146300000Y-91591000D01*
X146297000Y-91590000D01*
X146295000Y-91588000D01*
X146293000Y-91587000D01*
X146291000Y-91585000D01*
X146289000Y-91584000D01*
X146287000Y-91582000D01*
X146285000Y-91580000D01*
X146283000Y-91578000D01*
X146281000Y-91576000D01*
X146280000Y-91574000D01*
X146278000Y-91572000D01*
X146277000Y-91570000D01*
X146275000Y-91568000D01*
X146274000Y-91565000D01*
X146273000Y-91563000D01*
X146272000Y-91560000D01*
X146272000Y-91558000D01*
X146271000Y-91555000D01*
X146271000Y-91553000D01*
X146270000Y-91550000D01*
X146270000Y-91548000D01*
X146270000Y-91545000D01*
X146270000Y-90615000D01*
X146270000Y-90612000D01*
X146270000Y-90610000D01*
X146271000Y-90607000D01*
X146271000Y-90605000D01*
X146272000Y-90602000D01*
X146272000Y-90600000D01*
X146273000Y-90597000D01*
X146274000Y-90595000D01*
X146275000Y-90592000D01*
X146277000Y-90590000D01*
X146278000Y-90588000D01*
X146280000Y-90586000D01*
X146281000Y-90584000D01*
X146283000Y-90582000D01*
X146285000Y-90580000D01*
X146287000Y-90578000D01*
X146289000Y-90576000D01*
X146291000Y-90575000D01*
X146293000Y-90573000D01*
X146295000Y-90572000D01*
X146297000Y-90570000D01*
X146300000Y-90569000D01*
X146302000Y-90568000D01*
X146305000Y-90567000D01*
X146307000Y-90567000D01*
X146310000Y-90566000D01*
X146312000Y-90566000D01*
X146315000Y-90565000D01*
X146317000Y-90565000D01*
X146320000Y-90565000D01*
X147180000Y-90565000D01*
X147183000Y-90565000D01*
X147185000Y-90565000D01*
X147188000Y-90566000D01*
G36*
X147188000Y-90566000D02*
G01*
X147190000Y-90566000D01*
X147193000Y-90567000D01*
X147195000Y-90567000D01*
X147198000Y-90568000D01*
X147200000Y-90569000D01*
X147203000Y-90570000D01*
X147205000Y-90572000D01*
X147207000Y-90573000D01*
X147209000Y-90575000D01*
X147211000Y-90576000D01*
X147213000Y-90578000D01*
X147215000Y-90580000D01*
X147217000Y-90582000D01*
X147219000Y-90584000D01*
X147220000Y-90586000D01*
X147222000Y-90588000D01*
X147223000Y-90590000D01*
X147225000Y-90592000D01*
X147226000Y-90595000D01*
X147227000Y-90597000D01*
X147228000Y-90600000D01*
X147228000Y-90602000D01*
X147229000Y-90605000D01*
X147229000Y-90607000D01*
X147230000Y-90610000D01*
X147230000Y-90612000D01*
X147230000Y-90615000D01*
X147230000Y-91545000D01*
X147230000Y-91548000D01*
X147230000Y-91550000D01*
X147229000Y-91553000D01*
X147229000Y-91555000D01*
X147228000Y-91558000D01*
X147228000Y-91560000D01*
X147227000Y-91563000D01*
X147226000Y-91565000D01*
X147225000Y-91568000D01*
X147223000Y-91570000D01*
X147222000Y-91572000D01*
X147220000Y-91574000D01*
X147219000Y-91576000D01*
X147217000Y-91578000D01*
X147215000Y-91580000D01*
X147213000Y-91582000D01*
X147211000Y-91584000D01*
X147209000Y-91585000D01*
X147207000Y-91587000D01*
X147205000Y-91588000D01*
X147203000Y-91590000D01*
X147200000Y-91591000D01*
X147198000Y-91592000D01*
X147195000Y-91593000D01*
X147193000Y-91593000D01*
X147190000Y-91594000D01*
X147188000Y-91594000D01*
X147185000Y-91595000D01*
X147183000Y-91595000D01*
X147180000Y-91595000D01*
X146320000Y-91595000D01*
X146317000Y-91595000D01*
X146315000Y-91595000D01*
X146312000Y-91594000D01*
X146310000Y-91594000D01*
X146307000Y-91593000D01*
X146305000Y-91593000D01*
X146302000Y-91592000D01*
X146300000Y-91591000D01*
X146297000Y-91590000D01*
X146295000Y-91588000D01*
X146293000Y-91587000D01*
X146291000Y-91585000D01*
X146289000Y-91584000D01*
X146287000Y-91582000D01*
X146285000Y-91580000D01*
X146283000Y-91578000D01*
X146281000Y-91576000D01*
X146280000Y-91574000D01*
X146278000Y-91572000D01*
X146277000Y-91570000D01*
X146275000Y-91568000D01*
X146274000Y-91565000D01*
X146273000Y-91563000D01*
X146272000Y-91560000D01*
X146272000Y-91558000D01*
X146271000Y-91555000D01*
X146271000Y-91553000D01*
X146270000Y-91550000D01*
X146270000Y-91548000D01*
X146270000Y-91545000D01*
X146270000Y-90615000D01*
X146270000Y-90612000D01*
X146270000Y-90610000D01*
X146271000Y-90607000D01*
X146271000Y-90605000D01*
X146272000Y-90602000D01*
X146272000Y-90600000D01*
X146273000Y-90597000D01*
X146274000Y-90595000D01*
X146275000Y-90592000D01*
X146277000Y-90590000D01*
X146278000Y-90588000D01*
X146280000Y-90586000D01*
X146281000Y-90584000D01*
X146283000Y-90582000D01*
X146285000Y-90580000D01*
X146287000Y-90578000D01*
X146289000Y-90576000D01*
X146291000Y-90575000D01*
X146293000Y-90573000D01*
X146295000Y-90572000D01*
X146297000Y-90570000D01*
X146300000Y-90569000D01*
X146302000Y-90568000D01*
X146305000Y-90567000D01*
X146307000Y-90567000D01*
X146310000Y-90566000D01*
X146312000Y-90566000D01*
X146315000Y-90565000D01*
X146317000Y-90565000D01*
X146320000Y-90565000D01*
X147180000Y-90565000D01*
X147183000Y-90565000D01*
X147185000Y-90565000D01*
X147188000Y-90566000D01*
G37*
X147188000Y-91796000D02*
X147190000Y-91796000D01*
X147193000Y-91797000D01*
X147195000Y-91797000D01*
X147198000Y-91798000D01*
X147200000Y-91799000D01*
X147203000Y-91800000D01*
X147205000Y-91802000D01*
X147207000Y-91803000D01*
X147209000Y-91805000D01*
X147211000Y-91806000D01*
X147213000Y-91808000D01*
X147215000Y-91810000D01*
X147217000Y-91812000D01*
X147219000Y-91814000D01*
X147220000Y-91816000D01*
X147222000Y-91818000D01*
X147223000Y-91820000D01*
X147225000Y-91822000D01*
X147226000Y-91825000D01*
X147227000Y-91827000D01*
X147228000Y-91830000D01*
X147228000Y-91832000D01*
X147229000Y-91835000D01*
X147229000Y-91837000D01*
X147230000Y-91840000D01*
X147230000Y-91842000D01*
X147230000Y-91845000D01*
X147230000Y-92775000D01*
X147230000Y-92778000D01*
X147230000Y-92780000D01*
X147229000Y-92783000D01*
X147229000Y-92785000D01*
X147228000Y-92788000D01*
X147228000Y-92790000D01*
X147227000Y-92793000D01*
X147226000Y-92795000D01*
X147225000Y-92798000D01*
X147223000Y-92800000D01*
X147222000Y-92802000D01*
X147220000Y-92804000D01*
X147219000Y-92806000D01*
X147217000Y-92808000D01*
X147215000Y-92810000D01*
X147213000Y-92812000D01*
X147211000Y-92814000D01*
X147209000Y-92815000D01*
X147207000Y-92817000D01*
X147205000Y-92818000D01*
X147203000Y-92820000D01*
X147200000Y-92821000D01*
X147198000Y-92822000D01*
X147195000Y-92823000D01*
X147193000Y-92823000D01*
X147190000Y-92824000D01*
X147188000Y-92824000D01*
X147185000Y-92825000D01*
X147183000Y-92825000D01*
X147180000Y-92825000D01*
X146320000Y-92825000D01*
X146317000Y-92825000D01*
X146315000Y-92825000D01*
X146312000Y-92824000D01*
X146310000Y-92824000D01*
X146307000Y-92823000D01*
X146305000Y-92823000D01*
X146302000Y-92822000D01*
X146300000Y-92821000D01*
X146297000Y-92820000D01*
X146295000Y-92818000D01*
X146293000Y-92817000D01*
X146291000Y-92815000D01*
X146289000Y-92814000D01*
X146287000Y-92812000D01*
X146285000Y-92810000D01*
X146283000Y-92808000D01*
X146281000Y-92806000D01*
X146280000Y-92804000D01*
X146278000Y-92802000D01*
X146277000Y-92800000D01*
X146275000Y-92798000D01*
X146274000Y-92795000D01*
X146273000Y-92793000D01*
X146272000Y-92790000D01*
X146272000Y-92788000D01*
X146271000Y-92785000D01*
X146271000Y-92783000D01*
X146270000Y-92780000D01*
X146270000Y-92778000D01*
X146270000Y-92775000D01*
X146270000Y-91845000D01*
X146270000Y-91842000D01*
X146270000Y-91840000D01*
X146271000Y-91837000D01*
X146271000Y-91835000D01*
X146272000Y-91832000D01*
X146272000Y-91830000D01*
X146273000Y-91827000D01*
X146274000Y-91825000D01*
X146275000Y-91822000D01*
X146277000Y-91820000D01*
X146278000Y-91818000D01*
X146280000Y-91816000D01*
X146281000Y-91814000D01*
X146283000Y-91812000D01*
X146285000Y-91810000D01*
X146287000Y-91808000D01*
X146289000Y-91806000D01*
X146291000Y-91805000D01*
X146293000Y-91803000D01*
X146295000Y-91802000D01*
X146297000Y-91800000D01*
X146300000Y-91799000D01*
X146302000Y-91798000D01*
X146305000Y-91797000D01*
X146307000Y-91797000D01*
X146310000Y-91796000D01*
X146312000Y-91796000D01*
X146315000Y-91795000D01*
X146317000Y-91795000D01*
X146320000Y-91795000D01*
X147180000Y-91795000D01*
X147183000Y-91795000D01*
X147185000Y-91795000D01*
X147188000Y-91796000D01*
G36*
X147188000Y-91796000D02*
G01*
X147190000Y-91796000D01*
X147193000Y-91797000D01*
X147195000Y-91797000D01*
X147198000Y-91798000D01*
X147200000Y-91799000D01*
X147203000Y-91800000D01*
X147205000Y-91802000D01*
X147207000Y-91803000D01*
X147209000Y-91805000D01*
X147211000Y-91806000D01*
X147213000Y-91808000D01*
X147215000Y-91810000D01*
X147217000Y-91812000D01*
X147219000Y-91814000D01*
X147220000Y-91816000D01*
X147222000Y-91818000D01*
X147223000Y-91820000D01*
X147225000Y-91822000D01*
X147226000Y-91825000D01*
X147227000Y-91827000D01*
X147228000Y-91830000D01*
X147228000Y-91832000D01*
X147229000Y-91835000D01*
X147229000Y-91837000D01*
X147230000Y-91840000D01*
X147230000Y-91842000D01*
X147230000Y-91845000D01*
X147230000Y-92775000D01*
X147230000Y-92778000D01*
X147230000Y-92780000D01*
X147229000Y-92783000D01*
X147229000Y-92785000D01*
X147228000Y-92788000D01*
X147228000Y-92790000D01*
X147227000Y-92793000D01*
X147226000Y-92795000D01*
X147225000Y-92798000D01*
X147223000Y-92800000D01*
X147222000Y-92802000D01*
X147220000Y-92804000D01*
X147219000Y-92806000D01*
X147217000Y-92808000D01*
X147215000Y-92810000D01*
X147213000Y-92812000D01*
X147211000Y-92814000D01*
X147209000Y-92815000D01*
X147207000Y-92817000D01*
X147205000Y-92818000D01*
X147203000Y-92820000D01*
X147200000Y-92821000D01*
X147198000Y-92822000D01*
X147195000Y-92823000D01*
X147193000Y-92823000D01*
X147190000Y-92824000D01*
X147188000Y-92824000D01*
X147185000Y-92825000D01*
X147183000Y-92825000D01*
X147180000Y-92825000D01*
X146320000Y-92825000D01*
X146317000Y-92825000D01*
X146315000Y-92825000D01*
X146312000Y-92824000D01*
X146310000Y-92824000D01*
X146307000Y-92823000D01*
X146305000Y-92823000D01*
X146302000Y-92822000D01*
X146300000Y-92821000D01*
X146297000Y-92820000D01*
X146295000Y-92818000D01*
X146293000Y-92817000D01*
X146291000Y-92815000D01*
X146289000Y-92814000D01*
X146287000Y-92812000D01*
X146285000Y-92810000D01*
X146283000Y-92808000D01*
X146281000Y-92806000D01*
X146280000Y-92804000D01*
X146278000Y-92802000D01*
X146277000Y-92800000D01*
X146275000Y-92798000D01*
X146274000Y-92795000D01*
X146273000Y-92793000D01*
X146272000Y-92790000D01*
X146272000Y-92788000D01*
X146271000Y-92785000D01*
X146271000Y-92783000D01*
X146270000Y-92780000D01*
X146270000Y-92778000D01*
X146270000Y-92775000D01*
X146270000Y-91845000D01*
X146270000Y-91842000D01*
X146270000Y-91840000D01*
X146271000Y-91837000D01*
X146271000Y-91835000D01*
X146272000Y-91832000D01*
X146272000Y-91830000D01*
X146273000Y-91827000D01*
X146274000Y-91825000D01*
X146275000Y-91822000D01*
X146277000Y-91820000D01*
X146278000Y-91818000D01*
X146280000Y-91816000D01*
X146281000Y-91814000D01*
X146283000Y-91812000D01*
X146285000Y-91810000D01*
X146287000Y-91808000D01*
X146289000Y-91806000D01*
X146291000Y-91805000D01*
X146293000Y-91803000D01*
X146295000Y-91802000D01*
X146297000Y-91800000D01*
X146300000Y-91799000D01*
X146302000Y-91798000D01*
X146305000Y-91797000D01*
X146307000Y-91797000D01*
X146310000Y-91796000D01*
X146312000Y-91796000D01*
X146315000Y-91795000D01*
X146317000Y-91795000D01*
X146320000Y-91795000D01*
X147180000Y-91795000D01*
X147183000Y-91795000D01*
X147185000Y-91795000D01*
X147188000Y-91796000D01*
G37*
X147188000Y-93026000D02*
X147190000Y-93026000D01*
X147193000Y-93027000D01*
X147195000Y-93027000D01*
X147198000Y-93028000D01*
X147200000Y-93029000D01*
X147203000Y-93030000D01*
X147205000Y-93032000D01*
X147207000Y-93033000D01*
X147209000Y-93035000D01*
X147211000Y-93036000D01*
X147213000Y-93038000D01*
X147215000Y-93040000D01*
X147217000Y-93042000D01*
X147219000Y-93044000D01*
X147220000Y-93046000D01*
X147222000Y-93048000D01*
X147223000Y-93050000D01*
X147225000Y-93052000D01*
X147226000Y-93055000D01*
X147227000Y-93057000D01*
X147228000Y-93060000D01*
X147228000Y-93062000D01*
X147229000Y-93065000D01*
X147229000Y-93067000D01*
X147230000Y-93070000D01*
X147230000Y-93072000D01*
X147230000Y-93075000D01*
X147230000Y-94005000D01*
X147230000Y-94008000D01*
X147230000Y-94010000D01*
X147229000Y-94013000D01*
X147229000Y-94015000D01*
X147228000Y-94018000D01*
X147228000Y-94020000D01*
X147227000Y-94023000D01*
X147226000Y-94025000D01*
X147225000Y-94028000D01*
X147223000Y-94030000D01*
X147222000Y-94032000D01*
X147220000Y-94034000D01*
X147219000Y-94036000D01*
X147217000Y-94038000D01*
X147215000Y-94040000D01*
X147213000Y-94042000D01*
X147211000Y-94044000D01*
X147209000Y-94045000D01*
X147207000Y-94047000D01*
X147205000Y-94048000D01*
X147203000Y-94050000D01*
X147200000Y-94051000D01*
X147198000Y-94052000D01*
X147195000Y-94053000D01*
X147193000Y-94053000D01*
X147190000Y-94054000D01*
X147188000Y-94054000D01*
X147185000Y-94055000D01*
X147183000Y-94055000D01*
X147180000Y-94055000D01*
X146320000Y-94055000D01*
X146317000Y-94055000D01*
X146315000Y-94055000D01*
X146312000Y-94054000D01*
X146310000Y-94054000D01*
X146307000Y-94053000D01*
X146305000Y-94053000D01*
X146302000Y-94052000D01*
X146300000Y-94051000D01*
X146297000Y-94050000D01*
X146295000Y-94048000D01*
X146293000Y-94047000D01*
X146291000Y-94045000D01*
X146289000Y-94044000D01*
X146287000Y-94042000D01*
X146285000Y-94040000D01*
X146283000Y-94038000D01*
X146281000Y-94036000D01*
X146280000Y-94034000D01*
X146278000Y-94032000D01*
X146277000Y-94030000D01*
X146275000Y-94028000D01*
X146274000Y-94025000D01*
X146273000Y-94023000D01*
X146272000Y-94020000D01*
X146272000Y-94018000D01*
X146271000Y-94015000D01*
X146271000Y-94013000D01*
X146270000Y-94010000D01*
X146270000Y-94008000D01*
X146270000Y-94005000D01*
X146270000Y-93075000D01*
X146270000Y-93072000D01*
X146270000Y-93070000D01*
X146271000Y-93067000D01*
X146271000Y-93065000D01*
X146272000Y-93062000D01*
X146272000Y-93060000D01*
X146273000Y-93057000D01*
X146274000Y-93055000D01*
X146275000Y-93052000D01*
X146277000Y-93050000D01*
X146278000Y-93048000D01*
X146280000Y-93046000D01*
X146281000Y-93044000D01*
X146283000Y-93042000D01*
X146285000Y-93040000D01*
X146287000Y-93038000D01*
X146289000Y-93036000D01*
X146291000Y-93035000D01*
X146293000Y-93033000D01*
X146295000Y-93032000D01*
X146297000Y-93030000D01*
X146300000Y-93029000D01*
X146302000Y-93028000D01*
X146305000Y-93027000D01*
X146307000Y-93027000D01*
X146310000Y-93026000D01*
X146312000Y-93026000D01*
X146315000Y-93025000D01*
X146317000Y-93025000D01*
X146320000Y-93025000D01*
X147180000Y-93025000D01*
X147183000Y-93025000D01*
X147185000Y-93025000D01*
X147188000Y-93026000D01*
G36*
X147188000Y-93026000D02*
G01*
X147190000Y-93026000D01*
X147193000Y-93027000D01*
X147195000Y-93027000D01*
X147198000Y-93028000D01*
X147200000Y-93029000D01*
X147203000Y-93030000D01*
X147205000Y-93032000D01*
X147207000Y-93033000D01*
X147209000Y-93035000D01*
X147211000Y-93036000D01*
X147213000Y-93038000D01*
X147215000Y-93040000D01*
X147217000Y-93042000D01*
X147219000Y-93044000D01*
X147220000Y-93046000D01*
X147222000Y-93048000D01*
X147223000Y-93050000D01*
X147225000Y-93052000D01*
X147226000Y-93055000D01*
X147227000Y-93057000D01*
X147228000Y-93060000D01*
X147228000Y-93062000D01*
X147229000Y-93065000D01*
X147229000Y-93067000D01*
X147230000Y-93070000D01*
X147230000Y-93072000D01*
X147230000Y-93075000D01*
X147230000Y-94005000D01*
X147230000Y-94008000D01*
X147230000Y-94010000D01*
X147229000Y-94013000D01*
X147229000Y-94015000D01*
X147228000Y-94018000D01*
X147228000Y-94020000D01*
X147227000Y-94023000D01*
X147226000Y-94025000D01*
X147225000Y-94028000D01*
X147223000Y-94030000D01*
X147222000Y-94032000D01*
X147220000Y-94034000D01*
X147219000Y-94036000D01*
X147217000Y-94038000D01*
X147215000Y-94040000D01*
X147213000Y-94042000D01*
X147211000Y-94044000D01*
X147209000Y-94045000D01*
X147207000Y-94047000D01*
X147205000Y-94048000D01*
X147203000Y-94050000D01*
X147200000Y-94051000D01*
X147198000Y-94052000D01*
X147195000Y-94053000D01*
X147193000Y-94053000D01*
X147190000Y-94054000D01*
X147188000Y-94054000D01*
X147185000Y-94055000D01*
X147183000Y-94055000D01*
X147180000Y-94055000D01*
X146320000Y-94055000D01*
X146317000Y-94055000D01*
X146315000Y-94055000D01*
X146312000Y-94054000D01*
X146310000Y-94054000D01*
X146307000Y-94053000D01*
X146305000Y-94053000D01*
X146302000Y-94052000D01*
X146300000Y-94051000D01*
X146297000Y-94050000D01*
X146295000Y-94048000D01*
X146293000Y-94047000D01*
X146291000Y-94045000D01*
X146289000Y-94044000D01*
X146287000Y-94042000D01*
X146285000Y-94040000D01*
X146283000Y-94038000D01*
X146281000Y-94036000D01*
X146280000Y-94034000D01*
X146278000Y-94032000D01*
X146277000Y-94030000D01*
X146275000Y-94028000D01*
X146274000Y-94025000D01*
X146273000Y-94023000D01*
X146272000Y-94020000D01*
X146272000Y-94018000D01*
X146271000Y-94015000D01*
X146271000Y-94013000D01*
X146270000Y-94010000D01*
X146270000Y-94008000D01*
X146270000Y-94005000D01*
X146270000Y-93075000D01*
X146270000Y-93072000D01*
X146270000Y-93070000D01*
X146271000Y-93067000D01*
X146271000Y-93065000D01*
X146272000Y-93062000D01*
X146272000Y-93060000D01*
X146273000Y-93057000D01*
X146274000Y-93055000D01*
X146275000Y-93052000D01*
X146277000Y-93050000D01*
X146278000Y-93048000D01*
X146280000Y-93046000D01*
X146281000Y-93044000D01*
X146283000Y-93042000D01*
X146285000Y-93040000D01*
X146287000Y-93038000D01*
X146289000Y-93036000D01*
X146291000Y-93035000D01*
X146293000Y-93033000D01*
X146295000Y-93032000D01*
X146297000Y-93030000D01*
X146300000Y-93029000D01*
X146302000Y-93028000D01*
X146305000Y-93027000D01*
X146307000Y-93027000D01*
X146310000Y-93026000D01*
X146312000Y-93026000D01*
X146315000Y-93025000D01*
X146317000Y-93025000D01*
X146320000Y-93025000D01*
X147180000Y-93025000D01*
X147183000Y-93025000D01*
X147185000Y-93025000D01*
X147188000Y-93026000D01*
G37*
X148348000Y-90566000D02*
X148350000Y-90566000D01*
X148353000Y-90567000D01*
X148355000Y-90567000D01*
X148358000Y-90568000D01*
X148360000Y-90569000D01*
X148363000Y-90570000D01*
X148365000Y-90572000D01*
X148367000Y-90573000D01*
X148369000Y-90575000D01*
X148371000Y-90576000D01*
X148373000Y-90578000D01*
X148375000Y-90580000D01*
X148377000Y-90582000D01*
X148379000Y-90584000D01*
X148380000Y-90586000D01*
X148382000Y-90588000D01*
X148383000Y-90590000D01*
X148385000Y-90592000D01*
X148386000Y-90595000D01*
X148387000Y-90597000D01*
X148388000Y-90600000D01*
X148388000Y-90602000D01*
X148389000Y-90605000D01*
X148389000Y-90607000D01*
X148390000Y-90610000D01*
X148390000Y-90612000D01*
X148390000Y-90615000D01*
X148390000Y-91545000D01*
X148390000Y-91548000D01*
X148390000Y-91550000D01*
X148389000Y-91553000D01*
X148389000Y-91555000D01*
X148388000Y-91558000D01*
X148388000Y-91560000D01*
X148387000Y-91563000D01*
X148386000Y-91565000D01*
X148385000Y-91568000D01*
X148383000Y-91570000D01*
X148382000Y-91572000D01*
X148380000Y-91574000D01*
X148379000Y-91576000D01*
X148377000Y-91578000D01*
X148375000Y-91580000D01*
X148373000Y-91582000D01*
X148371000Y-91584000D01*
X148369000Y-91585000D01*
X148367000Y-91587000D01*
X148365000Y-91588000D01*
X148363000Y-91590000D01*
X148360000Y-91591000D01*
X148358000Y-91592000D01*
X148355000Y-91593000D01*
X148353000Y-91593000D01*
X148350000Y-91594000D01*
X148348000Y-91594000D01*
X148345000Y-91595000D01*
X148343000Y-91595000D01*
X148340000Y-91595000D01*
X147480000Y-91595000D01*
X147477000Y-91595000D01*
X147475000Y-91595000D01*
X147472000Y-91594000D01*
X147470000Y-91594000D01*
X147467000Y-91593000D01*
X147465000Y-91593000D01*
X147462000Y-91592000D01*
X147460000Y-91591000D01*
X147457000Y-91590000D01*
X147455000Y-91588000D01*
X147453000Y-91587000D01*
X147451000Y-91585000D01*
X147449000Y-91584000D01*
X147447000Y-91582000D01*
X147445000Y-91580000D01*
X147443000Y-91578000D01*
X147441000Y-91576000D01*
X147440000Y-91574000D01*
X147438000Y-91572000D01*
X147437000Y-91570000D01*
X147435000Y-91568000D01*
X147434000Y-91565000D01*
X147433000Y-91563000D01*
X147432000Y-91560000D01*
X147432000Y-91558000D01*
X147431000Y-91555000D01*
X147431000Y-91553000D01*
X147430000Y-91550000D01*
X147430000Y-91548000D01*
X147430000Y-91545000D01*
X147430000Y-90615000D01*
X147430000Y-90612000D01*
X147430000Y-90610000D01*
X147431000Y-90607000D01*
X147431000Y-90605000D01*
X147432000Y-90602000D01*
X147432000Y-90600000D01*
X147433000Y-90597000D01*
X147434000Y-90595000D01*
X147435000Y-90592000D01*
X147437000Y-90590000D01*
X147438000Y-90588000D01*
X147440000Y-90586000D01*
X147441000Y-90584000D01*
X147443000Y-90582000D01*
X147445000Y-90580000D01*
X147447000Y-90578000D01*
X147449000Y-90576000D01*
X147451000Y-90575000D01*
X147453000Y-90573000D01*
X147455000Y-90572000D01*
X147457000Y-90570000D01*
X147460000Y-90569000D01*
X147462000Y-90568000D01*
X147465000Y-90567000D01*
X147467000Y-90567000D01*
X147470000Y-90566000D01*
X147472000Y-90566000D01*
X147475000Y-90565000D01*
X147477000Y-90565000D01*
X147480000Y-90565000D01*
X148340000Y-90565000D01*
X148343000Y-90565000D01*
X148345000Y-90565000D01*
X148348000Y-90566000D01*
G36*
X148348000Y-90566000D02*
G01*
X148350000Y-90566000D01*
X148353000Y-90567000D01*
X148355000Y-90567000D01*
X148358000Y-90568000D01*
X148360000Y-90569000D01*
X148363000Y-90570000D01*
X148365000Y-90572000D01*
X148367000Y-90573000D01*
X148369000Y-90575000D01*
X148371000Y-90576000D01*
X148373000Y-90578000D01*
X148375000Y-90580000D01*
X148377000Y-90582000D01*
X148379000Y-90584000D01*
X148380000Y-90586000D01*
X148382000Y-90588000D01*
X148383000Y-90590000D01*
X148385000Y-90592000D01*
X148386000Y-90595000D01*
X148387000Y-90597000D01*
X148388000Y-90600000D01*
X148388000Y-90602000D01*
X148389000Y-90605000D01*
X148389000Y-90607000D01*
X148390000Y-90610000D01*
X148390000Y-90612000D01*
X148390000Y-90615000D01*
X148390000Y-91545000D01*
X148390000Y-91548000D01*
X148390000Y-91550000D01*
X148389000Y-91553000D01*
X148389000Y-91555000D01*
X148388000Y-91558000D01*
X148388000Y-91560000D01*
X148387000Y-91563000D01*
X148386000Y-91565000D01*
X148385000Y-91568000D01*
X148383000Y-91570000D01*
X148382000Y-91572000D01*
X148380000Y-91574000D01*
X148379000Y-91576000D01*
X148377000Y-91578000D01*
X148375000Y-91580000D01*
X148373000Y-91582000D01*
X148371000Y-91584000D01*
X148369000Y-91585000D01*
X148367000Y-91587000D01*
X148365000Y-91588000D01*
X148363000Y-91590000D01*
X148360000Y-91591000D01*
X148358000Y-91592000D01*
X148355000Y-91593000D01*
X148353000Y-91593000D01*
X148350000Y-91594000D01*
X148348000Y-91594000D01*
X148345000Y-91595000D01*
X148343000Y-91595000D01*
X148340000Y-91595000D01*
X147480000Y-91595000D01*
X147477000Y-91595000D01*
X147475000Y-91595000D01*
X147472000Y-91594000D01*
X147470000Y-91594000D01*
X147467000Y-91593000D01*
X147465000Y-91593000D01*
X147462000Y-91592000D01*
X147460000Y-91591000D01*
X147457000Y-91590000D01*
X147455000Y-91588000D01*
X147453000Y-91587000D01*
X147451000Y-91585000D01*
X147449000Y-91584000D01*
X147447000Y-91582000D01*
X147445000Y-91580000D01*
X147443000Y-91578000D01*
X147441000Y-91576000D01*
X147440000Y-91574000D01*
X147438000Y-91572000D01*
X147437000Y-91570000D01*
X147435000Y-91568000D01*
X147434000Y-91565000D01*
X147433000Y-91563000D01*
X147432000Y-91560000D01*
X147432000Y-91558000D01*
X147431000Y-91555000D01*
X147431000Y-91553000D01*
X147430000Y-91550000D01*
X147430000Y-91548000D01*
X147430000Y-91545000D01*
X147430000Y-90615000D01*
X147430000Y-90612000D01*
X147430000Y-90610000D01*
X147431000Y-90607000D01*
X147431000Y-90605000D01*
X147432000Y-90602000D01*
X147432000Y-90600000D01*
X147433000Y-90597000D01*
X147434000Y-90595000D01*
X147435000Y-90592000D01*
X147437000Y-90590000D01*
X147438000Y-90588000D01*
X147440000Y-90586000D01*
X147441000Y-90584000D01*
X147443000Y-90582000D01*
X147445000Y-90580000D01*
X147447000Y-90578000D01*
X147449000Y-90576000D01*
X147451000Y-90575000D01*
X147453000Y-90573000D01*
X147455000Y-90572000D01*
X147457000Y-90570000D01*
X147460000Y-90569000D01*
X147462000Y-90568000D01*
X147465000Y-90567000D01*
X147467000Y-90567000D01*
X147470000Y-90566000D01*
X147472000Y-90566000D01*
X147475000Y-90565000D01*
X147477000Y-90565000D01*
X147480000Y-90565000D01*
X148340000Y-90565000D01*
X148343000Y-90565000D01*
X148345000Y-90565000D01*
X148348000Y-90566000D01*
G37*
X148348000Y-91796000D02*
X148350000Y-91796000D01*
X148353000Y-91797000D01*
X148355000Y-91797000D01*
X148358000Y-91798000D01*
X148360000Y-91799000D01*
X148363000Y-91800000D01*
X148365000Y-91802000D01*
X148367000Y-91803000D01*
X148369000Y-91805000D01*
X148371000Y-91806000D01*
X148373000Y-91808000D01*
X148375000Y-91810000D01*
X148377000Y-91812000D01*
X148379000Y-91814000D01*
X148380000Y-91816000D01*
X148382000Y-91818000D01*
X148383000Y-91820000D01*
X148385000Y-91822000D01*
X148386000Y-91825000D01*
X148387000Y-91827000D01*
X148388000Y-91830000D01*
X148388000Y-91832000D01*
X148389000Y-91835000D01*
X148389000Y-91837000D01*
X148390000Y-91840000D01*
X148390000Y-91842000D01*
X148390000Y-91845000D01*
X148390000Y-92775000D01*
X148390000Y-92778000D01*
X148390000Y-92780000D01*
X148389000Y-92783000D01*
X148389000Y-92785000D01*
X148388000Y-92788000D01*
X148388000Y-92790000D01*
X148387000Y-92793000D01*
X148386000Y-92795000D01*
X148385000Y-92798000D01*
X148383000Y-92800000D01*
X148382000Y-92802000D01*
X148380000Y-92804000D01*
X148379000Y-92806000D01*
X148377000Y-92808000D01*
X148375000Y-92810000D01*
X148373000Y-92812000D01*
X148371000Y-92814000D01*
X148369000Y-92815000D01*
X148367000Y-92817000D01*
X148365000Y-92818000D01*
X148363000Y-92820000D01*
X148360000Y-92821000D01*
X148358000Y-92822000D01*
X148355000Y-92823000D01*
X148353000Y-92823000D01*
X148350000Y-92824000D01*
X148348000Y-92824000D01*
X148345000Y-92825000D01*
X148343000Y-92825000D01*
X148340000Y-92825000D01*
X147480000Y-92825000D01*
X147477000Y-92825000D01*
X147475000Y-92825000D01*
X147472000Y-92824000D01*
X147470000Y-92824000D01*
X147467000Y-92823000D01*
X147465000Y-92823000D01*
X147462000Y-92822000D01*
X147460000Y-92821000D01*
X147457000Y-92820000D01*
X147455000Y-92818000D01*
X147453000Y-92817000D01*
X147451000Y-92815000D01*
X147449000Y-92814000D01*
X147447000Y-92812000D01*
X147445000Y-92810000D01*
X147443000Y-92808000D01*
X147441000Y-92806000D01*
X147440000Y-92804000D01*
X147438000Y-92802000D01*
X147437000Y-92800000D01*
X147435000Y-92798000D01*
X147434000Y-92795000D01*
X147433000Y-92793000D01*
X147432000Y-92790000D01*
X147432000Y-92788000D01*
X147431000Y-92785000D01*
X147431000Y-92783000D01*
X147430000Y-92780000D01*
X147430000Y-92778000D01*
X147430000Y-92775000D01*
X147430000Y-91845000D01*
X147430000Y-91842000D01*
X147430000Y-91840000D01*
X147431000Y-91837000D01*
X147431000Y-91835000D01*
X147432000Y-91832000D01*
X147432000Y-91830000D01*
X147433000Y-91827000D01*
X147434000Y-91825000D01*
X147435000Y-91822000D01*
X147437000Y-91820000D01*
X147438000Y-91818000D01*
X147440000Y-91816000D01*
X147441000Y-91814000D01*
X147443000Y-91812000D01*
X147445000Y-91810000D01*
X147447000Y-91808000D01*
X147449000Y-91806000D01*
X147451000Y-91805000D01*
X147453000Y-91803000D01*
X147455000Y-91802000D01*
X147457000Y-91800000D01*
X147460000Y-91799000D01*
X147462000Y-91798000D01*
X147465000Y-91797000D01*
X147467000Y-91797000D01*
X147470000Y-91796000D01*
X147472000Y-91796000D01*
X147475000Y-91795000D01*
X147477000Y-91795000D01*
X147480000Y-91795000D01*
X148340000Y-91795000D01*
X148343000Y-91795000D01*
X148345000Y-91795000D01*
X148348000Y-91796000D01*
G36*
X148348000Y-91796000D02*
G01*
X148350000Y-91796000D01*
X148353000Y-91797000D01*
X148355000Y-91797000D01*
X148358000Y-91798000D01*
X148360000Y-91799000D01*
X148363000Y-91800000D01*
X148365000Y-91802000D01*
X148367000Y-91803000D01*
X148369000Y-91805000D01*
X148371000Y-91806000D01*
X148373000Y-91808000D01*
X148375000Y-91810000D01*
X148377000Y-91812000D01*
X148379000Y-91814000D01*
X148380000Y-91816000D01*
X148382000Y-91818000D01*
X148383000Y-91820000D01*
X148385000Y-91822000D01*
X148386000Y-91825000D01*
X148387000Y-91827000D01*
X148388000Y-91830000D01*
X148388000Y-91832000D01*
X148389000Y-91835000D01*
X148389000Y-91837000D01*
X148390000Y-91840000D01*
X148390000Y-91842000D01*
X148390000Y-91845000D01*
X148390000Y-92775000D01*
X148390000Y-92778000D01*
X148390000Y-92780000D01*
X148389000Y-92783000D01*
X148389000Y-92785000D01*
X148388000Y-92788000D01*
X148388000Y-92790000D01*
X148387000Y-92793000D01*
X148386000Y-92795000D01*
X148385000Y-92798000D01*
X148383000Y-92800000D01*
X148382000Y-92802000D01*
X148380000Y-92804000D01*
X148379000Y-92806000D01*
X148377000Y-92808000D01*
X148375000Y-92810000D01*
X148373000Y-92812000D01*
X148371000Y-92814000D01*
X148369000Y-92815000D01*
X148367000Y-92817000D01*
X148365000Y-92818000D01*
X148363000Y-92820000D01*
X148360000Y-92821000D01*
X148358000Y-92822000D01*
X148355000Y-92823000D01*
X148353000Y-92823000D01*
X148350000Y-92824000D01*
X148348000Y-92824000D01*
X148345000Y-92825000D01*
X148343000Y-92825000D01*
X148340000Y-92825000D01*
X147480000Y-92825000D01*
X147477000Y-92825000D01*
X147475000Y-92825000D01*
X147472000Y-92824000D01*
X147470000Y-92824000D01*
X147467000Y-92823000D01*
X147465000Y-92823000D01*
X147462000Y-92822000D01*
X147460000Y-92821000D01*
X147457000Y-92820000D01*
X147455000Y-92818000D01*
X147453000Y-92817000D01*
X147451000Y-92815000D01*
X147449000Y-92814000D01*
X147447000Y-92812000D01*
X147445000Y-92810000D01*
X147443000Y-92808000D01*
X147441000Y-92806000D01*
X147440000Y-92804000D01*
X147438000Y-92802000D01*
X147437000Y-92800000D01*
X147435000Y-92798000D01*
X147434000Y-92795000D01*
X147433000Y-92793000D01*
X147432000Y-92790000D01*
X147432000Y-92788000D01*
X147431000Y-92785000D01*
X147431000Y-92783000D01*
X147430000Y-92780000D01*
X147430000Y-92778000D01*
X147430000Y-92775000D01*
X147430000Y-91845000D01*
X147430000Y-91842000D01*
X147430000Y-91840000D01*
X147431000Y-91837000D01*
X147431000Y-91835000D01*
X147432000Y-91832000D01*
X147432000Y-91830000D01*
X147433000Y-91827000D01*
X147434000Y-91825000D01*
X147435000Y-91822000D01*
X147437000Y-91820000D01*
X147438000Y-91818000D01*
X147440000Y-91816000D01*
X147441000Y-91814000D01*
X147443000Y-91812000D01*
X147445000Y-91810000D01*
X147447000Y-91808000D01*
X147449000Y-91806000D01*
X147451000Y-91805000D01*
X147453000Y-91803000D01*
X147455000Y-91802000D01*
X147457000Y-91800000D01*
X147460000Y-91799000D01*
X147462000Y-91798000D01*
X147465000Y-91797000D01*
X147467000Y-91797000D01*
X147470000Y-91796000D01*
X147472000Y-91796000D01*
X147475000Y-91795000D01*
X147477000Y-91795000D01*
X147480000Y-91795000D01*
X148340000Y-91795000D01*
X148343000Y-91795000D01*
X148345000Y-91795000D01*
X148348000Y-91796000D01*
G37*
X148348000Y-93026000D02*
X148350000Y-93026000D01*
X148353000Y-93027000D01*
X148355000Y-93027000D01*
X148358000Y-93028000D01*
X148360000Y-93029000D01*
X148363000Y-93030000D01*
X148365000Y-93032000D01*
X148367000Y-93033000D01*
X148369000Y-93035000D01*
X148371000Y-93036000D01*
X148373000Y-93038000D01*
X148375000Y-93040000D01*
X148377000Y-93042000D01*
X148379000Y-93044000D01*
X148380000Y-93046000D01*
X148382000Y-93048000D01*
X148383000Y-93050000D01*
X148385000Y-93052000D01*
X148386000Y-93055000D01*
X148387000Y-93057000D01*
X148388000Y-93060000D01*
X148388000Y-93062000D01*
X148389000Y-93065000D01*
X148389000Y-93067000D01*
X148390000Y-93070000D01*
X148390000Y-93072000D01*
X148390000Y-93075000D01*
X148390000Y-94005000D01*
X148390000Y-94008000D01*
X148390000Y-94010000D01*
X148389000Y-94013000D01*
X148389000Y-94015000D01*
X148388000Y-94018000D01*
X148388000Y-94020000D01*
X148387000Y-94023000D01*
X148386000Y-94025000D01*
X148385000Y-94028000D01*
X148383000Y-94030000D01*
X148382000Y-94032000D01*
X148380000Y-94034000D01*
X148379000Y-94036000D01*
X148377000Y-94038000D01*
X148375000Y-94040000D01*
X148373000Y-94042000D01*
X148371000Y-94044000D01*
X148369000Y-94045000D01*
X148367000Y-94047000D01*
X148365000Y-94048000D01*
X148363000Y-94050000D01*
X148360000Y-94051000D01*
X148358000Y-94052000D01*
X148355000Y-94053000D01*
X148353000Y-94053000D01*
X148350000Y-94054000D01*
X148348000Y-94054000D01*
X148345000Y-94055000D01*
X148343000Y-94055000D01*
X148340000Y-94055000D01*
X147480000Y-94055000D01*
X147477000Y-94055000D01*
X147475000Y-94055000D01*
X147472000Y-94054000D01*
X147470000Y-94054000D01*
X147467000Y-94053000D01*
X147465000Y-94053000D01*
X147462000Y-94052000D01*
X147460000Y-94051000D01*
X147457000Y-94050000D01*
X147455000Y-94048000D01*
X147453000Y-94047000D01*
X147451000Y-94045000D01*
X147449000Y-94044000D01*
X147447000Y-94042000D01*
X147445000Y-94040000D01*
X147443000Y-94038000D01*
X147441000Y-94036000D01*
X147440000Y-94034000D01*
X147438000Y-94032000D01*
X147437000Y-94030000D01*
X147435000Y-94028000D01*
X147434000Y-94025000D01*
X147433000Y-94023000D01*
X147432000Y-94020000D01*
X147432000Y-94018000D01*
X147431000Y-94015000D01*
X147431000Y-94013000D01*
X147430000Y-94010000D01*
X147430000Y-94008000D01*
X147430000Y-94005000D01*
X147430000Y-93075000D01*
X147430000Y-93072000D01*
X147430000Y-93070000D01*
X147431000Y-93067000D01*
X147431000Y-93065000D01*
X147432000Y-93062000D01*
X147432000Y-93060000D01*
X147433000Y-93057000D01*
X147434000Y-93055000D01*
X147435000Y-93052000D01*
X147437000Y-93050000D01*
X147438000Y-93048000D01*
X147440000Y-93046000D01*
X147441000Y-93044000D01*
X147443000Y-93042000D01*
X147445000Y-93040000D01*
X147447000Y-93038000D01*
X147449000Y-93036000D01*
X147451000Y-93035000D01*
X147453000Y-93033000D01*
X147455000Y-93032000D01*
X147457000Y-93030000D01*
X147460000Y-93029000D01*
X147462000Y-93028000D01*
X147465000Y-93027000D01*
X147467000Y-93027000D01*
X147470000Y-93026000D01*
X147472000Y-93026000D01*
X147475000Y-93025000D01*
X147477000Y-93025000D01*
X147480000Y-93025000D01*
X148340000Y-93025000D01*
X148343000Y-93025000D01*
X148345000Y-93025000D01*
X148348000Y-93026000D01*
G36*
X148348000Y-93026000D02*
G01*
X148350000Y-93026000D01*
X148353000Y-93027000D01*
X148355000Y-93027000D01*
X148358000Y-93028000D01*
X148360000Y-93029000D01*
X148363000Y-93030000D01*
X148365000Y-93032000D01*
X148367000Y-93033000D01*
X148369000Y-93035000D01*
X148371000Y-93036000D01*
X148373000Y-93038000D01*
X148375000Y-93040000D01*
X148377000Y-93042000D01*
X148379000Y-93044000D01*
X148380000Y-93046000D01*
X148382000Y-93048000D01*
X148383000Y-93050000D01*
X148385000Y-93052000D01*
X148386000Y-93055000D01*
X148387000Y-93057000D01*
X148388000Y-93060000D01*
X148388000Y-93062000D01*
X148389000Y-93065000D01*
X148389000Y-93067000D01*
X148390000Y-93070000D01*
X148390000Y-93072000D01*
X148390000Y-93075000D01*
X148390000Y-94005000D01*
X148390000Y-94008000D01*
X148390000Y-94010000D01*
X148389000Y-94013000D01*
X148389000Y-94015000D01*
X148388000Y-94018000D01*
X148388000Y-94020000D01*
X148387000Y-94023000D01*
X148386000Y-94025000D01*
X148385000Y-94028000D01*
X148383000Y-94030000D01*
X148382000Y-94032000D01*
X148380000Y-94034000D01*
X148379000Y-94036000D01*
X148377000Y-94038000D01*
X148375000Y-94040000D01*
X148373000Y-94042000D01*
X148371000Y-94044000D01*
X148369000Y-94045000D01*
X148367000Y-94047000D01*
X148365000Y-94048000D01*
X148363000Y-94050000D01*
X148360000Y-94051000D01*
X148358000Y-94052000D01*
X148355000Y-94053000D01*
X148353000Y-94053000D01*
X148350000Y-94054000D01*
X148348000Y-94054000D01*
X148345000Y-94055000D01*
X148343000Y-94055000D01*
X148340000Y-94055000D01*
X147480000Y-94055000D01*
X147477000Y-94055000D01*
X147475000Y-94055000D01*
X147472000Y-94054000D01*
X147470000Y-94054000D01*
X147467000Y-94053000D01*
X147465000Y-94053000D01*
X147462000Y-94052000D01*
X147460000Y-94051000D01*
X147457000Y-94050000D01*
X147455000Y-94048000D01*
X147453000Y-94047000D01*
X147451000Y-94045000D01*
X147449000Y-94044000D01*
X147447000Y-94042000D01*
X147445000Y-94040000D01*
X147443000Y-94038000D01*
X147441000Y-94036000D01*
X147440000Y-94034000D01*
X147438000Y-94032000D01*
X147437000Y-94030000D01*
X147435000Y-94028000D01*
X147434000Y-94025000D01*
X147433000Y-94023000D01*
X147432000Y-94020000D01*
X147432000Y-94018000D01*
X147431000Y-94015000D01*
X147431000Y-94013000D01*
X147430000Y-94010000D01*
X147430000Y-94008000D01*
X147430000Y-94005000D01*
X147430000Y-93075000D01*
X147430000Y-93072000D01*
X147430000Y-93070000D01*
X147431000Y-93067000D01*
X147431000Y-93065000D01*
X147432000Y-93062000D01*
X147432000Y-93060000D01*
X147433000Y-93057000D01*
X147434000Y-93055000D01*
X147435000Y-93052000D01*
X147437000Y-93050000D01*
X147438000Y-93048000D01*
X147440000Y-93046000D01*
X147441000Y-93044000D01*
X147443000Y-93042000D01*
X147445000Y-93040000D01*
X147447000Y-93038000D01*
X147449000Y-93036000D01*
X147451000Y-93035000D01*
X147453000Y-93033000D01*
X147455000Y-93032000D01*
X147457000Y-93030000D01*
X147460000Y-93029000D01*
X147462000Y-93028000D01*
X147465000Y-93027000D01*
X147467000Y-93027000D01*
X147470000Y-93026000D01*
X147472000Y-93026000D01*
X147475000Y-93025000D01*
X147477000Y-93025000D01*
X147480000Y-93025000D01*
X148340000Y-93025000D01*
X148343000Y-93025000D01*
X148345000Y-93025000D01*
X148348000Y-93026000D01*
G37*
X149508000Y-91796000D02*
X149510000Y-91796000D01*
X149513000Y-91797000D01*
X149515000Y-91797000D01*
X149518000Y-91798000D01*
X149520000Y-91799000D01*
X149523000Y-91800000D01*
X149525000Y-91802000D01*
X149527000Y-91803000D01*
X149529000Y-91805000D01*
X149531000Y-91806000D01*
X149533000Y-91808000D01*
X149535000Y-91810000D01*
X149537000Y-91812000D01*
X149539000Y-91814000D01*
X149540000Y-91816000D01*
X149542000Y-91818000D01*
X149543000Y-91820000D01*
X149545000Y-91822000D01*
X149546000Y-91825000D01*
X149547000Y-91827000D01*
X149548000Y-91830000D01*
X149548000Y-91832000D01*
X149549000Y-91835000D01*
X149549000Y-91837000D01*
X149550000Y-91840000D01*
X149550000Y-91842000D01*
X149550000Y-91845000D01*
X149550000Y-92775000D01*
X149550000Y-92778000D01*
X149550000Y-92780000D01*
X149549000Y-92783000D01*
X149549000Y-92785000D01*
X149548000Y-92788000D01*
X149548000Y-92790000D01*
X149547000Y-92793000D01*
X149546000Y-92795000D01*
X149545000Y-92798000D01*
X149543000Y-92800000D01*
X149542000Y-92802000D01*
X149540000Y-92804000D01*
X149539000Y-92806000D01*
X149537000Y-92808000D01*
X149535000Y-92810000D01*
X149533000Y-92812000D01*
X149531000Y-92814000D01*
X149529000Y-92815000D01*
X149527000Y-92817000D01*
X149525000Y-92818000D01*
X149523000Y-92820000D01*
X149520000Y-92821000D01*
X149518000Y-92822000D01*
X149515000Y-92823000D01*
X149513000Y-92823000D01*
X149510000Y-92824000D01*
X149508000Y-92824000D01*
X149505000Y-92825000D01*
X149503000Y-92825000D01*
X149500000Y-92825000D01*
X148640000Y-92825000D01*
X148637000Y-92825000D01*
X148635000Y-92825000D01*
X148632000Y-92824000D01*
X148630000Y-92824000D01*
X148627000Y-92823000D01*
X148625000Y-92823000D01*
X148622000Y-92822000D01*
X148620000Y-92821000D01*
X148617000Y-92820000D01*
X148615000Y-92818000D01*
X148613000Y-92817000D01*
X148611000Y-92815000D01*
X148609000Y-92814000D01*
X148607000Y-92812000D01*
X148605000Y-92810000D01*
X148603000Y-92808000D01*
X148601000Y-92806000D01*
X148600000Y-92804000D01*
X148598000Y-92802000D01*
X148597000Y-92800000D01*
X148595000Y-92798000D01*
X148594000Y-92795000D01*
X148593000Y-92793000D01*
X148592000Y-92790000D01*
X148592000Y-92788000D01*
X148591000Y-92785000D01*
X148591000Y-92783000D01*
X148590000Y-92780000D01*
X148590000Y-92778000D01*
X148590000Y-92775000D01*
X148590000Y-91845000D01*
X148590000Y-91842000D01*
X148590000Y-91840000D01*
X148591000Y-91837000D01*
X148591000Y-91835000D01*
X148592000Y-91832000D01*
X148592000Y-91830000D01*
X148593000Y-91827000D01*
X148594000Y-91825000D01*
X148595000Y-91822000D01*
X148597000Y-91820000D01*
X148598000Y-91818000D01*
X148600000Y-91816000D01*
X148601000Y-91814000D01*
X148603000Y-91812000D01*
X148605000Y-91810000D01*
X148607000Y-91808000D01*
X148609000Y-91806000D01*
X148611000Y-91805000D01*
X148613000Y-91803000D01*
X148615000Y-91802000D01*
X148617000Y-91800000D01*
X148620000Y-91799000D01*
X148622000Y-91798000D01*
X148625000Y-91797000D01*
X148627000Y-91797000D01*
X148630000Y-91796000D01*
X148632000Y-91796000D01*
X148635000Y-91795000D01*
X148637000Y-91795000D01*
X148640000Y-91795000D01*
X149500000Y-91795000D01*
X149503000Y-91795000D01*
X149505000Y-91795000D01*
X149508000Y-91796000D01*
G36*
X149508000Y-91796000D02*
G01*
X149510000Y-91796000D01*
X149513000Y-91797000D01*
X149515000Y-91797000D01*
X149518000Y-91798000D01*
X149520000Y-91799000D01*
X149523000Y-91800000D01*
X149525000Y-91802000D01*
X149527000Y-91803000D01*
X149529000Y-91805000D01*
X149531000Y-91806000D01*
X149533000Y-91808000D01*
X149535000Y-91810000D01*
X149537000Y-91812000D01*
X149539000Y-91814000D01*
X149540000Y-91816000D01*
X149542000Y-91818000D01*
X149543000Y-91820000D01*
X149545000Y-91822000D01*
X149546000Y-91825000D01*
X149547000Y-91827000D01*
X149548000Y-91830000D01*
X149548000Y-91832000D01*
X149549000Y-91835000D01*
X149549000Y-91837000D01*
X149550000Y-91840000D01*
X149550000Y-91842000D01*
X149550000Y-91845000D01*
X149550000Y-92775000D01*
X149550000Y-92778000D01*
X149550000Y-92780000D01*
X149549000Y-92783000D01*
X149549000Y-92785000D01*
X149548000Y-92788000D01*
X149548000Y-92790000D01*
X149547000Y-92793000D01*
X149546000Y-92795000D01*
X149545000Y-92798000D01*
X149543000Y-92800000D01*
X149542000Y-92802000D01*
X149540000Y-92804000D01*
X149539000Y-92806000D01*
X149537000Y-92808000D01*
X149535000Y-92810000D01*
X149533000Y-92812000D01*
X149531000Y-92814000D01*
X149529000Y-92815000D01*
X149527000Y-92817000D01*
X149525000Y-92818000D01*
X149523000Y-92820000D01*
X149520000Y-92821000D01*
X149518000Y-92822000D01*
X149515000Y-92823000D01*
X149513000Y-92823000D01*
X149510000Y-92824000D01*
X149508000Y-92824000D01*
X149505000Y-92825000D01*
X149503000Y-92825000D01*
X149500000Y-92825000D01*
X148640000Y-92825000D01*
X148637000Y-92825000D01*
X148635000Y-92825000D01*
X148632000Y-92824000D01*
X148630000Y-92824000D01*
X148627000Y-92823000D01*
X148625000Y-92823000D01*
X148622000Y-92822000D01*
X148620000Y-92821000D01*
X148617000Y-92820000D01*
X148615000Y-92818000D01*
X148613000Y-92817000D01*
X148611000Y-92815000D01*
X148609000Y-92814000D01*
X148607000Y-92812000D01*
X148605000Y-92810000D01*
X148603000Y-92808000D01*
X148601000Y-92806000D01*
X148600000Y-92804000D01*
X148598000Y-92802000D01*
X148597000Y-92800000D01*
X148595000Y-92798000D01*
X148594000Y-92795000D01*
X148593000Y-92793000D01*
X148592000Y-92790000D01*
X148592000Y-92788000D01*
X148591000Y-92785000D01*
X148591000Y-92783000D01*
X148590000Y-92780000D01*
X148590000Y-92778000D01*
X148590000Y-92775000D01*
X148590000Y-91845000D01*
X148590000Y-91842000D01*
X148590000Y-91840000D01*
X148591000Y-91837000D01*
X148591000Y-91835000D01*
X148592000Y-91832000D01*
X148592000Y-91830000D01*
X148593000Y-91827000D01*
X148594000Y-91825000D01*
X148595000Y-91822000D01*
X148597000Y-91820000D01*
X148598000Y-91818000D01*
X148600000Y-91816000D01*
X148601000Y-91814000D01*
X148603000Y-91812000D01*
X148605000Y-91810000D01*
X148607000Y-91808000D01*
X148609000Y-91806000D01*
X148611000Y-91805000D01*
X148613000Y-91803000D01*
X148615000Y-91802000D01*
X148617000Y-91800000D01*
X148620000Y-91799000D01*
X148622000Y-91798000D01*
X148625000Y-91797000D01*
X148627000Y-91797000D01*
X148630000Y-91796000D01*
X148632000Y-91796000D01*
X148635000Y-91795000D01*
X148637000Y-91795000D01*
X148640000Y-91795000D01*
X149500000Y-91795000D01*
X149503000Y-91795000D01*
X149505000Y-91795000D01*
X149508000Y-91796000D01*
G37*
X149508000Y-90566000D02*
X149510000Y-90566000D01*
X149513000Y-90567000D01*
X149515000Y-90567000D01*
X149518000Y-90568000D01*
X149520000Y-90569000D01*
X149523000Y-90570000D01*
X149525000Y-90572000D01*
X149527000Y-90573000D01*
X149529000Y-90575000D01*
X149531000Y-90576000D01*
X149533000Y-90578000D01*
X149535000Y-90580000D01*
X149537000Y-90582000D01*
X149539000Y-90584000D01*
X149540000Y-90586000D01*
X149542000Y-90588000D01*
X149543000Y-90590000D01*
X149545000Y-90592000D01*
X149546000Y-90595000D01*
X149547000Y-90597000D01*
X149548000Y-90600000D01*
X149548000Y-90602000D01*
X149549000Y-90605000D01*
X149549000Y-90607000D01*
X149550000Y-90610000D01*
X149550000Y-90612000D01*
X149550000Y-90615000D01*
X149550000Y-91545000D01*
X149550000Y-91548000D01*
X149550000Y-91550000D01*
X149549000Y-91553000D01*
X149549000Y-91555000D01*
X149548000Y-91558000D01*
X149548000Y-91560000D01*
X149547000Y-91563000D01*
X149546000Y-91565000D01*
X149545000Y-91568000D01*
X149543000Y-91570000D01*
X149542000Y-91572000D01*
X149540000Y-91574000D01*
X149539000Y-91576000D01*
X149537000Y-91578000D01*
X149535000Y-91580000D01*
X149533000Y-91582000D01*
X149531000Y-91584000D01*
X149529000Y-91585000D01*
X149527000Y-91587000D01*
X149525000Y-91588000D01*
X149523000Y-91590000D01*
X149520000Y-91591000D01*
X149518000Y-91592000D01*
X149515000Y-91593000D01*
X149513000Y-91593000D01*
X149510000Y-91594000D01*
X149508000Y-91594000D01*
X149505000Y-91595000D01*
X149503000Y-91595000D01*
X149500000Y-91595000D01*
X148640000Y-91595000D01*
X148637000Y-91595000D01*
X148635000Y-91595000D01*
X148632000Y-91594000D01*
X148630000Y-91594000D01*
X148627000Y-91593000D01*
X148625000Y-91593000D01*
X148622000Y-91592000D01*
X148620000Y-91591000D01*
X148617000Y-91590000D01*
X148615000Y-91588000D01*
X148613000Y-91587000D01*
X148611000Y-91585000D01*
X148609000Y-91584000D01*
X148607000Y-91582000D01*
X148605000Y-91580000D01*
X148603000Y-91578000D01*
X148601000Y-91576000D01*
X148600000Y-91574000D01*
X148598000Y-91572000D01*
X148597000Y-91570000D01*
X148595000Y-91568000D01*
X148594000Y-91565000D01*
X148593000Y-91563000D01*
X148592000Y-91560000D01*
X148592000Y-91558000D01*
X148591000Y-91555000D01*
X148591000Y-91553000D01*
X148590000Y-91550000D01*
X148590000Y-91548000D01*
X148590000Y-91545000D01*
X148590000Y-90615000D01*
X148590000Y-90612000D01*
X148590000Y-90610000D01*
X148591000Y-90607000D01*
X148591000Y-90605000D01*
X148592000Y-90602000D01*
X148592000Y-90600000D01*
X148593000Y-90597000D01*
X148594000Y-90595000D01*
X148595000Y-90592000D01*
X148597000Y-90590000D01*
X148598000Y-90588000D01*
X148600000Y-90586000D01*
X148601000Y-90584000D01*
X148603000Y-90582000D01*
X148605000Y-90580000D01*
X148607000Y-90578000D01*
X148609000Y-90576000D01*
X148611000Y-90575000D01*
X148613000Y-90573000D01*
X148615000Y-90572000D01*
X148617000Y-90570000D01*
X148620000Y-90569000D01*
X148622000Y-90568000D01*
X148625000Y-90567000D01*
X148627000Y-90567000D01*
X148630000Y-90566000D01*
X148632000Y-90566000D01*
X148635000Y-90565000D01*
X148637000Y-90565000D01*
X148640000Y-90565000D01*
X149500000Y-90565000D01*
X149503000Y-90565000D01*
X149505000Y-90565000D01*
X149508000Y-90566000D01*
G36*
X149508000Y-90566000D02*
G01*
X149510000Y-90566000D01*
X149513000Y-90567000D01*
X149515000Y-90567000D01*
X149518000Y-90568000D01*
X149520000Y-90569000D01*
X149523000Y-90570000D01*
X149525000Y-90572000D01*
X149527000Y-90573000D01*
X149529000Y-90575000D01*
X149531000Y-90576000D01*
X149533000Y-90578000D01*
X149535000Y-90580000D01*
X149537000Y-90582000D01*
X149539000Y-90584000D01*
X149540000Y-90586000D01*
X149542000Y-90588000D01*
X149543000Y-90590000D01*
X149545000Y-90592000D01*
X149546000Y-90595000D01*
X149547000Y-90597000D01*
X149548000Y-90600000D01*
X149548000Y-90602000D01*
X149549000Y-90605000D01*
X149549000Y-90607000D01*
X149550000Y-90610000D01*
X149550000Y-90612000D01*
X149550000Y-90615000D01*
X149550000Y-91545000D01*
X149550000Y-91548000D01*
X149550000Y-91550000D01*
X149549000Y-91553000D01*
X149549000Y-91555000D01*
X149548000Y-91558000D01*
X149548000Y-91560000D01*
X149547000Y-91563000D01*
X149546000Y-91565000D01*
X149545000Y-91568000D01*
X149543000Y-91570000D01*
X149542000Y-91572000D01*
X149540000Y-91574000D01*
X149539000Y-91576000D01*
X149537000Y-91578000D01*
X149535000Y-91580000D01*
X149533000Y-91582000D01*
X149531000Y-91584000D01*
X149529000Y-91585000D01*
X149527000Y-91587000D01*
X149525000Y-91588000D01*
X149523000Y-91590000D01*
X149520000Y-91591000D01*
X149518000Y-91592000D01*
X149515000Y-91593000D01*
X149513000Y-91593000D01*
X149510000Y-91594000D01*
X149508000Y-91594000D01*
X149505000Y-91595000D01*
X149503000Y-91595000D01*
X149500000Y-91595000D01*
X148640000Y-91595000D01*
X148637000Y-91595000D01*
X148635000Y-91595000D01*
X148632000Y-91594000D01*
X148630000Y-91594000D01*
X148627000Y-91593000D01*
X148625000Y-91593000D01*
X148622000Y-91592000D01*
X148620000Y-91591000D01*
X148617000Y-91590000D01*
X148615000Y-91588000D01*
X148613000Y-91587000D01*
X148611000Y-91585000D01*
X148609000Y-91584000D01*
X148607000Y-91582000D01*
X148605000Y-91580000D01*
X148603000Y-91578000D01*
X148601000Y-91576000D01*
X148600000Y-91574000D01*
X148598000Y-91572000D01*
X148597000Y-91570000D01*
X148595000Y-91568000D01*
X148594000Y-91565000D01*
X148593000Y-91563000D01*
X148592000Y-91560000D01*
X148592000Y-91558000D01*
X148591000Y-91555000D01*
X148591000Y-91553000D01*
X148590000Y-91550000D01*
X148590000Y-91548000D01*
X148590000Y-91545000D01*
X148590000Y-90615000D01*
X148590000Y-90612000D01*
X148590000Y-90610000D01*
X148591000Y-90607000D01*
X148591000Y-90605000D01*
X148592000Y-90602000D01*
X148592000Y-90600000D01*
X148593000Y-90597000D01*
X148594000Y-90595000D01*
X148595000Y-90592000D01*
X148597000Y-90590000D01*
X148598000Y-90588000D01*
X148600000Y-90586000D01*
X148601000Y-90584000D01*
X148603000Y-90582000D01*
X148605000Y-90580000D01*
X148607000Y-90578000D01*
X148609000Y-90576000D01*
X148611000Y-90575000D01*
X148613000Y-90573000D01*
X148615000Y-90572000D01*
X148617000Y-90570000D01*
X148620000Y-90569000D01*
X148622000Y-90568000D01*
X148625000Y-90567000D01*
X148627000Y-90567000D01*
X148630000Y-90566000D01*
X148632000Y-90566000D01*
X148635000Y-90565000D01*
X148637000Y-90565000D01*
X148640000Y-90565000D01*
X149500000Y-90565000D01*
X149503000Y-90565000D01*
X149505000Y-90565000D01*
X149508000Y-90566000D01*
G37*
X149508000Y-93026000D02*
X149510000Y-93026000D01*
X149513000Y-93027000D01*
X149515000Y-93027000D01*
X149518000Y-93028000D01*
X149520000Y-93029000D01*
X149523000Y-93030000D01*
X149525000Y-93032000D01*
X149527000Y-93033000D01*
X149529000Y-93035000D01*
X149531000Y-93036000D01*
X149533000Y-93038000D01*
X149535000Y-93040000D01*
X149537000Y-93042000D01*
X149539000Y-93044000D01*
X149540000Y-93046000D01*
X149542000Y-93048000D01*
X149543000Y-93050000D01*
X149545000Y-93052000D01*
X149546000Y-93055000D01*
X149547000Y-93057000D01*
X149548000Y-93060000D01*
X149548000Y-93062000D01*
X149549000Y-93065000D01*
X149549000Y-93067000D01*
X149550000Y-93070000D01*
X149550000Y-93072000D01*
X149550000Y-93075000D01*
X149550000Y-94005000D01*
X149550000Y-94008000D01*
X149550000Y-94010000D01*
X149549000Y-94013000D01*
X149549000Y-94015000D01*
X149548000Y-94018000D01*
X149548000Y-94020000D01*
X149547000Y-94023000D01*
X149546000Y-94025000D01*
X149545000Y-94028000D01*
X149543000Y-94030000D01*
X149542000Y-94032000D01*
X149540000Y-94034000D01*
X149539000Y-94036000D01*
X149537000Y-94038000D01*
X149535000Y-94040000D01*
X149533000Y-94042000D01*
X149531000Y-94044000D01*
X149529000Y-94045000D01*
X149527000Y-94047000D01*
X149525000Y-94048000D01*
X149523000Y-94050000D01*
X149520000Y-94051000D01*
X149518000Y-94052000D01*
X149515000Y-94053000D01*
X149513000Y-94053000D01*
X149510000Y-94054000D01*
X149508000Y-94054000D01*
X149505000Y-94055000D01*
X149503000Y-94055000D01*
X149500000Y-94055000D01*
X148640000Y-94055000D01*
X148637000Y-94055000D01*
X148635000Y-94055000D01*
X148632000Y-94054000D01*
X148630000Y-94054000D01*
X148627000Y-94053000D01*
X148625000Y-94053000D01*
X148622000Y-94052000D01*
X148620000Y-94051000D01*
X148617000Y-94050000D01*
X148615000Y-94048000D01*
X148613000Y-94047000D01*
X148611000Y-94045000D01*
X148609000Y-94044000D01*
X148607000Y-94042000D01*
X148605000Y-94040000D01*
X148603000Y-94038000D01*
X148601000Y-94036000D01*
X148600000Y-94034000D01*
X148598000Y-94032000D01*
X148597000Y-94030000D01*
X148595000Y-94028000D01*
X148594000Y-94025000D01*
X148593000Y-94023000D01*
X148592000Y-94020000D01*
X148592000Y-94018000D01*
X148591000Y-94015000D01*
X148591000Y-94013000D01*
X148590000Y-94010000D01*
X148590000Y-94008000D01*
X148590000Y-94005000D01*
X148590000Y-93075000D01*
X148590000Y-93072000D01*
X148590000Y-93070000D01*
X148591000Y-93067000D01*
X148591000Y-93065000D01*
X148592000Y-93062000D01*
X148592000Y-93060000D01*
X148593000Y-93057000D01*
X148594000Y-93055000D01*
X148595000Y-93052000D01*
X148597000Y-93050000D01*
X148598000Y-93048000D01*
X148600000Y-93046000D01*
X148601000Y-93044000D01*
X148603000Y-93042000D01*
X148605000Y-93040000D01*
X148607000Y-93038000D01*
X148609000Y-93036000D01*
X148611000Y-93035000D01*
X148613000Y-93033000D01*
X148615000Y-93032000D01*
X148617000Y-93030000D01*
X148620000Y-93029000D01*
X148622000Y-93028000D01*
X148625000Y-93027000D01*
X148627000Y-93027000D01*
X148630000Y-93026000D01*
X148632000Y-93026000D01*
X148635000Y-93025000D01*
X148637000Y-93025000D01*
X148640000Y-93025000D01*
X149500000Y-93025000D01*
X149503000Y-93025000D01*
X149505000Y-93025000D01*
X149508000Y-93026000D01*
G36*
X149508000Y-93026000D02*
G01*
X149510000Y-93026000D01*
X149513000Y-93027000D01*
X149515000Y-93027000D01*
X149518000Y-93028000D01*
X149520000Y-93029000D01*
X149523000Y-93030000D01*
X149525000Y-93032000D01*
X149527000Y-93033000D01*
X149529000Y-93035000D01*
X149531000Y-93036000D01*
X149533000Y-93038000D01*
X149535000Y-93040000D01*
X149537000Y-93042000D01*
X149539000Y-93044000D01*
X149540000Y-93046000D01*
X149542000Y-93048000D01*
X149543000Y-93050000D01*
X149545000Y-93052000D01*
X149546000Y-93055000D01*
X149547000Y-93057000D01*
X149548000Y-93060000D01*
X149548000Y-93062000D01*
X149549000Y-93065000D01*
X149549000Y-93067000D01*
X149550000Y-93070000D01*
X149550000Y-93072000D01*
X149550000Y-93075000D01*
X149550000Y-94005000D01*
X149550000Y-94008000D01*
X149550000Y-94010000D01*
X149549000Y-94013000D01*
X149549000Y-94015000D01*
X149548000Y-94018000D01*
X149548000Y-94020000D01*
X149547000Y-94023000D01*
X149546000Y-94025000D01*
X149545000Y-94028000D01*
X149543000Y-94030000D01*
X149542000Y-94032000D01*
X149540000Y-94034000D01*
X149539000Y-94036000D01*
X149537000Y-94038000D01*
X149535000Y-94040000D01*
X149533000Y-94042000D01*
X149531000Y-94044000D01*
X149529000Y-94045000D01*
X149527000Y-94047000D01*
X149525000Y-94048000D01*
X149523000Y-94050000D01*
X149520000Y-94051000D01*
X149518000Y-94052000D01*
X149515000Y-94053000D01*
X149513000Y-94053000D01*
X149510000Y-94054000D01*
X149508000Y-94054000D01*
X149505000Y-94055000D01*
X149503000Y-94055000D01*
X149500000Y-94055000D01*
X148640000Y-94055000D01*
X148637000Y-94055000D01*
X148635000Y-94055000D01*
X148632000Y-94054000D01*
X148630000Y-94054000D01*
X148627000Y-94053000D01*
X148625000Y-94053000D01*
X148622000Y-94052000D01*
X148620000Y-94051000D01*
X148617000Y-94050000D01*
X148615000Y-94048000D01*
X148613000Y-94047000D01*
X148611000Y-94045000D01*
X148609000Y-94044000D01*
X148607000Y-94042000D01*
X148605000Y-94040000D01*
X148603000Y-94038000D01*
X148601000Y-94036000D01*
X148600000Y-94034000D01*
X148598000Y-94032000D01*
X148597000Y-94030000D01*
X148595000Y-94028000D01*
X148594000Y-94025000D01*
X148593000Y-94023000D01*
X148592000Y-94020000D01*
X148592000Y-94018000D01*
X148591000Y-94015000D01*
X148591000Y-94013000D01*
X148590000Y-94010000D01*
X148590000Y-94008000D01*
X148590000Y-94005000D01*
X148590000Y-93075000D01*
X148590000Y-93072000D01*
X148590000Y-93070000D01*
X148591000Y-93067000D01*
X148591000Y-93065000D01*
X148592000Y-93062000D01*
X148592000Y-93060000D01*
X148593000Y-93057000D01*
X148594000Y-93055000D01*
X148595000Y-93052000D01*
X148597000Y-93050000D01*
X148598000Y-93048000D01*
X148600000Y-93046000D01*
X148601000Y-93044000D01*
X148603000Y-93042000D01*
X148605000Y-93040000D01*
X148607000Y-93038000D01*
X148609000Y-93036000D01*
X148611000Y-93035000D01*
X148613000Y-93033000D01*
X148615000Y-93032000D01*
X148617000Y-93030000D01*
X148620000Y-93029000D01*
X148622000Y-93028000D01*
X148625000Y-93027000D01*
X148627000Y-93027000D01*
X148630000Y-93026000D01*
X148632000Y-93026000D01*
X148635000Y-93025000D01*
X148637000Y-93025000D01*
X148640000Y-93025000D01*
X149500000Y-93025000D01*
X149503000Y-93025000D01*
X149505000Y-93025000D01*
X149508000Y-93026000D01*
G37*
%TD*%
D11*
%TO.C,RR_BATT_SNS1*%
X118427500Y-98525000D03*
X121352500Y-98525000D03*
%TD*%
D12*
%TO.C,R6*%
X138400000Y-139137500D03*
X138400000Y-142062500D03*
%TD*%
D13*
%TO.C,D2*%
X184187500Y-88600000D03*
X182612500Y-88600000D03*
%TD*%
D14*
%TO.C,C14*%
X142030000Y-93590000D03*
X142030000Y-92630000D03*
%TD*%
D15*
%TO.C,R4*%
X161000000Y-89375000D03*
X161000000Y-91025000D03*
%TD*%
D16*
%TO.C,R9*%
X152200000Y-130890000D03*
X152200000Y-131910000D03*
%TD*%
D17*
%TO.C,D4*%
X144455000Y-103325000D03*
X140125000Y-103325000D03*
%TD*%
D18*
%TO.C,C5*%
X173290000Y-105645400D03*
X173290000Y-109404600D03*
%TD*%
D19*
%TO.C,U10*%
X157000000Y-139200000D03*
X159387600Y-139200000D03*
%TD*%
%TO.C,U9*%
X154406200Y-141800000D03*
X156793800Y-141800000D03*
%TD*%
D20*
%TO.C,C16*%
X142030000Y-90380000D03*
X142030000Y-91340000D03*
%TD*%
D17*
%TO.C,D5*%
X151015000Y-103325000D03*
X155345000Y-103325000D03*
%TD*%
D21*
%TO.C,C19*%
X160080000Y-107600000D03*
X159120000Y-107600000D03*
%TD*%
D15*
%TO.C,R25*%
X135000000Y-87750000D03*
X135000000Y-89400000D03*
%TD*%
D22*
%TO.C,U7*%
X178777701Y-129564979D03*
X178777701Y-128904979D03*
X178777701Y-128244979D03*
X178777701Y-127584979D03*
D23*
X175797701Y-127584979D03*
X175797701Y-128244979D03*
X175797701Y-128904979D03*
X175797701Y-129564979D03*
D24*
X176787701Y-128574979D03*
%TD*%
D25*
%TO.C,Q8*%
X130580000Y-112135000D03*
X130580000Y-113405000D03*
X130580000Y-114675000D03*
X130580000Y-115945000D03*
D26*
X136130000Y-115945000D03*
X136130000Y-114675000D03*
X136130000Y-113405000D03*
X136130000Y-112135000D03*
D27*
X133795000Y-114040000D03*
%TD*%
D28*
%TO.C,U5*%
X177151700Y-138590000D03*
X177151700Y-139860000D03*
X177151700Y-141130000D03*
X177151700Y-142400000D03*
X182600000Y-142400000D03*
X182600000Y-141130000D03*
X182600000Y-139860000D03*
X182600000Y-138590000D03*
%TD*%
D29*
%TO.C,R23*%
X172850000Y-127915000D03*
X171830000Y-127915000D03*
%TD*%
D28*
%TO.C,U6*%
X177151700Y-144695000D03*
X177151700Y-145965000D03*
X177151700Y-147235000D03*
X177151700Y-148505000D03*
X182600000Y-148505000D03*
X182600000Y-147235000D03*
X182600000Y-145965000D03*
X182600000Y-144695000D03*
%TD*%
D30*
%TO.C,R8*%
X168800000Y-135310000D03*
X168800000Y-134290000D03*
%TD*%
D15*
%TO.C,R11*%
X155600000Y-89350000D03*
X155600000Y-91000000D03*
%TD*%
%TO.C,R_ICHG1*%
X145030000Y-84785000D03*
X145030000Y-86435000D03*
%TD*%
D31*
%TO.C,R_AC_SNS1*%
X173890000Y-103787500D03*
X173890000Y-100862500D03*
%TD*%
D32*
%TO.C,R17*%
X179825000Y-89900000D03*
X178175000Y-89900000D03*
%TD*%
%TO.C,R_FSW_SYNC1*%
X156225000Y-84200000D03*
X154575000Y-84200000D03*
%TD*%
D13*
%TO.C,D3*%
X184187500Y-84600000D03*
X182612500Y-84600000D03*
%TD*%
D16*
%TO.C,R10*%
X160600000Y-130890000D03*
X160600000Y-131910000D03*
%TD*%
D32*
%TO.C,R21*%
X179825000Y-86900000D03*
X178175000Y-86900000D03*
%TD*%
D16*
%TO.C,R_ILIM_HIZ1*%
X143780000Y-81850000D03*
X143780000Y-82870000D03*
%TD*%
D33*
%TO.C,C22*%
X145830000Y-98625000D03*
X145830000Y-100175000D03*
%TD*%
D34*
%TO.C,C8*%
X128010400Y-100725000D03*
X131769600Y-100725000D03*
%TD*%
D14*
%TO.C,C15*%
X139530000Y-92340000D03*
X139530000Y-91380000D03*
%TD*%
D35*
%TO.C,R_AC3*%
X157865000Y-85125000D03*
X159515000Y-85125000D03*
%TD*%
D36*
%TO.C,R3*%
X113575000Y-145800000D03*
X114265000Y-145800000D03*
%TD*%
D33*
%TO.C,C3*%
X148580000Y-98625000D03*
X148580000Y-100175000D03*
%TD*%
D16*
%TO.C,R24*%
X135280000Y-85100000D03*
X135280000Y-86120000D03*
%TD*%
D32*
%TO.C,R22*%
X179825000Y-79900000D03*
X178175000Y-79900000D03*
%TD*%
D14*
%TO.C,C27*%
X152530000Y-95110000D03*
X152530000Y-94150000D03*
%TD*%
D37*
%TO.C,Q13*%
X169000000Y-128200000D03*
X169000000Y-130030000D03*
X171050000Y-129115000D03*
%TD*%
D20*
%TO.C,C4*%
X158600000Y-89320000D03*
X158600000Y-90280000D03*
%TD*%
D37*
%TO.C,Q12*%
X142800000Y-140600000D03*
X142800000Y-142430000D03*
X144850000Y-141515000D03*
%TD*%
D21*
%TO.C,C9*%
X189800000Y-63000000D03*
X188840000Y-63000000D03*
%TD*%
D22*
%TO.C,U4*%
X162000000Y-129400000D03*
X162000000Y-130060000D03*
X162000000Y-130720000D03*
X162000000Y-131380000D03*
D23*
X164980000Y-131380000D03*
X164980000Y-130720000D03*
X164980000Y-130060000D03*
X164980000Y-129400000D03*
D24*
X163990000Y-130390000D03*
%TD*%
D38*
%TO.C,R_AC1*%
X158690000Y-87350000D03*
X158690000Y-86660000D03*
%TD*%
D19*
%TO.C,U11*%
X152000000Y-139200000D03*
X154387600Y-139200000D03*
%TD*%
D30*
%TO.C,R15*%
X180247701Y-127710000D03*
X180247701Y-126690000D03*
%TD*%
D35*
%TO.C,R14*%
X137780000Y-89610000D03*
X139430000Y-89610000D03*
%TD*%
D20*
%TO.C,C26*%
X155530000Y-92320000D03*
X155530000Y-93280000D03*
%TD*%
D25*
%TO.C,Q6*%
X133690000Y-108335000D03*
X133690000Y-107065000D03*
X133690000Y-105795000D03*
X133690000Y-104525000D03*
D26*
X128140000Y-104525000D03*
X128140000Y-105795000D03*
X128140000Y-107065000D03*
X128140000Y-108335000D03*
D27*
X130475000Y-106430000D03*
%TD*%
D39*
%TO.C,L1*%
X155045400Y-114800000D03*
X139754600Y-114800000D03*
%TD*%
D40*
%TO.C,C6*%
X160915000Y-92925000D03*
X162465000Y-92925000D03*
%TD*%
D35*
%TO.C,R12*%
X137705000Y-94360000D03*
X139355000Y-94360000D03*
%TD*%
D25*
%TO.C,Q7*%
X164080000Y-116005000D03*
X164080000Y-114735000D03*
X164080000Y-113465000D03*
X164080000Y-112195000D03*
D26*
X158530000Y-112195000D03*
X158530000Y-113465000D03*
X158530000Y-114735000D03*
X158530000Y-116005000D03*
D27*
X160865000Y-114100000D03*
%TD*%
D32*
%TO.C,R20*%
X179825000Y-83900000D03*
X178175000Y-83900000D03*
%TD*%
D22*
%TO.C,U2*%
X166784000Y-136764979D03*
X166784000Y-136104979D03*
X166784000Y-135444979D03*
X166784000Y-134784979D03*
D23*
X163804000Y-134784979D03*
X163804000Y-135444979D03*
X163804000Y-136104979D03*
X163804000Y-136764979D03*
D24*
X164794000Y-135774979D03*
%TD*%
D13*
%TO.C,D1*%
X184187500Y-81100000D03*
X182612500Y-81100000D03*
%TD*%
D41*
%TO.C,C20*%
X136210000Y-106325000D03*
X137170000Y-106325000D03*
%TD*%
D21*
%TO.C,C1*%
X189460000Y-144000000D03*
X188500000Y-144000000D03*
%TD*%
D32*
%TO.C,R19*%
X179825000Y-76400000D03*
X178175000Y-76400000D03*
%TD*%
D22*
%TO.C,U3*%
X154200000Y-129420000D03*
X154200000Y-130080000D03*
X154200000Y-130740000D03*
X154200000Y-131400000D03*
D23*
X157180000Y-131400000D03*
X157180000Y-130740000D03*
X157180000Y-130080000D03*
X157180000Y-129420000D03*
D24*
X156190000Y-130410000D03*
%TD*%
D36*
%TO.C,R5*%
X113375000Y-65800000D03*
X114065000Y-65800000D03*
%TD*%
D41*
%TO.C,C10*%
X113520000Y-142200000D03*
X114480000Y-142200000D03*
%TD*%
D42*
%TO.C,R2*%
X189665000Y-66400000D03*
X188975000Y-66400000D03*
%TD*%
D43*
%TO.C,U1*%
X149580000Y-89910000D03*
X149080000Y-89910000D03*
X148580000Y-89910000D03*
X148080000Y-89910000D03*
X147580000Y-89910000D03*
X147080000Y-89910000D03*
X146580000Y-89910000D03*
X146080000Y-89910000D03*
X145580000Y-89910000D03*
X145080000Y-89910000D03*
D44*
X144430000Y-90560000D03*
X144430000Y-91060000D03*
X144430000Y-91560000D03*
X144430000Y-92060000D03*
X144430000Y-92560000D03*
X144430000Y-93060000D03*
X144430000Y-93560000D03*
X144430000Y-94060000D03*
D43*
X145080000Y-94710000D03*
X145580000Y-94710000D03*
X146080000Y-94710000D03*
X146580000Y-94710000D03*
X147080000Y-94710000D03*
X147580000Y-94710000D03*
X148080000Y-94710000D03*
X148580000Y-94710000D03*
X149080000Y-94710000D03*
X149580000Y-94710000D03*
D44*
X150230000Y-94060000D03*
X150230000Y-93560000D03*
X150230000Y-93060000D03*
X150230000Y-92560000D03*
X150230000Y-92060000D03*
X150230000Y-91560000D03*
X150230000Y-91060000D03*
X150230000Y-90560000D03*
%TD*%
D18*
%TO.C,C21*%
X124890000Y-103325000D03*
X124890000Y-107084200D03*
%TD*%
%TO.C,C12*%
X177090000Y-105645400D03*
X177090000Y-109404600D03*
%TD*%
D45*
%TO.C,C17*%
X169362194Y-99925000D03*
X164017806Y-99925000D03*
%TD*%
D30*
%TO.C,R_FB1*%
X138530000Y-86120000D03*
X138530000Y-85100000D03*
%TD*%
D32*
%TO.C,R30*%
X159355000Y-92360000D03*
X157705000Y-92360000D03*
%TD*%
D33*
%TO.C,C7*%
X164200000Y-89425000D03*
X164200000Y-90975000D03*
%TD*%
D32*
%TO.C,R16*%
X179575000Y-92900000D03*
X177925000Y-92900000D03*
%TD*%
D12*
%TO.C,R7*%
X138200000Y-145075000D03*
X138200000Y-148000000D03*
%TD*%
D25*
%TO.C,Q5*%
X164490000Y-104525000D03*
X164490000Y-105795000D03*
X164490000Y-107065000D03*
X164490000Y-108335000D03*
D26*
X170040000Y-108335000D03*
X170040000Y-107065000D03*
X170040000Y-105795000D03*
X170040000Y-104525000D03*
D27*
X167705000Y-106430000D03*
%TD*%
D16*
%TO.C,R18*%
X174400000Y-124200000D03*
X174400000Y-125220000D03*
%TD*%
D46*
%TO.C,R13*%
X147200000Y-140487500D03*
X147200000Y-142312500D03*
%TD*%
D42*
%TO.C,R1*%
X191665000Y-146250000D03*
X190975000Y-146250000D03*
%TD*%
D47*
%TO.C,C24*%
X120290000Y-103052806D03*
X120290000Y-108397194D03*
%TD*%
D48*
%TO.C,C23*%
X153400000Y-90110000D03*
X153400000Y-90800000D03*
%TD*%
D47*
%TO.C,C13*%
X170290000Y-112252806D03*
X170290000Y-117597194D03*
%TD*%
D45*
%TO.C,C18*%
X120200106Y-113200000D03*
X125544494Y-113200000D03*
%TD*%
D22*
%TO.C,U8*%
X177270000Y-122610000D03*
X177270000Y-123270000D03*
X177270000Y-123930000D03*
X177270000Y-124590000D03*
D23*
X180250000Y-124590000D03*
X180250000Y-123930000D03*
X180250000Y-123270000D03*
X180250000Y-122610000D03*
D24*
X179260000Y-123600000D03*
%TD*%
D32*
%TO.C,R_AC2*%
X156115000Y-86525000D03*
X154465000Y-86525000D03*
%TD*%
D21*
%TO.C,C25*%
X153480000Y-93000000D03*
X152520000Y-93000000D03*
%TD*%
D49*
%TO.C,R_FBG1*%
X141780000Y-86435000D03*
X141780000Y-84785000D03*
%TD*%
D41*
%TO.C,C11*%
X113375000Y-62000000D03*
X114335000Y-62000000D03*
%TD*%
M02*
