M48
; DRILL file KiCad 10.0.0 date 2026-05-06T15:59:13
; FORMAT={-:-/ absolute / metric / decimal}
; #@! TF.CreationDate,2026-05-06T15:59:13-07:00
; #@! TF.GenerationSoftware,Kicad,Pcbnew,10.0.0
; #@! TF.FileFunction,Plated,1,2,PTH
FMAT,2
METRIC
; #@! TA.AperFunction,Plated,PTH,ComponentDrill
T1C0.200
; #@! TA.AperFunction,Plated,PTH,ViaDrill
T2C0.300
; #@! TA.AperFunction,Plated,PTH,ComponentDrill
T3C0.700
; #@! TA.AperFunction,Plated,PTH,ComponentDrill
T4C0.910
; #@! TA.AperFunction,Plated,PTH,ComponentDrill
T5C1.000
; #@! TA.AperFunction,Plated,PTH,ComponentDrill
T6C3.200
%
G90
G05
T1
X145.28Y-91.695
X145.28Y-92.925
X146.17Y-90.76
X146.17Y-91.695
X146.17Y-92.925
X146.17Y-93.86
X147.33Y-90.76
X147.33Y-91.695
X147.33Y-92.925
X147.33Y-93.86
X148.49Y-90.76
X148.49Y-91.695
X148.49Y-92.925
X148.49Y-93.86
X149.38Y-91.695
X149.38Y-92.925
T2
X115.0Y-65.4
X115.4Y-62.2
X115.4Y-145.2
X115.6Y-143.0
X118.89Y-81.725
X123.0Y-109.6
X124.4Y-108.2
X126.6Y-116.6
X127.0Y-148.0
X128.4Y-113.0
X133.2Y-101.0
X134.6Y-91.8
X134.65Y-94.86
X135.8Y-83.2
X136.371Y-102.571
X136.519Y-104.119
X137.2Y-113.8
X137.2Y-115.8
X139.8Y-148.2
X139.981Y-143.019
X141.0Y-142.0
X141.4Y-94.4
X141.5Y-96.2
X141.6Y-142.8
X141.8Y-88.0
X142.0Y-89.4
X142.4Y-81.6
X143.4Y-93.0
X144.25Y-144.15
X144.3Y-136.85
X144.744Y-97.394
X145.0Y-83.4
X145.4Y-136.85
X145.45Y-144.15
X145.55Y-130.3
X145.8Y-88.8
X146.48Y-87.6
X146.48Y-95.8
X146.85Y-130.2
X147.2Y-99.6
X147.4Y-138.4
X147.65Y-128.15
X148.0Y-139.0
X148.6Y-137.6
X148.65Y-128.25
X149.8Y-136.8
X151.4Y-134.4
X152.8Y-133.0
X153.4Y-96.0
X153.6Y-94.0
X153.8Y-91.455
X157.4Y-83.8
X157.4Y-90.8
X158.2Y-143.0
X160.0Y-109.8
X160.4Y-85.2
X161.6Y-136.6
X162.0Y-110.6
X162.2Y-107.4
X163.2Y-93.8
X163.461Y-108.861
X164.0Y-92.6
X164.4Y-96.8
X165.0Y-138.6
X166.4Y-114.8
X166.8Y-131.0
X168.2Y-131.2
X171.4Y-120.0
X172.6Y-135.4
X173.2Y-142.6
X173.8Y-110.6
X174.8Y-135.6
X175.05Y-125.8
X175.4Y-142.4
X176.2Y-92.05
X176.4Y-80.7
X176.4Y-110.6
X176.6Y-125.8
X176.8Y-89.9
X177.05Y-84.9
X177.4Y-133.0
X178.85Y-120.1
X179.007Y-120.782
X180.4Y-131.0
X180.9Y-121.05
X180.95Y-120.15
X182.0Y-83.2
X182.8Y-93.6
X183.0Y-86.02
X183.6Y-83.2
X183.8Y-87.22
X184.4Y-147.6
X187.2Y-144.2
X188.0Y-63.4
X188.0Y-66.6
X190.4Y-147.4
T3
X120.62Y-81.525
X123.16Y-81.525
T5
X142.47Y-145.5
X145.01Y-145.5
X147.55Y-145.5
X150.09Y-145.5
X152.63Y-145.5
X155.17Y-145.5
X157.71Y-145.5
X160.25Y-145.5
X183.2Y-95.66
X183.2Y-98.2
X187.19Y-73.92
X187.19Y-76.46
X187.19Y-79.0
X187.19Y-81.54
X187.19Y-84.08
X187.19Y-86.62
X187.19Y-89.16
X187.19Y-91.7
X187.19Y-94.24
X187.19Y-96.78
X187.19Y-99.32
X187.19Y-101.86
X187.19Y-104.4
X187.19Y-106.94
X187.19Y-109.48
X187.19Y-112.02
X187.19Y-114.56
X187.19Y-117.1
X187.19Y-119.64
X187.19Y-122.18
X187.19Y-124.72
X187.19Y-127.26
X187.19Y-129.8
X187.19Y-132.34
X187.19Y-134.88
X187.19Y-137.42
X189.73Y-73.92
X189.73Y-76.46
X189.73Y-79.0
X189.73Y-81.54
X189.73Y-84.08
X189.73Y-86.62
X189.73Y-89.16
X189.73Y-91.7
X189.73Y-94.24
X189.73Y-96.78
X189.73Y-99.32
X189.73Y-101.86
X189.73Y-104.4
X189.73Y-106.94
X189.73Y-109.48
X189.73Y-112.02
X189.73Y-114.56
X189.73Y-117.1
X189.73Y-119.64
X189.73Y-122.18
X189.73Y-124.72
X189.73Y-127.26
X189.73Y-129.8
X189.73Y-132.34
X189.73Y-134.88
X189.73Y-137.42
X192.27Y-73.92
X192.27Y-76.46
X192.27Y-79.0
X192.27Y-81.54
X192.27Y-84.08
X192.27Y-86.62
X192.27Y-89.16
X192.27Y-91.7
X192.27Y-94.24
X192.27Y-96.78
X192.27Y-99.32
X192.27Y-101.86
X192.27Y-104.4
X192.27Y-106.94
X192.27Y-109.48
X192.27Y-112.02
X192.27Y-114.56
X192.27Y-117.1
X192.27Y-119.64
X192.27Y-122.18
X192.27Y-124.72
X192.27Y-127.26
X192.27Y-129.8
X192.27Y-132.34
X192.27Y-134.88
X192.27Y-137.42
X194.81Y-73.92
X194.81Y-76.46
X194.81Y-79.0
X194.81Y-81.54
X194.81Y-84.08
X194.81Y-86.62
X194.81Y-89.16
X194.81Y-91.7
X194.81Y-94.24
X194.81Y-96.78
X194.81Y-99.32
X194.81Y-101.86
X194.81Y-104.4
X194.81Y-106.94
X194.81Y-109.48
X194.81Y-112.02
X194.81Y-114.56
X194.81Y-117.1
X194.81Y-119.64
X194.81Y-122.18
X194.81Y-124.72
X194.81Y-127.26
X194.81Y-129.8
X194.81Y-132.34
X194.81Y-134.88
X194.81Y-137.42
T6
X109.08Y-65.03
X109.08Y-145.04
X194.81Y-65.03
X194.81Y-142.5
T4
G00X133.015Y-137.6
M15
G01X130.985Y-137.6
M16
G05
G00X133.015Y-142.3
M15
G01X130.985Y-142.3
M16
G05
G00X133.015Y-147.0
M15
G01X130.985Y-147.0
M16
G05
M30
